G04 #@! TF.GenerationSoftware,KiCad,Pcbnew,8.0.4-unknown-202407162209~ee573a1480~ubuntu24.04.1*
G04 #@! TF.CreationDate,2024-07-25T22:24:25+01:00*
G04 #@! TF.ProjectId,BBC Master ROM Tester,42424320-4d61-4737-9465-7220524f4d20,1.0*
G04 #@! TF.SameCoordinates,Original*
G04 #@! TF.FileFunction,Legend,Bot*
G04 #@! TF.FilePolarity,Positive*
%FSLAX46Y46*%
G04 Gerber Fmt 4.6, Leading zero omitted, Abs format (unit mm)*
G04 Created by KiCad (PCBNEW 8.0.4-unknown-202407162209~ee573a1480~ubuntu24.04.1) date 2024-07-25 22:24:25*
%MOMM*%
%LPD*%
G01*
G04 APERTURE LIST*
%ADD10C,0.150000*%
G04 APERTURE END LIST*
D10*
X193671601Y-74521342D02*
X193671601Y-73321342D01*
X193157316Y-74521342D02*
X193157316Y-73892771D01*
X193157316Y-73892771D02*
X193214458Y-73778485D01*
X193214458Y-73778485D02*
X193328744Y-73721342D01*
X193328744Y-73721342D02*
X193500173Y-73721342D01*
X193500173Y-73721342D02*
X193614458Y-73778485D01*
X193614458Y-73778485D02*
X193671601Y-73835628D01*
X192757316Y-73721342D02*
X192300173Y-73721342D01*
X192585887Y-73321342D02*
X192585887Y-74349914D01*
X192585887Y-74349914D02*
X192528744Y-74464200D01*
X192528744Y-74464200D02*
X192414459Y-74521342D01*
X192414459Y-74521342D02*
X192300173Y-74521342D01*
X192071602Y-73721342D02*
X191614459Y-73721342D01*
X191900173Y-73321342D02*
X191900173Y-74349914D01*
X191900173Y-74349914D02*
X191843030Y-74464200D01*
X191843030Y-74464200D02*
X191728745Y-74521342D01*
X191728745Y-74521342D02*
X191614459Y-74521342D01*
X191214459Y-73721342D02*
X191214459Y-74921342D01*
X191214459Y-73778485D02*
X191100174Y-73721342D01*
X191100174Y-73721342D02*
X190871602Y-73721342D01*
X190871602Y-73721342D02*
X190757316Y-73778485D01*
X190757316Y-73778485D02*
X190700174Y-73835628D01*
X190700174Y-73835628D02*
X190643031Y-73949914D01*
X190643031Y-73949914D02*
X190643031Y-74292771D01*
X190643031Y-74292771D02*
X190700174Y-74407057D01*
X190700174Y-74407057D02*
X190757316Y-74464200D01*
X190757316Y-74464200D02*
X190871602Y-74521342D01*
X190871602Y-74521342D02*
X191100174Y-74521342D01*
X191100174Y-74521342D02*
X191214459Y-74464200D01*
X190185888Y-74464200D02*
X190071602Y-74521342D01*
X190071602Y-74521342D02*
X189843031Y-74521342D01*
X189843031Y-74521342D02*
X189728745Y-74464200D01*
X189728745Y-74464200D02*
X189671602Y-74349914D01*
X189671602Y-74349914D02*
X189671602Y-74292771D01*
X189671602Y-74292771D02*
X189728745Y-74178485D01*
X189728745Y-74178485D02*
X189843031Y-74121342D01*
X189843031Y-74121342D02*
X190014460Y-74121342D01*
X190014460Y-74121342D02*
X190128745Y-74064200D01*
X190128745Y-74064200D02*
X190185888Y-73949914D01*
X190185888Y-73949914D02*
X190185888Y-73892771D01*
X190185888Y-73892771D02*
X190128745Y-73778485D01*
X190128745Y-73778485D02*
X190014460Y-73721342D01*
X190014460Y-73721342D02*
X189843031Y-73721342D01*
X189843031Y-73721342D02*
X189728745Y-73778485D01*
X189157316Y-74407057D02*
X189100173Y-74464200D01*
X189100173Y-74464200D02*
X189157316Y-74521342D01*
X189157316Y-74521342D02*
X189214459Y-74464200D01*
X189214459Y-74464200D02*
X189157316Y-74407057D01*
X189157316Y-74407057D02*
X189157316Y-74521342D01*
X189157316Y-73778485D02*
X189100173Y-73835628D01*
X189100173Y-73835628D02*
X189157316Y-73892771D01*
X189157316Y-73892771D02*
X189214459Y-73835628D01*
X189214459Y-73835628D02*
X189157316Y-73778485D01*
X189157316Y-73778485D02*
X189157316Y-73892771D01*
X187728744Y-73264200D02*
X188757316Y-74807057D01*
X186471601Y-73264200D02*
X187500173Y-74807057D01*
X185557316Y-73721342D02*
X185557316Y-74692771D01*
X185557316Y-74692771D02*
X185614458Y-74807057D01*
X185614458Y-74807057D02*
X185671601Y-74864200D01*
X185671601Y-74864200D02*
X185785887Y-74921342D01*
X185785887Y-74921342D02*
X185957316Y-74921342D01*
X185957316Y-74921342D02*
X186071601Y-74864200D01*
X185557316Y-74464200D02*
X185671601Y-74521342D01*
X185671601Y-74521342D02*
X185900173Y-74521342D01*
X185900173Y-74521342D02*
X186014458Y-74464200D01*
X186014458Y-74464200D02*
X186071601Y-74407057D01*
X186071601Y-74407057D02*
X186128744Y-74292771D01*
X186128744Y-74292771D02*
X186128744Y-73949914D01*
X186128744Y-73949914D02*
X186071601Y-73835628D01*
X186071601Y-73835628D02*
X186014458Y-73778485D01*
X186014458Y-73778485D02*
X185900173Y-73721342D01*
X185900173Y-73721342D02*
X185671601Y-73721342D01*
X185671601Y-73721342D02*
X185557316Y-73778485D01*
X184985887Y-74521342D02*
X184985887Y-73721342D01*
X184985887Y-73321342D02*
X185043030Y-73378485D01*
X185043030Y-73378485D02*
X184985887Y-73435628D01*
X184985887Y-73435628D02*
X184928744Y-73378485D01*
X184928744Y-73378485D02*
X184985887Y-73321342D01*
X184985887Y-73321342D02*
X184985887Y-73435628D01*
X184585887Y-73721342D02*
X184128744Y-73721342D01*
X184414458Y-73321342D02*
X184414458Y-74349914D01*
X184414458Y-74349914D02*
X184357315Y-74464200D01*
X184357315Y-74464200D02*
X184243030Y-74521342D01*
X184243030Y-74521342D02*
X184128744Y-74521342D01*
X183728744Y-74521342D02*
X183728744Y-73321342D01*
X183214459Y-74521342D02*
X183214459Y-73892771D01*
X183214459Y-73892771D02*
X183271601Y-73778485D01*
X183271601Y-73778485D02*
X183385887Y-73721342D01*
X183385887Y-73721342D02*
X183557316Y-73721342D01*
X183557316Y-73721342D02*
X183671601Y-73778485D01*
X183671601Y-73778485D02*
X183728744Y-73835628D01*
X182128745Y-73721342D02*
X182128745Y-74521342D01*
X182643030Y-73721342D02*
X182643030Y-74349914D01*
X182643030Y-74349914D02*
X182585887Y-74464200D01*
X182585887Y-74464200D02*
X182471602Y-74521342D01*
X182471602Y-74521342D02*
X182300173Y-74521342D01*
X182300173Y-74521342D02*
X182185887Y-74464200D01*
X182185887Y-74464200D02*
X182128745Y-74407057D01*
X181557316Y-74521342D02*
X181557316Y-73321342D01*
X181557316Y-73778485D02*
X181443031Y-73721342D01*
X181443031Y-73721342D02*
X181214459Y-73721342D01*
X181214459Y-73721342D02*
X181100173Y-73778485D01*
X181100173Y-73778485D02*
X181043031Y-73835628D01*
X181043031Y-73835628D02*
X180985888Y-73949914D01*
X180985888Y-73949914D02*
X180985888Y-74292771D01*
X180985888Y-74292771D02*
X181043031Y-74407057D01*
X181043031Y-74407057D02*
X181100173Y-74464200D01*
X181100173Y-74464200D02*
X181214459Y-74521342D01*
X181214459Y-74521342D02*
X181443031Y-74521342D01*
X181443031Y-74521342D02*
X181557316Y-74464200D01*
X180471602Y-74407057D02*
X180414459Y-74464200D01*
X180414459Y-74464200D02*
X180471602Y-74521342D01*
X180471602Y-74521342D02*
X180528745Y-74464200D01*
X180528745Y-74464200D02*
X180471602Y-74407057D01*
X180471602Y-74407057D02*
X180471602Y-74521342D01*
X179385888Y-74464200D02*
X179500173Y-74521342D01*
X179500173Y-74521342D02*
X179728745Y-74521342D01*
X179728745Y-74521342D02*
X179843030Y-74464200D01*
X179843030Y-74464200D02*
X179900173Y-74407057D01*
X179900173Y-74407057D02*
X179957316Y-74292771D01*
X179957316Y-74292771D02*
X179957316Y-73949914D01*
X179957316Y-73949914D02*
X179900173Y-73835628D01*
X179900173Y-73835628D02*
X179843030Y-73778485D01*
X179843030Y-73778485D02*
X179728745Y-73721342D01*
X179728745Y-73721342D02*
X179500173Y-73721342D01*
X179500173Y-73721342D02*
X179385888Y-73778485D01*
X178700174Y-74521342D02*
X178814459Y-74464200D01*
X178814459Y-74464200D02*
X178871602Y-74407057D01*
X178871602Y-74407057D02*
X178928745Y-74292771D01*
X178928745Y-74292771D02*
X178928745Y-73949914D01*
X178928745Y-73949914D02*
X178871602Y-73835628D01*
X178871602Y-73835628D02*
X178814459Y-73778485D01*
X178814459Y-73778485D02*
X178700174Y-73721342D01*
X178700174Y-73721342D02*
X178528745Y-73721342D01*
X178528745Y-73721342D02*
X178414459Y-73778485D01*
X178414459Y-73778485D02*
X178357317Y-73835628D01*
X178357317Y-73835628D02*
X178300174Y-73949914D01*
X178300174Y-73949914D02*
X178300174Y-74292771D01*
X178300174Y-74292771D02*
X178357317Y-74407057D01*
X178357317Y-74407057D02*
X178414459Y-74464200D01*
X178414459Y-74464200D02*
X178528745Y-74521342D01*
X178528745Y-74521342D02*
X178700174Y-74521342D01*
X177785888Y-74521342D02*
X177785888Y-73721342D01*
X177785888Y-73835628D02*
X177728745Y-73778485D01*
X177728745Y-73778485D02*
X177614460Y-73721342D01*
X177614460Y-73721342D02*
X177443031Y-73721342D01*
X177443031Y-73721342D02*
X177328745Y-73778485D01*
X177328745Y-73778485D02*
X177271603Y-73892771D01*
X177271603Y-73892771D02*
X177271603Y-74521342D01*
X177271603Y-73892771D02*
X177214460Y-73778485D01*
X177214460Y-73778485D02*
X177100174Y-73721342D01*
X177100174Y-73721342D02*
X176928745Y-73721342D01*
X176928745Y-73721342D02*
X176814460Y-73778485D01*
X176814460Y-73778485D02*
X176757317Y-73892771D01*
X176757317Y-73892771D02*
X176757317Y-74521342D01*
X175328745Y-73264200D02*
X176357317Y-74807057D01*
X174928745Y-74521342D02*
X174928745Y-73321342D01*
X174928745Y-73321342D02*
X174528745Y-74178485D01*
X174528745Y-74178485D02*
X174128745Y-73321342D01*
X174128745Y-73321342D02*
X174128745Y-74521342D01*
X173671602Y-73721342D02*
X173385888Y-74521342D01*
X173100173Y-73721342D02*
X173385888Y-74521342D01*
X173385888Y-74521342D02*
X173500173Y-74807057D01*
X173500173Y-74807057D02*
X173557316Y-74864200D01*
X173557316Y-74864200D02*
X173671602Y-74921342D01*
X171957316Y-74521342D02*
X172357316Y-73949914D01*
X172643030Y-74521342D02*
X172643030Y-73321342D01*
X172643030Y-73321342D02*
X172185887Y-73321342D01*
X172185887Y-73321342D02*
X172071602Y-73378485D01*
X172071602Y-73378485D02*
X172014459Y-73435628D01*
X172014459Y-73435628D02*
X171957316Y-73549914D01*
X171957316Y-73549914D02*
X171957316Y-73721342D01*
X171957316Y-73721342D02*
X172014459Y-73835628D01*
X172014459Y-73835628D02*
X172071602Y-73892771D01*
X172071602Y-73892771D02*
X172185887Y-73949914D01*
X172185887Y-73949914D02*
X172643030Y-73949914D01*
X170985887Y-74464200D02*
X171100173Y-74521342D01*
X171100173Y-74521342D02*
X171328745Y-74521342D01*
X171328745Y-74521342D02*
X171443030Y-74464200D01*
X171443030Y-74464200D02*
X171500173Y-74349914D01*
X171500173Y-74349914D02*
X171500173Y-73892771D01*
X171500173Y-73892771D02*
X171443030Y-73778485D01*
X171443030Y-73778485D02*
X171328745Y-73721342D01*
X171328745Y-73721342D02*
X171100173Y-73721342D01*
X171100173Y-73721342D02*
X170985887Y-73778485D01*
X170985887Y-73778485D02*
X170928745Y-73892771D01*
X170928745Y-73892771D02*
X170928745Y-74007057D01*
X170928745Y-74007057D02*
X171500173Y-74121342D01*
X170585888Y-73721342D02*
X170128745Y-73721342D01*
X170414459Y-73321342D02*
X170414459Y-74349914D01*
X170414459Y-74349914D02*
X170357316Y-74464200D01*
X170357316Y-74464200D02*
X170243031Y-74521342D01*
X170243031Y-74521342D02*
X170128745Y-74521342D01*
X169728745Y-74521342D02*
X169728745Y-73721342D01*
X169728745Y-73949914D02*
X169671602Y-73835628D01*
X169671602Y-73835628D02*
X169614460Y-73778485D01*
X169614460Y-73778485D02*
X169500174Y-73721342D01*
X169500174Y-73721342D02*
X169385888Y-73721342D01*
X168814460Y-74521342D02*
X168928745Y-74464200D01*
X168928745Y-74464200D02*
X168985888Y-74407057D01*
X168985888Y-74407057D02*
X169043031Y-74292771D01*
X169043031Y-74292771D02*
X169043031Y-73949914D01*
X169043031Y-73949914D02*
X168985888Y-73835628D01*
X168985888Y-73835628D02*
X168928745Y-73778485D01*
X168928745Y-73778485D02*
X168814460Y-73721342D01*
X168814460Y-73721342D02*
X168643031Y-73721342D01*
X168643031Y-73721342D02*
X168528745Y-73778485D01*
X168528745Y-73778485D02*
X168471603Y-73835628D01*
X168471603Y-73835628D02*
X168414460Y-73949914D01*
X168414460Y-73949914D02*
X168414460Y-74292771D01*
X168414460Y-74292771D02*
X168471603Y-74407057D01*
X168471603Y-74407057D02*
X168528745Y-74464200D01*
X168528745Y-74464200D02*
X168643031Y-74521342D01*
X168643031Y-74521342D02*
X168814460Y-74521342D01*
X167957317Y-74464200D02*
X167785889Y-74521342D01*
X167785889Y-74521342D02*
X167500174Y-74521342D01*
X167500174Y-74521342D02*
X167385889Y-74464200D01*
X167385889Y-74464200D02*
X167328746Y-74407057D01*
X167328746Y-74407057D02*
X167271603Y-74292771D01*
X167271603Y-74292771D02*
X167271603Y-74178485D01*
X167271603Y-74178485D02*
X167328746Y-74064200D01*
X167328746Y-74064200D02*
X167385889Y-74007057D01*
X167385889Y-74007057D02*
X167500174Y-73949914D01*
X167500174Y-73949914D02*
X167728746Y-73892771D01*
X167728746Y-73892771D02*
X167843031Y-73835628D01*
X167843031Y-73835628D02*
X167900174Y-73778485D01*
X167900174Y-73778485D02*
X167957317Y-73664200D01*
X167957317Y-73664200D02*
X167957317Y-73549914D01*
X167957317Y-73549914D02*
X167900174Y-73435628D01*
X167900174Y-73435628D02*
X167843031Y-73378485D01*
X167843031Y-73378485D02*
X167728746Y-73321342D01*
X167728746Y-73321342D02*
X167443031Y-73321342D01*
X167443031Y-73321342D02*
X167271603Y-73378485D01*
X166928746Y-73721342D02*
X166471603Y-73721342D01*
X166757317Y-73321342D02*
X166757317Y-74349914D01*
X166757317Y-74349914D02*
X166700174Y-74464200D01*
X166700174Y-74464200D02*
X166585889Y-74521342D01*
X166585889Y-74521342D02*
X166471603Y-74521342D01*
X165900175Y-74521342D02*
X166014460Y-74464200D01*
X166014460Y-74464200D02*
X166071603Y-74407057D01*
X166071603Y-74407057D02*
X166128746Y-74292771D01*
X166128746Y-74292771D02*
X166128746Y-73949914D01*
X166128746Y-73949914D02*
X166071603Y-73835628D01*
X166071603Y-73835628D02*
X166014460Y-73778485D01*
X166014460Y-73778485D02*
X165900175Y-73721342D01*
X165900175Y-73721342D02*
X165728746Y-73721342D01*
X165728746Y-73721342D02*
X165614460Y-73778485D01*
X165614460Y-73778485D02*
X165557318Y-73835628D01*
X165557318Y-73835628D02*
X165500175Y-73949914D01*
X165500175Y-73949914D02*
X165500175Y-74292771D01*
X165500175Y-74292771D02*
X165557318Y-74407057D01*
X165557318Y-74407057D02*
X165614460Y-74464200D01*
X165614460Y-74464200D02*
X165728746Y-74521342D01*
X165728746Y-74521342D02*
X165900175Y-74521342D01*
X164985889Y-74521342D02*
X164985889Y-73721342D01*
X164985889Y-73949914D02*
X164928746Y-73835628D01*
X164928746Y-73835628D02*
X164871604Y-73778485D01*
X164871604Y-73778485D02*
X164757318Y-73721342D01*
X164757318Y-73721342D02*
X164643032Y-73721342D01*
X163785889Y-74464200D02*
X163900175Y-74521342D01*
X163900175Y-74521342D02*
X164128747Y-74521342D01*
X164128747Y-74521342D02*
X164243032Y-74464200D01*
X164243032Y-74464200D02*
X164300175Y-74349914D01*
X164300175Y-74349914D02*
X164300175Y-73892771D01*
X164300175Y-73892771D02*
X164243032Y-73778485D01*
X164243032Y-73778485D02*
X164128747Y-73721342D01*
X164128747Y-73721342D02*
X163900175Y-73721342D01*
X163900175Y-73721342D02*
X163785889Y-73778485D01*
X163785889Y-73778485D02*
X163728747Y-73892771D01*
X163728747Y-73892771D02*
X163728747Y-74007057D01*
X163728747Y-74007057D02*
X164300175Y-74121342D01*
X162357318Y-73264200D02*
X163385890Y-74807057D01*
X161557318Y-73892771D02*
X161385890Y-73949914D01*
X161385890Y-73949914D02*
X161328747Y-74007057D01*
X161328747Y-74007057D02*
X161271604Y-74121342D01*
X161271604Y-74121342D02*
X161271604Y-74292771D01*
X161271604Y-74292771D02*
X161328747Y-74407057D01*
X161328747Y-74407057D02*
X161385890Y-74464200D01*
X161385890Y-74464200D02*
X161500175Y-74521342D01*
X161500175Y-74521342D02*
X161957318Y-74521342D01*
X161957318Y-74521342D02*
X161957318Y-73321342D01*
X161957318Y-73321342D02*
X161557318Y-73321342D01*
X161557318Y-73321342D02*
X161443033Y-73378485D01*
X161443033Y-73378485D02*
X161385890Y-73435628D01*
X161385890Y-73435628D02*
X161328747Y-73549914D01*
X161328747Y-73549914D02*
X161328747Y-73664200D01*
X161328747Y-73664200D02*
X161385890Y-73778485D01*
X161385890Y-73778485D02*
X161443033Y-73835628D01*
X161443033Y-73835628D02*
X161557318Y-73892771D01*
X161557318Y-73892771D02*
X161957318Y-73892771D01*
X160357318Y-73892771D02*
X160185890Y-73949914D01*
X160185890Y-73949914D02*
X160128747Y-74007057D01*
X160128747Y-74007057D02*
X160071604Y-74121342D01*
X160071604Y-74121342D02*
X160071604Y-74292771D01*
X160071604Y-74292771D02*
X160128747Y-74407057D01*
X160128747Y-74407057D02*
X160185890Y-74464200D01*
X160185890Y-74464200D02*
X160300175Y-74521342D01*
X160300175Y-74521342D02*
X160757318Y-74521342D01*
X160757318Y-74521342D02*
X160757318Y-73321342D01*
X160757318Y-73321342D02*
X160357318Y-73321342D01*
X160357318Y-73321342D02*
X160243033Y-73378485D01*
X160243033Y-73378485D02*
X160185890Y-73435628D01*
X160185890Y-73435628D02*
X160128747Y-73549914D01*
X160128747Y-73549914D02*
X160128747Y-73664200D01*
X160128747Y-73664200D02*
X160185890Y-73778485D01*
X160185890Y-73778485D02*
X160243033Y-73835628D01*
X160243033Y-73835628D02*
X160357318Y-73892771D01*
X160357318Y-73892771D02*
X160757318Y-73892771D01*
X158871604Y-74407057D02*
X158928747Y-74464200D01*
X158928747Y-74464200D02*
X159100175Y-74521342D01*
X159100175Y-74521342D02*
X159214461Y-74521342D01*
X159214461Y-74521342D02*
X159385890Y-74464200D01*
X159385890Y-74464200D02*
X159500175Y-74349914D01*
X159500175Y-74349914D02*
X159557318Y-74235628D01*
X159557318Y-74235628D02*
X159614461Y-74007057D01*
X159614461Y-74007057D02*
X159614461Y-73835628D01*
X159614461Y-73835628D02*
X159557318Y-73607057D01*
X159557318Y-73607057D02*
X159500175Y-73492771D01*
X159500175Y-73492771D02*
X159385890Y-73378485D01*
X159385890Y-73378485D02*
X159214461Y-73321342D01*
X159214461Y-73321342D02*
X159100175Y-73321342D01*
X159100175Y-73321342D02*
X158928747Y-73378485D01*
X158928747Y-73378485D02*
X158871604Y-73435628D01*
X158357318Y-74064200D02*
X157443033Y-74064200D01*
X156871604Y-74521342D02*
X156871604Y-73321342D01*
X156871604Y-73321342D02*
X156471604Y-74178485D01*
X156471604Y-74178485D02*
X156071604Y-73321342D01*
X156071604Y-73321342D02*
X156071604Y-74521342D01*
X154985890Y-74521342D02*
X154985890Y-73892771D01*
X154985890Y-73892771D02*
X155043032Y-73778485D01*
X155043032Y-73778485D02*
X155157318Y-73721342D01*
X155157318Y-73721342D02*
X155385890Y-73721342D01*
X155385890Y-73721342D02*
X155500175Y-73778485D01*
X154985890Y-74464200D02*
X155100175Y-74521342D01*
X155100175Y-74521342D02*
X155385890Y-74521342D01*
X155385890Y-74521342D02*
X155500175Y-74464200D01*
X155500175Y-74464200D02*
X155557318Y-74349914D01*
X155557318Y-74349914D02*
X155557318Y-74235628D01*
X155557318Y-74235628D02*
X155500175Y-74121342D01*
X155500175Y-74121342D02*
X155385890Y-74064200D01*
X155385890Y-74064200D02*
X155100175Y-74064200D01*
X155100175Y-74064200D02*
X154985890Y-74007057D01*
X154471604Y-74464200D02*
X154357318Y-74521342D01*
X154357318Y-74521342D02*
X154128747Y-74521342D01*
X154128747Y-74521342D02*
X154014461Y-74464200D01*
X154014461Y-74464200D02*
X153957318Y-74349914D01*
X153957318Y-74349914D02*
X153957318Y-74292771D01*
X153957318Y-74292771D02*
X154014461Y-74178485D01*
X154014461Y-74178485D02*
X154128747Y-74121342D01*
X154128747Y-74121342D02*
X154300176Y-74121342D01*
X154300176Y-74121342D02*
X154414461Y-74064200D01*
X154414461Y-74064200D02*
X154471604Y-73949914D01*
X154471604Y-73949914D02*
X154471604Y-73892771D01*
X154471604Y-73892771D02*
X154414461Y-73778485D01*
X154414461Y-73778485D02*
X154300176Y-73721342D01*
X154300176Y-73721342D02*
X154128747Y-73721342D01*
X154128747Y-73721342D02*
X154014461Y-73778485D01*
X153614461Y-73721342D02*
X153157318Y-73721342D01*
X153443032Y-73321342D02*
X153443032Y-74349914D01*
X153443032Y-74349914D02*
X153385889Y-74464200D01*
X153385889Y-74464200D02*
X153271604Y-74521342D01*
X153271604Y-74521342D02*
X153157318Y-74521342D01*
X152300175Y-74464200D02*
X152414461Y-74521342D01*
X152414461Y-74521342D02*
X152643033Y-74521342D01*
X152643033Y-74521342D02*
X152757318Y-74464200D01*
X152757318Y-74464200D02*
X152814461Y-74349914D01*
X152814461Y-74349914D02*
X152814461Y-73892771D01*
X152814461Y-73892771D02*
X152757318Y-73778485D01*
X152757318Y-73778485D02*
X152643033Y-73721342D01*
X152643033Y-73721342D02*
X152414461Y-73721342D01*
X152414461Y-73721342D02*
X152300175Y-73778485D01*
X152300175Y-73778485D02*
X152243033Y-73892771D01*
X152243033Y-73892771D02*
X152243033Y-74007057D01*
X152243033Y-74007057D02*
X152814461Y-74121342D01*
X151728747Y-74521342D02*
X151728747Y-73721342D01*
X151728747Y-73949914D02*
X151671604Y-73835628D01*
X151671604Y-73835628D02*
X151614462Y-73778485D01*
X151614462Y-73778485D02*
X151500176Y-73721342D01*
X151500176Y-73721342D02*
X151385890Y-73721342D01*
X150985890Y-74064200D02*
X150071605Y-74064200D01*
X148814462Y-74521342D02*
X149214462Y-73949914D01*
X149500176Y-74521342D02*
X149500176Y-73321342D01*
X149500176Y-73321342D02*
X149043033Y-73321342D01*
X149043033Y-73321342D02*
X148928748Y-73378485D01*
X148928748Y-73378485D02*
X148871605Y-73435628D01*
X148871605Y-73435628D02*
X148814462Y-73549914D01*
X148814462Y-73549914D02*
X148814462Y-73721342D01*
X148814462Y-73721342D02*
X148871605Y-73835628D01*
X148871605Y-73835628D02*
X148928748Y-73892771D01*
X148928748Y-73892771D02*
X149043033Y-73949914D01*
X149043033Y-73949914D02*
X149500176Y-73949914D01*
X148071605Y-73321342D02*
X147843033Y-73321342D01*
X147843033Y-73321342D02*
X147728748Y-73378485D01*
X147728748Y-73378485D02*
X147614462Y-73492771D01*
X147614462Y-73492771D02*
X147557319Y-73721342D01*
X147557319Y-73721342D02*
X147557319Y-74121342D01*
X147557319Y-74121342D02*
X147614462Y-74349914D01*
X147614462Y-74349914D02*
X147728748Y-74464200D01*
X147728748Y-74464200D02*
X147843033Y-74521342D01*
X147843033Y-74521342D02*
X148071605Y-74521342D01*
X148071605Y-74521342D02*
X148185891Y-74464200D01*
X148185891Y-74464200D02*
X148300176Y-74349914D01*
X148300176Y-74349914D02*
X148357319Y-74121342D01*
X148357319Y-74121342D02*
X148357319Y-73721342D01*
X148357319Y-73721342D02*
X148300176Y-73492771D01*
X148300176Y-73492771D02*
X148185891Y-73378485D01*
X148185891Y-73378485D02*
X148071605Y-73321342D01*
X147043033Y-74521342D02*
X147043033Y-73321342D01*
X147043033Y-73321342D02*
X146643033Y-74178485D01*
X146643033Y-74178485D02*
X146243033Y-73321342D01*
X146243033Y-73321342D02*
X146243033Y-74521342D01*
X145671604Y-74064200D02*
X144757319Y-74064200D01*
X144357319Y-73321342D02*
X143671605Y-73321342D01*
X144014462Y-74521342D02*
X144014462Y-73321342D01*
X142814461Y-74464200D02*
X142928747Y-74521342D01*
X142928747Y-74521342D02*
X143157319Y-74521342D01*
X143157319Y-74521342D02*
X143271604Y-74464200D01*
X143271604Y-74464200D02*
X143328747Y-74349914D01*
X143328747Y-74349914D02*
X143328747Y-73892771D01*
X143328747Y-73892771D02*
X143271604Y-73778485D01*
X143271604Y-73778485D02*
X143157319Y-73721342D01*
X143157319Y-73721342D02*
X142928747Y-73721342D01*
X142928747Y-73721342D02*
X142814461Y-73778485D01*
X142814461Y-73778485D02*
X142757319Y-73892771D01*
X142757319Y-73892771D02*
X142757319Y-74007057D01*
X142757319Y-74007057D02*
X143328747Y-74121342D01*
X142300176Y-74464200D02*
X142185890Y-74521342D01*
X142185890Y-74521342D02*
X141957319Y-74521342D01*
X141957319Y-74521342D02*
X141843033Y-74464200D01*
X141843033Y-74464200D02*
X141785890Y-74349914D01*
X141785890Y-74349914D02*
X141785890Y-74292771D01*
X141785890Y-74292771D02*
X141843033Y-74178485D01*
X141843033Y-74178485D02*
X141957319Y-74121342D01*
X141957319Y-74121342D02*
X142128748Y-74121342D01*
X142128748Y-74121342D02*
X142243033Y-74064200D01*
X142243033Y-74064200D02*
X142300176Y-73949914D01*
X142300176Y-73949914D02*
X142300176Y-73892771D01*
X142300176Y-73892771D02*
X142243033Y-73778485D01*
X142243033Y-73778485D02*
X142128748Y-73721342D01*
X142128748Y-73721342D02*
X141957319Y-73721342D01*
X141957319Y-73721342D02*
X141843033Y-73778485D01*
X141443033Y-73721342D02*
X140985890Y-73721342D01*
X141271604Y-73321342D02*
X141271604Y-74349914D01*
X141271604Y-74349914D02*
X141214461Y-74464200D01*
X141214461Y-74464200D02*
X141100176Y-74521342D01*
X141100176Y-74521342D02*
X140985890Y-74521342D01*
X140128747Y-74464200D02*
X140243033Y-74521342D01*
X140243033Y-74521342D02*
X140471605Y-74521342D01*
X140471605Y-74521342D02*
X140585890Y-74464200D01*
X140585890Y-74464200D02*
X140643033Y-74349914D01*
X140643033Y-74349914D02*
X140643033Y-73892771D01*
X140643033Y-73892771D02*
X140585890Y-73778485D01*
X140585890Y-73778485D02*
X140471605Y-73721342D01*
X140471605Y-73721342D02*
X140243033Y-73721342D01*
X140243033Y-73721342D02*
X140128747Y-73778485D01*
X140128747Y-73778485D02*
X140071605Y-73892771D01*
X140071605Y-73892771D02*
X140071605Y-74007057D01*
X140071605Y-74007057D02*
X140643033Y-74121342D01*
X139557319Y-74521342D02*
X139557319Y-73721342D01*
X139557319Y-73949914D02*
X139500176Y-73835628D01*
X139500176Y-73835628D02*
X139443034Y-73778485D01*
X139443034Y-73778485D02*
X139328748Y-73721342D01*
X139328748Y-73721342D02*
X139214462Y-73721342D01*
M02*
