G04 #@! TF.GenerationSoftware,KiCad,Pcbnew,8.0.4-unknown-202407162209~ee573a1480~ubuntu24.04.1*
G04 #@! TF.CreationDate,2024-07-25T22:24:25+01:00*
G04 #@! TF.ProjectId,BBC Master ROM Tester,42424320-4d61-4737-9465-7220524f4d20,1.0*
G04 #@! TF.SameCoordinates,Original*
G04 #@! TF.FileFunction,Copper,L1,Top*
G04 #@! TF.FilePolarity,Positive*
%FSLAX46Y46*%
G04 Gerber Fmt 4.6, Leading zero omitted, Abs format (unit mm)*
G04 Created by KiCad (PCBNEW 8.0.4-unknown-202407162209~ee573a1480~ubuntu24.04.1) date 2024-07-25 22:24:25*
%MOMM*%
%LPD*%
G01*
G04 APERTURE LIST*
G04 Aperture macros list*
%AMRoundRect*
0 Rectangle with rounded corners*
0 $1 Rounding radius*
0 $2 $3 $4 $5 $6 $7 $8 $9 X,Y pos of 4 corners*
0 Add a 4 corners polygon primitive as box body*
4,1,4,$2,$3,$4,$5,$6,$7,$8,$9,$2,$3,0*
0 Add four circle primitives for the rounded corners*
1,1,$1+$1,$2,$3*
1,1,$1+$1,$4,$5*
1,1,$1+$1,$6,$7*
1,1,$1+$1,$8,$9*
0 Add four rect primitives between the rounded corners*
20,1,$1+$1,$2,$3,$4,$5,0*
20,1,$1+$1,$4,$5,$6,$7,0*
20,1,$1+$1,$6,$7,$8,$9,0*
20,1,$1+$1,$8,$9,$2,$3,0*%
G04 Aperture macros list end*
G04 #@! TA.AperFunction,ComponentPad*
%ADD10C,2.000000*%
G04 #@! TD*
G04 #@! TA.AperFunction,SMDPad,CuDef*
%ADD11RoundRect,0.243750X-0.243750X-0.456250X0.243750X-0.456250X0.243750X0.456250X-0.243750X0.456250X0*%
G04 #@! TD*
G04 #@! TA.AperFunction,SMDPad,CuDef*
%ADD12RoundRect,0.250000X0.350000X0.450000X-0.350000X0.450000X-0.350000X-0.450000X0.350000X-0.450000X0*%
G04 #@! TD*
G04 #@! TA.AperFunction,ComponentPad*
%ADD13O,1.727200X1.727200*%
G04 #@! TD*
G04 #@! TA.AperFunction,ComponentPad*
%ADD14R,1.727200X1.727200*%
G04 #@! TD*
G04 #@! TA.AperFunction,ComponentPad*
%ADD15R,1.508000X1.508000*%
G04 #@! TD*
G04 #@! TA.AperFunction,ComponentPad*
%ADD16C,1.508000*%
G04 #@! TD*
G04 #@! TA.AperFunction,Conductor*
%ADD17C,0.400000*%
G04 #@! TD*
G04 #@! TA.AperFunction,Conductor*
%ADD18C,0.550000*%
G04 #@! TD*
G04 APERTURE END LIST*
D10*
G04 #@! TO.P,SW1,1,A*
G04 #@! TO.N,GND*
X144324000Y-93319600D03*
X150824000Y-93319600D03*
G04 #@! TO.P,SW1,2,B*
G04 #@! TO.N,Net-(SW1-B)*
X144324000Y-97819600D03*
X150824000Y-97819600D03*
G04 #@! TD*
D11*
G04 #@! TO.P,D2,1,K*
G04 #@! TO.N,GND*
X169480000Y-97282000D03*
G04 #@! TO.P,D2,2,A*
G04 #@! TO.N,Net-(D2-A)*
X171355000Y-97282000D03*
G04 #@! TD*
D12*
G04 #@! TO.P,R1,1*
G04 #@! TO.N,Net-(R1-Pad1)*
X177800000Y-93472000D03*
G04 #@! TO.P,R1,2*
G04 #@! TO.N,Net-(D1-A)*
X175800000Y-93472000D03*
G04 #@! TD*
G04 #@! TO.P,R2,1*
G04 #@! TO.N,Net-(R2-Pad1)*
X177800000Y-97282000D03*
G04 #@! TO.P,R2,2*
G04 #@! TO.N,Net-(D2-A)*
X175800000Y-97282000D03*
G04 #@! TD*
D11*
G04 #@! TO.P,D1,1,K*
G04 #@! TO.N,GND*
X169480000Y-93472000D03*
G04 #@! TO.P,D1,2,A*
G04 #@! TO.N,Net-(D1-A)*
X171355000Y-93472000D03*
G04 #@! TD*
D13*
G04 #@! TO.P,XA1,*
G04 #@! TO.N,*
X140208000Y-105156000D03*
G04 #@! TO.P,XA1,3V3,3.3V*
G04 #@! TO.N,unconnected-(XA1-3.3V-Pad3V3)*
X147828000Y-105156000D03*
G04 #@! TO.P,XA1,5V1,5V*
G04 #@! TO.N,+5V*
X150368000Y-105156000D03*
G04 #@! TO.P,XA1,5V3,5V*
G04 #@! TO.N,unconnected-(XA1-5V-Pad5V3)*
X206248000Y-56896000D03*
G04 #@! TO.P,XA1,5V4,5V*
G04 #@! TO.N,unconnected-(XA1-5V-Pad5V4)*
X208788000Y-56896000D03*
G04 #@! TO.P,XA1,A0,A0*
G04 #@! TO.N,/A15*
X163068000Y-105156000D03*
G04 #@! TO.P,XA1,A1,A1*
G04 #@! TO.N,/A12*
X165608000Y-105156000D03*
G04 #@! TO.P,XA1,A2,A2*
G04 #@! TO.N,/A7*
X168148000Y-105156000D03*
G04 #@! TO.P,XA1,A3,A3*
G04 #@! TO.N,unconnected-(XA1-PadA3)*
X170688000Y-105156000D03*
G04 #@! TO.P,XA1,A4,A4*
G04 #@! TO.N,unconnected-(XA1-PadA4)*
X173228000Y-105156000D03*
G04 #@! TO.P,XA1,A5,A5*
G04 #@! TO.N,unconnected-(XA1-PadA5)*
X175768000Y-105156000D03*
G04 #@! TO.P,XA1,A6,A6*
G04 #@! TO.N,Net-(R2-Pad1)*
X178308000Y-105156000D03*
G04 #@! TO.P,XA1,A7,A7*
G04 #@! TO.N,Net-(R1-Pad1)*
X180848000Y-105156000D03*
G04 #@! TO.P,XA1,AREF,AREF*
G04 #@! TO.N,unconnected-(XA1-PadAREF)*
X136144000Y-56896000D03*
G04 #@! TO.P,XA1,D0,D0_RX0*
G04 #@! TO.N,unconnected-(XA1-D0_RX0-PadD0)*
X175768000Y-56896000D03*
G04 #@! TO.P,XA1,D1,D1_TX0*
G04 #@! TO.N,unconnected-(XA1-D1_TX0-PadD1)*
X173228000Y-56896000D03*
G04 #@! TO.P,XA1,D2,D2_INT0*
G04 #@! TO.N,unconnected-(XA1-D2_INT0-PadD2)*
X170688000Y-56896000D03*
G04 #@! TO.P,XA1,D3,D3_INT1*
G04 #@! TO.N,unconnected-(XA1-D3_INT1-PadD3)*
X168148000Y-56896000D03*
G04 #@! TO.P,XA1,D4,D4*
G04 #@! TO.N,/D6*
X165608000Y-56896000D03*
G04 #@! TO.P,XA1,D5,D5*
G04 #@! TO.N,/D7*
X163068000Y-56896000D03*
G04 #@! TO.P,XA1,D6,D6*
G04 #@! TO.N,/~{CS}*
X160528000Y-56896000D03*
G04 #@! TO.P,XA1,D7,D7*
G04 #@! TO.N,/A10*
X157988000Y-56896000D03*
G04 #@! TO.P,XA1,D8,D8*
G04 #@! TO.N,/A16*
X153924000Y-56896000D03*
G04 #@! TO.P,XA1,D9,D9*
G04 #@! TO.N,/A11*
X151384000Y-56896000D03*
G04 #@! TO.P,XA1,D10,D10*
G04 #@! TO.N,/A9*
X148844000Y-56896000D03*
G04 #@! TO.P,XA1,D11,D11*
G04 #@! TO.N,/A8*
X146304000Y-56896000D03*
G04 #@! TO.P,XA1,D12,D12*
G04 #@! TO.N,/A13*
X143764000Y-56896000D03*
G04 #@! TO.P,XA1,D13,D13*
G04 #@! TO.N,/A14*
X141224000Y-56896000D03*
G04 #@! TO.P,XA1,D22,D22*
G04 #@! TO.N,/D5*
X206248000Y-59436000D03*
G04 #@! TO.P,XA1,D23,D23*
G04 #@! TO.N,/D4*
X208788000Y-59436000D03*
G04 #@! TO.P,XA1,D24,D24*
G04 #@! TO.N,/D3*
X206248000Y-61976000D03*
G04 #@! TO.P,XA1,D25,D25*
G04 #@! TO.N,unconnected-(XA1-PadD25)*
X208788000Y-61976000D03*
G04 #@! TO.P,XA1,D26,D26*
G04 #@! TO.N,/A6*
X206248000Y-64516000D03*
G04 #@! TO.P,XA1,D27,D27*
G04 #@! TO.N,/A5*
X208788000Y-64516000D03*
G04 #@! TO.P,XA1,D28,D28*
G04 #@! TO.N,/A4*
X206248000Y-67056000D03*
G04 #@! TO.P,XA1,D29,D29*
G04 #@! TO.N,/A3*
X208788000Y-67056000D03*
G04 #@! TO.P,XA1,D30,D30*
G04 #@! TO.N,unconnected-(XA1-PadD30)*
X206248000Y-69596000D03*
G04 #@! TO.P,XA1,D31,D31*
G04 #@! TO.N,unconnected-(XA1-PadD31)*
X208788000Y-69596000D03*
G04 #@! TO.P,XA1,D32,D32*
G04 #@! TO.N,/A2*
X206248000Y-72136000D03*
G04 #@! TO.P,XA1,D33,D33*
G04 #@! TO.N,/A1*
X208788000Y-72136000D03*
G04 #@! TO.P,XA1,D34,D34*
G04 #@! TO.N,unconnected-(XA1-PadD34)*
X206248000Y-74676000D03*
G04 #@! TO.P,XA1,D35,D35*
G04 #@! TO.N,unconnected-(XA1-PadD35)*
X208788000Y-74676000D03*
G04 #@! TO.P,XA1,D36,D36*
G04 #@! TO.N,/A0*
X206248000Y-77216000D03*
G04 #@! TO.P,XA1,D37,D37*
G04 #@! TO.N,/D0*
X208788000Y-77216000D03*
G04 #@! TO.P,XA1,D38,D38*
G04 #@! TO.N,/D1*
X206248000Y-79756000D03*
G04 #@! TO.P,XA1,D39,D39*
G04 #@! TO.N,/D2*
X208788000Y-79756000D03*
G04 #@! TO.P,XA1,D40,D40*
G04 #@! TO.N,unconnected-(XA1-PadD40)*
X206248000Y-82296000D03*
G04 #@! TO.P,XA1,D41,D41*
G04 #@! TO.N,unconnected-(XA1-PadD41)*
X208788000Y-82296000D03*
G04 #@! TO.P,XA1,D42,D42*
G04 #@! TO.N,unconnected-(XA1-PadD42)*
X206248000Y-84836000D03*
G04 #@! TO.P,XA1,D43,D43*
G04 #@! TO.N,unconnected-(XA1-PadD43)*
X208788000Y-84836000D03*
G04 #@! TO.P,XA1,D44,D44*
G04 #@! TO.N,unconnected-(XA1-PadD44)*
X206248000Y-87376000D03*
G04 #@! TO.P,XA1,D45,D45*
G04 #@! TO.N,unconnected-(XA1-PadD45)*
X208788000Y-87376000D03*
G04 #@! TO.P,XA1,D46,D46*
G04 #@! TO.N,unconnected-(XA1-PadD46)*
X206248000Y-89916000D03*
G04 #@! TO.P,XA1,D47,D47*
G04 #@! TO.N,unconnected-(XA1-PadD47)*
X208788000Y-89916000D03*
G04 #@! TO.P,XA1,D48,D48*
G04 #@! TO.N,unconnected-(XA1-PadD48)*
X206248000Y-92456000D03*
G04 #@! TO.P,XA1,D49,D49*
G04 #@! TO.N,unconnected-(XA1-PadD49)*
X208788000Y-92456000D03*
G04 #@! TO.P,XA1,D50,D50*
G04 #@! TO.N,unconnected-(XA1-PadD50)*
X206248000Y-94996000D03*
G04 #@! TO.P,XA1,D51,D51*
G04 #@! TO.N,unconnected-(XA1-PadD51)*
X208788000Y-94996000D03*
G04 #@! TO.P,XA1,D52,D52*
G04 #@! TO.N,unconnected-(XA1-PadD52)*
X206248000Y-97536000D03*
G04 #@! TO.P,XA1,D53,D53_SS*
G04 #@! TO.N,unconnected-(XA1-D53_SS-PadD53)*
X208788000Y-97536000D03*
D14*
G04 #@! TO.P,XA1,GND1,GND*
G04 #@! TO.N,GND*
X138684000Y-56896000D03*
G04 #@! TO.P,XA1,GND2,GND*
X152908000Y-105156000D03*
G04 #@! TO.P,XA1,GND3,GND*
X155448000Y-105156000D03*
G04 #@! TO.P,XA1,GND5,GND*
X206248000Y-100076000D03*
G04 #@! TO.P,XA1,GND6,GND*
X208788000Y-100076000D03*
D13*
G04 #@! TO.P,XA1,IORF,IOREF*
G04 #@! TO.N,unconnected-(XA1-IOREF-PadIORF)*
X142748000Y-105156000D03*
G04 #@! TO.P,XA1,RST1,RESET*
G04 #@! TO.N,Net-(SW1-B)*
X145288000Y-105156000D03*
G04 #@! TO.P,XA1,SCL,SCL*
G04 #@! TO.N,unconnected-(XA1-PadSCL)*
X131064000Y-56896000D03*
G04 #@! TO.P,XA1,SDA,SDA*
G04 #@! TO.N,unconnected-(XA1-PadSDA)*
X133604000Y-56896000D03*
G04 #@! TO.P,XA1,VIN,VIN*
G04 #@! TO.N,unconnected-(XA1-PadVIN)*
X157988000Y-105156000D03*
G04 #@! TD*
D15*
G04 #@! TO.P,U2,1,A15*
G04 #@! TO.N,/A15*
X145288000Y-82042000D03*
D16*
G04 #@! TO.P,U2,2,A12*
G04 #@! TO.N,/A12*
X147828000Y-82042000D03*
G04 #@! TO.P,U2,3,A7*
G04 #@! TO.N,/A7*
X150368000Y-82042000D03*
G04 #@! TO.P,U2,4,A6*
G04 #@! TO.N,/A6*
X152908000Y-82042000D03*
G04 #@! TO.P,U2,5,A5*
G04 #@! TO.N,/A5*
X155448000Y-82042000D03*
G04 #@! TO.P,U2,6,A4*
G04 #@! TO.N,/A4*
X157988000Y-82042000D03*
G04 #@! TO.P,U2,7,A3*
G04 #@! TO.N,/A3*
X160528000Y-82042000D03*
G04 #@! TO.P,U2,8,A2*
G04 #@! TO.N,/A2*
X163068000Y-82042000D03*
G04 #@! TO.P,U2,9,A1*
G04 #@! TO.N,/A1*
X165608000Y-82042000D03*
G04 #@! TO.P,U2,10,A0*
G04 #@! TO.N,/A0*
X168148000Y-82042000D03*
G04 #@! TO.P,U2,11,D0*
G04 #@! TO.N,/D0*
X170688000Y-82042000D03*
G04 #@! TO.P,U2,12,D1*
G04 #@! TO.N,/D1*
X173228000Y-82042000D03*
G04 #@! TO.P,U2,13,D2*
G04 #@! TO.N,/D2*
X175768000Y-82042000D03*
G04 #@! TO.P,U2,14,VSS*
G04 #@! TO.N,GND*
X178308000Y-82042000D03*
G04 #@! TO.P,U2,15*
G04 #@! TO.N,unconnected-(U2-Pad15)*
X180848000Y-82042000D03*
G04 #@! TO.P,U2,16*
G04 #@! TO.N,unconnected-(U2-Pad16)*
X183388000Y-82042000D03*
G04 #@! TO.P,U2,17*
G04 #@! TO.N,unconnected-(U2-Pad17)*
X185928000Y-82042000D03*
G04 #@! TO.P,U2,18*
G04 #@! TO.N,unconnected-(U2-Pad18)*
X188468000Y-82042000D03*
G04 #@! TO.P,U2,19*
G04 #@! TO.N,unconnected-(U2-Pad19)*
X191008000Y-82042000D03*
G04 #@! TO.P,U2,20*
G04 #@! TO.N,unconnected-(U2-Pad20)*
X193548000Y-82042000D03*
G04 #@! TO.P,U2,21*
G04 #@! TO.N,unconnected-(U2-Pad21)*
X193548000Y-66802000D03*
G04 #@! TO.P,U2,22*
G04 #@! TO.N,unconnected-(U2-Pad22)*
X191008000Y-66802000D03*
G04 #@! TO.P,U2,23*
G04 #@! TO.N,unconnected-(U2-Pad23)*
X188468000Y-66802000D03*
G04 #@! TO.P,U2,24*
G04 #@! TO.N,unconnected-(U2-Pad24)*
X185928000Y-66802000D03*
G04 #@! TO.P,U2,25*
G04 #@! TO.N,unconnected-(U2-Pad25)*
X183388000Y-66802000D03*
G04 #@! TO.P,U2,26*
G04 #@! TO.N,unconnected-(U2-Pad26)*
X180848000Y-66802000D03*
G04 #@! TO.P,U2,27,D3*
G04 #@! TO.N,/D3*
X178308000Y-66802000D03*
G04 #@! TO.P,U2,28,D4*
G04 #@! TO.N,/D4*
X175768000Y-66802000D03*
G04 #@! TO.P,U2,29,D5*
G04 #@! TO.N,/D5*
X173228000Y-66802000D03*
G04 #@! TO.P,U2,30,D6*
G04 #@! TO.N,/D6*
X170688000Y-66802000D03*
G04 #@! TO.P,U2,31,D7*
G04 #@! TO.N,/D7*
X168148000Y-66802000D03*
G04 #@! TO.P,U2,32,~{CS}*
G04 #@! TO.N,/~{CS}*
X165608000Y-66802000D03*
G04 #@! TO.P,U2,33,A10*
G04 #@! TO.N,/A10*
X163068000Y-66802000D03*
G04 #@! TO.P,U2,34,A16*
G04 #@! TO.N,/A16*
X160528000Y-66802000D03*
G04 #@! TO.P,U2,35,A11*
G04 #@! TO.N,/A11*
X157988000Y-66802000D03*
G04 #@! TO.P,U2,36,A9*
G04 #@! TO.N,/A9*
X155448000Y-66802000D03*
G04 #@! TO.P,U2,37,A8*
G04 #@! TO.N,/A8*
X152908000Y-66802000D03*
G04 #@! TO.P,U2,38,A13*
G04 #@! TO.N,/A13*
X150368000Y-66802000D03*
G04 #@! TO.P,U2,39,A14*
G04 #@! TO.N,/A14*
X147828000Y-66802000D03*
G04 #@! TO.P,U2,40,VCC*
G04 #@! TO.N,+5V*
X145288000Y-66802000D03*
G04 #@! TD*
D17*
G04 #@! TO.N,Net-(D1-A)*
X171355000Y-93472000D02*
X175800000Y-93472000D01*
D18*
G04 #@! TO.N,GND*
X177546000Y-82804000D02*
X178308000Y-82042000D01*
X177546000Y-87376000D02*
X177546000Y-82804000D01*
X169480000Y-90870000D02*
X172974000Y-87376000D01*
X169480000Y-97282000D02*
X169480000Y-90870000D01*
X172974000Y-87376000D02*
X177546000Y-87376000D01*
D17*
G04 #@! TO.N,Net-(D2-A)*
X171355000Y-97282000D02*
X175800000Y-97282000D01*
G04 #@! TO.N,Net-(R1-Pad1)*
X179324000Y-93472000D02*
X177800000Y-93472000D01*
X180848000Y-105156000D02*
X180848000Y-94996000D01*
X180848000Y-94996000D02*
X179324000Y-93472000D01*
G04 #@! TO.N,Net-(R2-Pad1)*
X178308000Y-105156000D02*
X178308000Y-97790000D01*
X178308000Y-97790000D02*
X177800000Y-97282000D01*
G04 #@! TO.N,Net-(SW1-B)*
X150570000Y-97819600D02*
X144070000Y-97819600D01*
G04 #@! TO.N,/A9*
X155448000Y-66802000D02*
X148844000Y-60198000D01*
X148844000Y-60198000D02*
X148844000Y-56896000D01*
G04 #@! TO.N,/A12*
X147828000Y-82042000D02*
X165608000Y-99822000D01*
X165608000Y-99822000D02*
X165608000Y-105156000D01*
G04 #@! TO.N,/A7*
X168148000Y-105156000D02*
X168148000Y-99822000D01*
X168148000Y-99822000D02*
X150368000Y-82042000D01*
G04 #@! TO.N,/A15*
X145288000Y-82804000D02*
X145288000Y-82042000D01*
X163068000Y-105156000D02*
X163068000Y-100076000D01*
X163068000Y-100076000D02*
X145288000Y-82296000D01*
X145288000Y-82296000D02*
X145288000Y-82042000D01*
G04 #@! TO.N,/A0*
X168148000Y-82042000D02*
X172974000Y-77216000D01*
X172974000Y-77216000D02*
X206248000Y-77216000D01*
D18*
G04 #@! TO.N,+5V*
X150368000Y-103632000D02*
X148336000Y-101600000D01*
X141732000Y-100584000D02*
X141732000Y-70358000D01*
X148336000Y-101600000D02*
X142748000Y-101600000D01*
X142748000Y-101600000D02*
X141732000Y-100584000D01*
X145288000Y-66802000D02*
X142113000Y-69977000D01*
X141732000Y-70358000D02*
X142113000Y-69977000D01*
X150368000Y-105156000D02*
X150368000Y-103632000D01*
D17*
G04 #@! TO.N,/A10*
X157988000Y-58420000D02*
X157988000Y-57912000D01*
X163068000Y-66802000D02*
X163068000Y-63500000D01*
X157988000Y-57912000D02*
X157988000Y-56896000D01*
X163068000Y-63500000D02*
X157988000Y-58420000D01*
G04 #@! TO.N,/A11*
X157988000Y-66802000D02*
X151384000Y-60198000D01*
X151384000Y-60198000D02*
X151384000Y-56896000D01*
G04 #@! TO.N,/A8*
X152908000Y-66802000D02*
X146304000Y-60198000D01*
X146304000Y-60198000D02*
X146304000Y-56896000D01*
G04 #@! TO.N,/A3*
X207524400Y-68319600D02*
X208788000Y-67056000D01*
X205737399Y-68319600D02*
X207524400Y-68319600D01*
X160528000Y-82042000D02*
X169164000Y-73406000D01*
X200650999Y-73406000D02*
X205737399Y-68319600D01*
X169164000Y-73406000D02*
X200650999Y-73406000D01*
G04 #@! TO.N,/A4*
X204978000Y-67056000D02*
X206248000Y-67056000D01*
X157988000Y-82042000D02*
X167894000Y-72136000D01*
X199898000Y-72136000D02*
X204978000Y-67056000D01*
X167894000Y-72136000D02*
X199898000Y-72136000D01*
G04 #@! TO.N,/A2*
X201676000Y-74676000D02*
X204216000Y-72136000D01*
X204216000Y-72136000D02*
X206248000Y-72136000D01*
X170434000Y-74676000D02*
X201676000Y-74676000D01*
X163068000Y-82042000D02*
X170434000Y-74676000D01*
G04 #@! TO.N,/A6*
X202692000Y-64516000D02*
X206248000Y-64516000D01*
X165354000Y-69596000D02*
X197612000Y-69596000D01*
X152908000Y-82042000D02*
X165354000Y-69596000D01*
X197612000Y-69596000D02*
X202692000Y-64516000D01*
G04 #@! TO.N,/A13*
X150368000Y-66802000D02*
X143764000Y-60198000D01*
X143764000Y-60198000D02*
X143764000Y-56896000D01*
G04 #@! TO.N,/A1*
X207524400Y-73399600D02*
X208788000Y-72136000D01*
X203190999Y-75946000D02*
X205737399Y-73399600D01*
X171704000Y-75946000D02*
X203190999Y-75946000D01*
X165608000Y-82042000D02*
X171704000Y-75946000D01*
X205737399Y-73399600D02*
X207524400Y-73399600D01*
G04 #@! TO.N,/A5*
X198374000Y-70866000D02*
X203447600Y-65792400D01*
X203447600Y-65792400D02*
X207511600Y-65792400D01*
X207511600Y-65792400D02*
X208788000Y-64516000D01*
X166624000Y-70866000D02*
X198374000Y-70866000D01*
X155448000Y-82042000D02*
X166624000Y-70866000D01*
G04 #@! TO.N,/D7*
X168148000Y-63500000D02*
X163068000Y-58420000D01*
X168148000Y-66802000D02*
X168148000Y-63500000D01*
X163068000Y-58420000D02*
X163068000Y-56896000D01*
G04 #@! TO.N,/D6*
X165608000Y-58928000D02*
X165608000Y-56896000D01*
X165608000Y-58928000D02*
X170688000Y-64008000D01*
X170688000Y-66802000D02*
X170688000Y-64008000D01*
G04 #@! TO.N,/D5*
X173228000Y-66802000D02*
X180594000Y-59436000D01*
X180594000Y-59436000D02*
X206248000Y-59436000D01*
G04 #@! TO.N,/D0*
X207518000Y-78486000D02*
X208788000Y-77216000D01*
X170688000Y-82042000D02*
X174244000Y-78486000D01*
X174244000Y-78486000D02*
X207518000Y-78486000D01*
G04 #@! TO.N,/A16*
X153924000Y-56896000D02*
X153924000Y-60198000D01*
X153924000Y-60198000D02*
X160528000Y-66802000D01*
G04 #@! TO.N,/D3*
X183134000Y-61976000D02*
X206248000Y-61976000D01*
X178308000Y-66802000D02*
X183134000Y-61976000D01*
G04 #@! TO.N,/A14*
X141224000Y-60198000D02*
X141224000Y-56896000D01*
X147828000Y-66802000D02*
X141224000Y-60198000D01*
G04 #@! TO.N,/~{CS}*
X165608000Y-63754000D02*
X160528000Y-58674000D01*
X160528000Y-58674000D02*
X160528000Y-58420000D01*
X165608000Y-66802000D02*
X165608000Y-63754000D01*
X160528000Y-58420000D02*
X160528000Y-56896000D01*
G04 #@! TO.N,/D2*
X175768000Y-82042000D02*
X176922000Y-80888000D01*
X207524400Y-81019600D02*
X208788000Y-79756000D01*
X205592999Y-80888000D02*
X205724599Y-81019600D01*
X176922000Y-80888000D02*
X205592999Y-80888000D01*
X205724599Y-81019600D02*
X207524400Y-81019600D01*
G04 #@! TO.N,/D4*
X175768000Y-66802000D02*
X181870400Y-60699600D01*
X181870400Y-60699600D02*
X207524400Y-60699600D01*
X207524400Y-60699600D02*
X208788000Y-59436000D01*
G04 #@! TO.N,/D1*
X173228000Y-82042000D02*
X175514000Y-79756000D01*
X175514000Y-79756000D02*
X206248000Y-79756000D01*
G04 #@! TO.N,unconnected-(XA1-PadD52)*
X205994000Y-97282000D02*
X206248000Y-97536000D01*
G04 #@! TD*
G04 #@! TA.AperFunction,Conductor*
G04 #@! TO.N,GND*
G36*
X154974619Y-104959919D02*
G01*
X154940000Y-105089120D01*
X154940000Y-105222880D01*
X154974619Y-105352081D01*
X155005749Y-105406000D01*
X153350251Y-105406000D01*
X153381381Y-105352081D01*
X153416000Y-105222880D01*
X153416000Y-105089120D01*
X153381381Y-104959919D01*
X153350251Y-104906000D01*
X155005749Y-104906000D01*
X154974619Y-104959919D01*
G37*
G04 #@! TD.AperFunction*
G04 #@! TA.AperFunction,Conductor*
G36*
X208314619Y-99879919D02*
G01*
X208280000Y-100009120D01*
X208280000Y-100142880D01*
X208314619Y-100272081D01*
X208345749Y-100326000D01*
X206690251Y-100326000D01*
X206721381Y-100272081D01*
X206756000Y-100142880D01*
X206756000Y-100009120D01*
X206721381Y-99879919D01*
X206690251Y-99826000D01*
X208345749Y-99826000D01*
X208314619Y-99879919D01*
G37*
G04 #@! TD.AperFunction*
G04 #@! TA.AperFunction,Conductor*
G36*
X209554418Y-54602816D02*
G01*
X209759111Y-54617455D01*
X209776620Y-54619973D01*
X209972813Y-54662653D01*
X209989768Y-54667630D01*
X210177909Y-54737803D01*
X210193987Y-54745147D01*
X210370210Y-54841371D01*
X210385084Y-54850929D01*
X210545822Y-54971257D01*
X210559192Y-54982843D01*
X210701156Y-55124807D01*
X210712742Y-55138177D01*
X210833066Y-55298910D01*
X210842631Y-55313794D01*
X210938850Y-55490007D01*
X210946198Y-55506096D01*
X211009275Y-55675212D01*
X211016364Y-55694217D01*
X211021348Y-55711193D01*
X211064026Y-55907379D01*
X211066544Y-55924891D01*
X211081184Y-56129581D01*
X211081500Y-56138427D01*
X211081500Y-105913572D01*
X211081184Y-105922418D01*
X211066544Y-106127108D01*
X211064026Y-106144620D01*
X211021348Y-106340806D01*
X211016364Y-106357780D01*
X211009274Y-106376790D01*
X210946200Y-106545899D01*
X210938850Y-106561992D01*
X210842631Y-106738205D01*
X210833066Y-106753089D01*
X210712742Y-106913822D01*
X210701156Y-106927192D01*
X210559192Y-107069156D01*
X210545822Y-107080742D01*
X210385089Y-107201066D01*
X210370205Y-107210631D01*
X210193992Y-107306850D01*
X210177899Y-107314200D01*
X209989782Y-107384364D01*
X209972806Y-107389348D01*
X209776620Y-107432026D01*
X209759108Y-107434544D01*
X209554418Y-107449184D01*
X209545572Y-107449500D01*
X128528428Y-107449500D01*
X128519582Y-107449184D01*
X128314891Y-107434544D01*
X128297379Y-107432026D01*
X128101193Y-107389348D01*
X128084222Y-107384365D01*
X127896096Y-107314198D01*
X127880007Y-107306850D01*
X127703794Y-107210631D01*
X127688910Y-107201066D01*
X127528177Y-107080742D01*
X127514807Y-107069156D01*
X127372843Y-106927192D01*
X127361257Y-106913822D01*
X127240929Y-106753084D01*
X127231371Y-106738210D01*
X127135147Y-106561987D01*
X127127803Y-106545909D01*
X127057630Y-106357768D01*
X127052653Y-106340813D01*
X127009973Y-106144620D01*
X127007455Y-106127108D01*
X126998130Y-105996727D01*
X126992816Y-105922418D01*
X126992500Y-105913572D01*
X126992500Y-56895993D01*
X129695225Y-56895993D01*
X129695225Y-56896006D01*
X129713892Y-57121289D01*
X129769388Y-57340439D01*
X129860198Y-57547466D01*
X129983842Y-57736716D01*
X129983850Y-57736727D01*
X130136950Y-57903036D01*
X130136954Y-57903040D01*
X130315351Y-58041893D01*
X130514169Y-58149488D01*
X130514172Y-58149489D01*
X130727982Y-58222890D01*
X130727984Y-58222890D01*
X130727986Y-58222891D01*
X130950967Y-58260100D01*
X130950968Y-58260100D01*
X131177032Y-58260100D01*
X131177033Y-58260100D01*
X131400014Y-58222891D01*
X131613831Y-58149488D01*
X131812649Y-58041893D01*
X131991046Y-57903040D01*
X132144156Y-57736719D01*
X132230193Y-57605028D01*
X132283338Y-57559675D01*
X132352569Y-57550251D01*
X132415905Y-57579753D01*
X132437804Y-57605025D01*
X132523844Y-57736719D01*
X132523849Y-57736724D01*
X132523850Y-57736727D01*
X132676950Y-57903036D01*
X132676954Y-57903040D01*
X132855351Y-58041893D01*
X133054169Y-58149488D01*
X133054172Y-58149489D01*
X133267982Y-58222890D01*
X133267984Y-58222890D01*
X133267986Y-58222891D01*
X133490967Y-58260100D01*
X133490968Y-58260100D01*
X133717032Y-58260100D01*
X133717033Y-58260100D01*
X133940014Y-58222891D01*
X134153831Y-58149488D01*
X134352649Y-58041893D01*
X134531046Y-57903040D01*
X134684156Y-57736719D01*
X134770193Y-57605028D01*
X134823338Y-57559675D01*
X134892569Y-57550251D01*
X134955905Y-57579753D01*
X134977804Y-57605025D01*
X135063844Y-57736719D01*
X135063849Y-57736724D01*
X135063850Y-57736727D01*
X135216950Y-57903036D01*
X135216954Y-57903040D01*
X135395351Y-58041893D01*
X135594169Y-58149488D01*
X135594172Y-58149489D01*
X135807982Y-58222890D01*
X135807984Y-58222890D01*
X135807986Y-58222891D01*
X136030967Y-58260100D01*
X136030968Y-58260100D01*
X136257032Y-58260100D01*
X136257033Y-58260100D01*
X136480014Y-58222891D01*
X136693831Y-58149488D01*
X136892649Y-58041893D01*
X137071046Y-57903040D01*
X137125815Y-57843545D01*
X137185699Y-57807557D01*
X137255537Y-57809657D01*
X137313153Y-57849180D01*
X137333224Y-57884196D01*
X137377046Y-58001688D01*
X137377049Y-58001693D01*
X137463209Y-58116787D01*
X137463212Y-58116790D01*
X137578306Y-58202950D01*
X137578313Y-58202954D01*
X137713020Y-58253196D01*
X137713027Y-58253198D01*
X137772555Y-58259599D01*
X137772572Y-58259600D01*
X138434000Y-58259600D01*
X138434000Y-57338251D01*
X138487919Y-57369381D01*
X138617120Y-57404000D01*
X138750880Y-57404000D01*
X138880081Y-57369381D01*
X138934000Y-57338251D01*
X138934000Y-58259600D01*
X139595428Y-58259600D01*
X139595444Y-58259599D01*
X139654972Y-58253198D01*
X139654979Y-58253196D01*
X139789686Y-58202954D01*
X139789693Y-58202950D01*
X139904787Y-58116790D01*
X139904790Y-58116787D01*
X139990950Y-58001693D01*
X139990954Y-58001686D01*
X140034775Y-57884197D01*
X140076646Y-57828263D01*
X140142110Y-57803846D01*
X140210383Y-57818698D01*
X140242186Y-57843547D01*
X140296950Y-57903036D01*
X140296955Y-57903041D01*
X140475663Y-58042136D01*
X140516476Y-58098846D01*
X140523500Y-58139989D01*
X140523500Y-60129006D01*
X140523500Y-60266994D01*
X140523500Y-60266996D01*
X140523499Y-60266996D01*
X140550418Y-60402322D01*
X140550421Y-60402332D01*
X140603222Y-60529807D01*
X140679887Y-60644545D01*
X140679888Y-60644546D01*
X145366684Y-65331340D01*
X145400169Y-65392663D01*
X145395185Y-65462355D01*
X145353313Y-65518288D01*
X145289810Y-65542549D01*
X145069331Y-65561838D01*
X145069324Y-65561839D01*
X144946902Y-65594642D01*
X144857297Y-65618653D01*
X144857295Y-65618653D01*
X144857291Y-65618655D01*
X144658357Y-65711419D01*
X144658349Y-65711423D01*
X144478547Y-65837322D01*
X144478541Y-65837327D01*
X144323327Y-65992541D01*
X144323322Y-65992547D01*
X144197423Y-66172349D01*
X144197419Y-66172357D01*
X144104655Y-66371291D01*
X144104653Y-66371295D01*
X144104653Y-66371297D01*
X144095747Y-66404535D01*
X144047839Y-66583324D01*
X144047838Y-66583331D01*
X144028708Y-66801997D01*
X144028708Y-66802003D01*
X144036746Y-66893889D01*
X144022979Y-66962389D01*
X144000899Y-66992376D01*
X142134096Y-68859181D01*
X141618649Y-69374628D01*
X141618647Y-69374630D01*
X141237648Y-69755630D01*
X141183638Y-69809640D01*
X141129628Y-69863649D01*
X141044764Y-69990656D01*
X141044759Y-69990665D01*
X140986302Y-70131794D01*
X140986300Y-70131802D01*
X140956500Y-70281615D01*
X140956500Y-100660384D01*
X140986300Y-100810197D01*
X140986302Y-100810205D01*
X141044759Y-100951334D01*
X141044764Y-100951343D01*
X141129629Y-101078351D01*
X141129632Y-101078355D01*
X142253644Y-102202367D01*
X142253648Y-102202370D01*
X142380656Y-102287235D01*
X142380662Y-102287238D01*
X142380663Y-102287239D01*
X142521795Y-102345698D01*
X142671615Y-102375499D01*
X142671619Y-102375500D01*
X142671620Y-102375500D01*
X142824380Y-102375500D01*
X147963416Y-102375500D01*
X148030455Y-102395185D01*
X148051097Y-102411819D01*
X149536950Y-103897672D01*
X149570435Y-103958995D01*
X149565451Y-104028687D01*
X149525433Y-104083205D01*
X149440957Y-104148957D01*
X149440950Y-104148963D01*
X149287850Y-104315272D01*
X149287842Y-104315283D01*
X149201808Y-104446968D01*
X149148662Y-104492325D01*
X149079430Y-104501748D01*
X149016095Y-104472246D01*
X148994192Y-104446968D01*
X148908157Y-104315283D01*
X148908149Y-104315272D01*
X148755049Y-104148963D01*
X148755048Y-104148962D01*
X148755046Y-104148960D01*
X148576649Y-104010107D01*
X148503251Y-103970386D01*
X148377832Y-103902512D01*
X148377827Y-103902510D01*
X148164017Y-103829109D01*
X147982388Y-103798801D01*
X147941033Y-103791900D01*
X147714967Y-103791900D01*
X147673612Y-103798801D01*
X147491982Y-103829109D01*
X147278172Y-103902510D01*
X147278167Y-103902512D01*
X147079352Y-104010106D01*
X146900955Y-104148959D01*
X146900950Y-104148963D01*
X146747850Y-104315272D01*
X146747842Y-104315283D01*
X146661808Y-104446968D01*
X146608662Y-104492325D01*
X146539430Y-104501748D01*
X146476095Y-104472246D01*
X146454192Y-104446968D01*
X146368157Y-104315283D01*
X146368149Y-104315272D01*
X146215049Y-104148963D01*
X146215048Y-104148962D01*
X146215046Y-104148960D01*
X146036649Y-104010107D01*
X145963251Y-103970386D01*
X145837832Y-103902512D01*
X145837827Y-103902510D01*
X145624017Y-103829109D01*
X145442388Y-103798801D01*
X145401033Y-103791900D01*
X145174967Y-103791900D01*
X145133612Y-103798801D01*
X144951982Y-103829109D01*
X144738172Y-103902510D01*
X144738167Y-103902512D01*
X144539352Y-104010106D01*
X144360955Y-104148959D01*
X144360950Y-104148963D01*
X144207850Y-104315272D01*
X144207842Y-104315283D01*
X144121808Y-104446968D01*
X144068662Y-104492325D01*
X143999430Y-104501748D01*
X143936095Y-104472246D01*
X143914192Y-104446968D01*
X143828157Y-104315283D01*
X143828149Y-104315272D01*
X143675049Y-104148963D01*
X143675048Y-104148962D01*
X143675046Y-104148960D01*
X143496649Y-104010107D01*
X143423251Y-103970386D01*
X143297832Y-103902512D01*
X143297827Y-103902510D01*
X143084017Y-103829109D01*
X142902388Y-103798801D01*
X142861033Y-103791900D01*
X142634967Y-103791900D01*
X142593612Y-103798801D01*
X142411982Y-103829109D01*
X142198172Y-103902510D01*
X142198167Y-103902512D01*
X141999352Y-104010106D01*
X141820955Y-104148959D01*
X141820950Y-104148963D01*
X141667850Y-104315272D01*
X141667842Y-104315283D01*
X141581808Y-104446968D01*
X141528662Y-104492325D01*
X141459430Y-104501748D01*
X141396095Y-104472246D01*
X141374192Y-104446968D01*
X141288157Y-104315283D01*
X141288149Y-104315272D01*
X141135049Y-104148963D01*
X141135048Y-104148962D01*
X141135046Y-104148960D01*
X140956649Y-104010107D01*
X140883251Y-103970386D01*
X140757832Y-103902512D01*
X140757827Y-103902510D01*
X140544017Y-103829109D01*
X140362388Y-103798801D01*
X140321033Y-103791900D01*
X140094967Y-103791900D01*
X140053612Y-103798801D01*
X139871982Y-103829109D01*
X139658172Y-103902510D01*
X139658167Y-103902512D01*
X139459352Y-104010106D01*
X139280955Y-104148959D01*
X139280950Y-104148963D01*
X139127850Y-104315272D01*
X139127842Y-104315283D01*
X139004198Y-104504533D01*
X138913388Y-104711560D01*
X138857892Y-104930710D01*
X138839225Y-105155993D01*
X138839225Y-105156006D01*
X138857892Y-105381289D01*
X138913388Y-105600439D01*
X139004198Y-105807466D01*
X139127842Y-105996716D01*
X139127850Y-105996727D01*
X139263997Y-106144620D01*
X139280954Y-106163040D01*
X139459351Y-106301893D01*
X139658169Y-106409488D01*
X139658172Y-106409489D01*
X139871982Y-106482890D01*
X139871984Y-106482890D01*
X139871986Y-106482891D01*
X140094967Y-106520100D01*
X140094968Y-106520100D01*
X140321032Y-106520100D01*
X140321033Y-106520100D01*
X140544014Y-106482891D01*
X140757831Y-106409488D01*
X140956649Y-106301893D01*
X141135046Y-106163040D01*
X141288156Y-105996719D01*
X141374193Y-105865028D01*
X141427338Y-105819675D01*
X141496569Y-105810251D01*
X141559905Y-105839753D01*
X141581804Y-105865025D01*
X141667844Y-105996719D01*
X141667849Y-105996724D01*
X141667850Y-105996727D01*
X141803997Y-106144620D01*
X141820954Y-106163040D01*
X141999351Y-106301893D01*
X142198169Y-106409488D01*
X142198172Y-106409489D01*
X142411982Y-106482890D01*
X142411984Y-106482890D01*
X142411986Y-106482891D01*
X142634967Y-106520100D01*
X142634968Y-106520100D01*
X142861032Y-106520100D01*
X142861033Y-106520100D01*
X143084014Y-106482891D01*
X143297831Y-106409488D01*
X143496649Y-106301893D01*
X143675046Y-106163040D01*
X143828156Y-105996719D01*
X143914193Y-105865028D01*
X143967338Y-105819675D01*
X144036569Y-105810251D01*
X144099905Y-105839753D01*
X144121804Y-105865025D01*
X144207844Y-105996719D01*
X144207849Y-105996724D01*
X144207850Y-105996727D01*
X144343997Y-106144620D01*
X144360954Y-106163040D01*
X144539351Y-106301893D01*
X144738169Y-106409488D01*
X144738172Y-106409489D01*
X144951982Y-106482890D01*
X144951984Y-106482890D01*
X144951986Y-106482891D01*
X145174967Y-106520100D01*
X145174968Y-106520100D01*
X145401032Y-106520100D01*
X145401033Y-106520100D01*
X145624014Y-106482891D01*
X145837831Y-106409488D01*
X146036649Y-106301893D01*
X146215046Y-106163040D01*
X146368156Y-105996719D01*
X146454193Y-105865028D01*
X146507338Y-105819675D01*
X146576569Y-105810251D01*
X146639905Y-105839753D01*
X146661804Y-105865025D01*
X146747844Y-105996719D01*
X146747849Y-105996724D01*
X146747850Y-105996727D01*
X146883997Y-106144620D01*
X146900954Y-106163040D01*
X147079351Y-106301893D01*
X147278169Y-106409488D01*
X147278172Y-106409489D01*
X147491982Y-106482890D01*
X147491984Y-106482890D01*
X147491986Y-106482891D01*
X147714967Y-106520100D01*
X147714968Y-106520100D01*
X147941032Y-106520100D01*
X147941033Y-106520100D01*
X148164014Y-106482891D01*
X148377831Y-106409488D01*
X148576649Y-106301893D01*
X148755046Y-106163040D01*
X148908156Y-105996719D01*
X148994193Y-105865028D01*
X149047338Y-105819675D01*
X149116569Y-105810251D01*
X149179905Y-105839753D01*
X149201804Y-105865025D01*
X149287844Y-105996719D01*
X149287849Y-105996724D01*
X149287850Y-105996727D01*
X149423997Y-106144620D01*
X149440954Y-106163040D01*
X149619351Y-106301893D01*
X149818169Y-106409488D01*
X149818172Y-106409489D01*
X150031982Y-106482890D01*
X150031984Y-106482890D01*
X150031986Y-106482891D01*
X150254967Y-106520100D01*
X150254968Y-106520100D01*
X150481032Y-106520100D01*
X150481033Y-106520100D01*
X150704014Y-106482891D01*
X150917831Y-106409488D01*
X151116649Y-106301893D01*
X151295046Y-106163040D01*
X151349815Y-106103545D01*
X151409699Y-106067557D01*
X151479537Y-106069657D01*
X151537153Y-106109180D01*
X151557224Y-106144196D01*
X151601046Y-106261688D01*
X151601049Y-106261693D01*
X151687209Y-106376787D01*
X151687212Y-106376790D01*
X151802306Y-106462950D01*
X151802313Y-106462954D01*
X151937020Y-106513196D01*
X151937027Y-106513198D01*
X151996555Y-106519599D01*
X151996572Y-106519600D01*
X152658000Y-106519600D01*
X152658000Y-105598251D01*
X152711919Y-105629381D01*
X152841120Y-105664000D01*
X152974880Y-105664000D01*
X153104081Y-105629381D01*
X153158000Y-105598251D01*
X153158000Y-106519600D01*
X153819428Y-106519600D01*
X153819444Y-106519599D01*
X153878972Y-106513198D01*
X153878979Y-106513196D01*
X154013686Y-106462954D01*
X154013689Y-106462952D01*
X154103688Y-106395579D01*
X154169152Y-106371161D01*
X154237426Y-106386012D01*
X154252312Y-106395579D01*
X154342310Y-106462952D01*
X154342313Y-106462954D01*
X154477020Y-106513196D01*
X154477027Y-106513198D01*
X154536555Y-106519599D01*
X154536572Y-106519600D01*
X155198000Y-106519600D01*
X155198000Y-105598251D01*
X155251919Y-105629381D01*
X155381120Y-105664000D01*
X155514880Y-105664000D01*
X155644081Y-105629381D01*
X155698000Y-105598251D01*
X155698000Y-106519600D01*
X156359428Y-106519600D01*
X156359444Y-106519599D01*
X156418972Y-106513198D01*
X156418979Y-106513196D01*
X156553686Y-106462954D01*
X156553693Y-106462950D01*
X156668787Y-106376790D01*
X156668790Y-106376787D01*
X156754950Y-106261693D01*
X156754954Y-106261686D01*
X156798775Y-106144197D01*
X156840646Y-106088263D01*
X156906110Y-106063846D01*
X156974383Y-106078698D01*
X157006186Y-106103547D01*
X157043997Y-106144620D01*
X157060954Y-106163040D01*
X157239351Y-106301893D01*
X157438169Y-106409488D01*
X157438172Y-106409489D01*
X157651982Y-106482890D01*
X157651984Y-106482890D01*
X157651986Y-106482891D01*
X157874967Y-106520100D01*
X157874968Y-106520100D01*
X158101032Y-106520100D01*
X158101033Y-106520100D01*
X158324014Y-106482891D01*
X158537831Y-106409488D01*
X158736649Y-106301893D01*
X158915046Y-106163040D01*
X159068156Y-105996719D01*
X159191802Y-105807465D01*
X159282611Y-105600441D01*
X159338107Y-105381293D01*
X159345574Y-105291175D01*
X159356775Y-105156006D01*
X159356775Y-105155993D01*
X159343707Y-104998294D01*
X159338107Y-104930707D01*
X159282611Y-104711559D01*
X159191802Y-104504535D01*
X159068156Y-104315281D01*
X159068153Y-104315278D01*
X159068149Y-104315272D01*
X158915049Y-104148963D01*
X158915048Y-104148962D01*
X158915046Y-104148960D01*
X158736649Y-104010107D01*
X158663251Y-103970386D01*
X158537832Y-103902512D01*
X158537827Y-103902510D01*
X158324017Y-103829109D01*
X158142388Y-103798801D01*
X158101033Y-103791900D01*
X157874967Y-103791900D01*
X157833612Y-103798801D01*
X157651982Y-103829109D01*
X157438172Y-103902510D01*
X157438167Y-103902512D01*
X157239352Y-104010106D01*
X157060955Y-104148958D01*
X157006186Y-104208453D01*
X156946298Y-104244443D01*
X156876460Y-104242342D01*
X156818845Y-104202817D01*
X156798775Y-104167802D01*
X156754954Y-104050313D01*
X156754950Y-104050306D01*
X156668790Y-103935212D01*
X156668787Y-103935209D01*
X156553693Y-103849049D01*
X156553686Y-103849045D01*
X156418979Y-103798803D01*
X156418972Y-103798801D01*
X156359444Y-103792400D01*
X155698000Y-103792400D01*
X155698000Y-104713748D01*
X155644081Y-104682619D01*
X155514880Y-104648000D01*
X155381120Y-104648000D01*
X155251919Y-104682619D01*
X155198000Y-104713748D01*
X155198000Y-103792400D01*
X154536555Y-103792400D01*
X154477027Y-103798801D01*
X154477020Y-103798803D01*
X154342313Y-103849045D01*
X154342311Y-103849047D01*
X154252311Y-103916421D01*
X154186847Y-103940838D01*
X154118574Y-103925987D01*
X154103689Y-103916421D01*
X154013688Y-103849047D01*
X154013686Y-103849045D01*
X153878979Y-103798803D01*
X153878972Y-103798801D01*
X153819444Y-103792400D01*
X153158000Y-103792400D01*
X153158000Y-104713748D01*
X153104081Y-104682619D01*
X152974880Y-104648000D01*
X152841120Y-104648000D01*
X152711919Y-104682619D01*
X152658000Y-104713748D01*
X152658000Y-103792400D01*
X151996555Y-103792400D01*
X151937027Y-103798801D01*
X151937020Y-103798803D01*
X151802313Y-103849045D01*
X151802306Y-103849049D01*
X151687212Y-103935209D01*
X151687209Y-103935212D01*
X151601049Y-104050306D01*
X151601046Y-104050312D01*
X151557224Y-104167803D01*
X151515352Y-104223736D01*
X151449887Y-104248153D01*
X151381615Y-104233301D01*
X151349813Y-104208452D01*
X151295049Y-104148963D01*
X151295044Y-104148958D01*
X151191337Y-104068239D01*
X151150524Y-104011528D01*
X151143500Y-103970386D01*
X151143500Y-103555619D01*
X151143499Y-103555615D01*
X151113699Y-103405802D01*
X151113698Y-103405795D01*
X151055239Y-103264663D01*
X151055238Y-103264662D01*
X151055235Y-103264656D01*
X150970371Y-103137649D01*
X150970370Y-103137648D01*
X150862352Y-103029630D01*
X150035089Y-102202367D01*
X148830355Y-100997632D01*
X148830351Y-100997629D01*
X148703343Y-100912764D01*
X148703334Y-100912759D01*
X148562205Y-100854302D01*
X148562197Y-100854300D01*
X148412384Y-100824500D01*
X148412380Y-100824500D01*
X143120584Y-100824500D01*
X143053545Y-100804815D01*
X143032903Y-100788181D01*
X142543819Y-100299097D01*
X142510334Y-100237774D01*
X142507500Y-100211416D01*
X142507500Y-97819594D01*
X142818357Y-97819594D01*
X142818357Y-97819605D01*
X142838890Y-98067412D01*
X142838892Y-98067424D01*
X142899936Y-98308481D01*
X142999826Y-98536206D01*
X143135833Y-98744382D01*
X143135836Y-98744385D01*
X143304256Y-98927338D01*
X143500491Y-99080074D01*
X143719190Y-99198428D01*
X143954386Y-99279171D01*
X144199665Y-99320100D01*
X144448335Y-99320100D01*
X144693614Y-99279171D01*
X144928810Y-99198428D01*
X145147509Y-99080074D01*
X145343744Y-98927338D01*
X145512164Y-98744385D01*
X145621993Y-98576279D01*
X145675139Y-98530922D01*
X145725802Y-98520100D01*
X149422198Y-98520100D01*
X149489237Y-98539785D01*
X149526007Y-98576279D01*
X149635833Y-98744382D01*
X149635836Y-98744385D01*
X149804256Y-98927338D01*
X150000491Y-99080074D01*
X150219190Y-99198428D01*
X150454386Y-99279171D01*
X150699665Y-99320100D01*
X150948335Y-99320100D01*
X151193614Y-99279171D01*
X151428810Y-99198428D01*
X151647509Y-99080074D01*
X151843744Y-98927338D01*
X152012164Y-98744385D01*
X152148173Y-98536207D01*
X152248063Y-98308481D01*
X152309108Y-98067421D01*
X152309109Y-98067412D01*
X152329643Y-97819605D01*
X152329643Y-97819594D01*
X152309109Y-97571787D01*
X152309107Y-97571775D01*
X152248063Y-97330718D01*
X152148173Y-97102993D01*
X152012166Y-96894817D01*
X151949706Y-96826968D01*
X151843744Y-96711862D01*
X151647509Y-96559126D01*
X151647507Y-96559125D01*
X151647506Y-96559124D01*
X151428811Y-96440772D01*
X151428802Y-96440769D01*
X151193616Y-96360029D01*
X150948335Y-96319100D01*
X150699665Y-96319100D01*
X150454383Y-96360029D01*
X150219197Y-96440769D01*
X150219188Y-96440772D01*
X150000493Y-96559124D01*
X149804257Y-96711861D01*
X149635833Y-96894817D01*
X149526007Y-97062921D01*
X149472861Y-97108278D01*
X149422198Y-97119100D01*
X145725802Y-97119100D01*
X145658763Y-97099415D01*
X145621993Y-97062921D01*
X145512166Y-96894817D01*
X145449706Y-96826968D01*
X145343744Y-96711862D01*
X145147509Y-96559126D01*
X145147507Y-96559125D01*
X145147506Y-96559124D01*
X144928811Y-96440772D01*
X144928802Y-96440769D01*
X144693616Y-96360029D01*
X144448335Y-96319100D01*
X144199665Y-96319100D01*
X143954383Y-96360029D01*
X143719197Y-96440769D01*
X143719188Y-96440772D01*
X143500493Y-96559124D01*
X143304257Y-96711861D01*
X143135833Y-96894817D01*
X142999826Y-97102993D01*
X142899936Y-97330718D01*
X142838892Y-97571775D01*
X142838890Y-97571787D01*
X142818357Y-97819594D01*
X142507500Y-97819594D01*
X142507500Y-93319594D01*
X142818859Y-93319594D01*
X142818859Y-93319605D01*
X142839385Y-93567329D01*
X142839387Y-93567338D01*
X142900412Y-93808317D01*
X143000266Y-94035964D01*
X143100564Y-94189482D01*
X143800212Y-93489834D01*
X143811482Y-93531892D01*
X143883890Y-93657308D01*
X143986292Y-93759710D01*
X144111708Y-93832118D01*
X144153765Y-93843387D01*
X143453942Y-94543209D01*
X143500768Y-94579655D01*
X143500770Y-94579656D01*
X143719385Y-94697964D01*
X143719396Y-94697969D01*
X143954506Y-94778683D01*
X144199707Y-94819600D01*
X144448293Y-94819600D01*
X144693493Y-94778683D01*
X144928603Y-94697969D01*
X144928614Y-94697964D01*
X145147228Y-94579657D01*
X145147231Y-94579655D01*
X145194056Y-94543209D01*
X144494234Y-93843387D01*
X144536292Y-93832118D01*
X144661708Y-93759710D01*
X144764110Y-93657308D01*
X144836518Y-93531892D01*
X144847787Y-93489835D01*
X145547434Y-94189482D01*
X145647731Y-94035969D01*
X145747587Y-93808317D01*
X145808612Y-93567338D01*
X145808614Y-93567329D01*
X145829141Y-93319605D01*
X145829141Y-93319594D01*
X149318859Y-93319594D01*
X149318859Y-93319605D01*
X149339385Y-93567329D01*
X149339387Y-93567338D01*
X149400412Y-93808317D01*
X149500266Y-94035964D01*
X149600564Y-94189482D01*
X150300212Y-93489834D01*
X150311482Y-93531892D01*
X150383890Y-93657308D01*
X150486292Y-93759710D01*
X150611708Y-93832118D01*
X150653765Y-93843387D01*
X149953942Y-94543209D01*
X150000768Y-94579655D01*
X150000770Y-94579656D01*
X150219385Y-94697964D01*
X150219396Y-94697969D01*
X150454506Y-94778683D01*
X150699707Y-94819600D01*
X150948293Y-94819600D01*
X151193493Y-94778683D01*
X151428603Y-94697969D01*
X151428614Y-94697964D01*
X151647228Y-94579657D01*
X151647231Y-94579655D01*
X151694056Y-94543209D01*
X150994234Y-93843387D01*
X151036292Y-93832118D01*
X151161708Y-93759710D01*
X151264110Y-93657308D01*
X151336518Y-93531892D01*
X151347787Y-93489835D01*
X152047434Y-94189482D01*
X152147731Y-94035969D01*
X152247587Y-93808317D01*
X152308612Y-93567338D01*
X152308614Y-93567329D01*
X152329141Y-93319605D01*
X152329141Y-93319594D01*
X152308614Y-93071870D01*
X152308612Y-93071861D01*
X152247587Y-92830882D01*
X152147731Y-92603230D01*
X152047434Y-92449716D01*
X151347787Y-93149364D01*
X151336518Y-93107308D01*
X151264110Y-92981892D01*
X151161708Y-92879490D01*
X151036292Y-92807082D01*
X150994235Y-92795812D01*
X151694057Y-92095990D01*
X151694056Y-92095989D01*
X151647229Y-92059543D01*
X151428614Y-91941235D01*
X151428603Y-91941230D01*
X151193493Y-91860516D01*
X150948293Y-91819600D01*
X150699707Y-91819600D01*
X150454506Y-91860516D01*
X150219396Y-91941230D01*
X150219390Y-91941232D01*
X150000761Y-92059549D01*
X149953942Y-92095988D01*
X149953942Y-92095990D01*
X150653765Y-92795812D01*
X150611708Y-92807082D01*
X150486292Y-92879490D01*
X150383890Y-92981892D01*
X150311482Y-93107308D01*
X150300212Y-93149364D01*
X149600564Y-92449716D01*
X149500267Y-92603232D01*
X149400412Y-92830882D01*
X149339387Y-93071861D01*
X149339385Y-93071870D01*
X149318859Y-93319594D01*
X145829141Y-93319594D01*
X145808614Y-93071870D01*
X145808612Y-93071861D01*
X145747587Y-92830882D01*
X145647731Y-92603230D01*
X145547434Y-92449716D01*
X144847787Y-93149364D01*
X144836518Y-93107308D01*
X144764110Y-92981892D01*
X144661708Y-92879490D01*
X144536292Y-92807082D01*
X144494235Y-92795812D01*
X145194057Y-92095990D01*
X145194056Y-92095989D01*
X145147229Y-92059543D01*
X144928614Y-91941235D01*
X144928603Y-91941230D01*
X144693493Y-91860516D01*
X144448293Y-91819600D01*
X144199707Y-91819600D01*
X143954506Y-91860516D01*
X143719396Y-91941230D01*
X143719390Y-91941232D01*
X143500761Y-92059549D01*
X143453942Y-92095988D01*
X143453942Y-92095990D01*
X144153765Y-92795812D01*
X144111708Y-92807082D01*
X143986292Y-92879490D01*
X143883890Y-92981892D01*
X143811482Y-93107308D01*
X143800212Y-93149364D01*
X143100564Y-92449716D01*
X143000267Y-92603232D01*
X142900412Y-92830882D01*
X142839387Y-93071861D01*
X142839385Y-93071870D01*
X142818859Y-93319594D01*
X142507500Y-93319594D01*
X142507500Y-70730584D01*
X142527185Y-70663545D01*
X142543819Y-70642903D01*
X142583686Y-70603036D01*
X142715370Y-70471353D01*
X142715370Y-70471351D01*
X142725574Y-70461148D01*
X142725577Y-70461143D01*
X145097624Y-68089097D01*
X145158945Y-68055614D01*
X145196106Y-68053252D01*
X145288000Y-68061292D01*
X145288002Y-68061292D01*
X145342668Y-68056509D01*
X145506674Y-68042161D01*
X145718703Y-67985347D01*
X145917646Y-67892579D01*
X146097457Y-67766674D01*
X146252674Y-67611457D01*
X146378579Y-67431646D01*
X146445618Y-67287878D01*
X146491790Y-67235439D01*
X146558983Y-67216287D01*
X146625864Y-67236502D01*
X146670382Y-67287879D01*
X146737419Y-67431642D01*
X146737423Y-67431650D01*
X146863322Y-67611452D01*
X146863327Y-67611458D01*
X147018541Y-67766672D01*
X147018547Y-67766677D01*
X147198349Y-67892576D01*
X147198351Y-67892577D01*
X147198354Y-67892579D01*
X147397297Y-67985347D01*
X147609326Y-68042161D01*
X147765521Y-68055826D01*
X147827998Y-68061292D01*
X147828000Y-68061292D01*
X147828002Y-68061292D01*
X147882668Y-68056509D01*
X148046674Y-68042161D01*
X148258703Y-67985347D01*
X148457646Y-67892579D01*
X148637457Y-67766674D01*
X148792674Y-67611457D01*
X148918579Y-67431646D01*
X148985618Y-67287878D01*
X149031790Y-67235439D01*
X149098983Y-67216287D01*
X149165864Y-67236502D01*
X149210382Y-67287879D01*
X149277419Y-67431642D01*
X149277423Y-67431650D01*
X149403322Y-67611452D01*
X149403327Y-67611458D01*
X149558541Y-67766672D01*
X149558547Y-67766677D01*
X149738349Y-67892576D01*
X149738351Y-67892577D01*
X149738354Y-67892579D01*
X149937297Y-67985347D01*
X150149326Y-68042161D01*
X150305521Y-68055826D01*
X150367998Y-68061292D01*
X150368000Y-68061292D01*
X150368002Y-68061292D01*
X150422668Y-68056509D01*
X150586674Y-68042161D01*
X150798703Y-67985347D01*
X150997646Y-67892579D01*
X151177457Y-67766674D01*
X151332674Y-67611457D01*
X151458579Y-67431646D01*
X151525618Y-67287878D01*
X151571790Y-67235439D01*
X151638983Y-67216287D01*
X151705864Y-67236502D01*
X151750382Y-67287879D01*
X151817419Y-67431642D01*
X151817423Y-67431650D01*
X151943322Y-67611452D01*
X151943327Y-67611458D01*
X152098541Y-67766672D01*
X152098547Y-67766677D01*
X152278349Y-67892576D01*
X152278351Y-67892577D01*
X152278354Y-67892579D01*
X152477297Y-67985347D01*
X152689326Y-68042161D01*
X152845521Y-68055826D01*
X152907998Y-68061292D01*
X152908000Y-68061292D01*
X152908002Y-68061292D01*
X152962668Y-68056509D01*
X153126674Y-68042161D01*
X153338703Y-67985347D01*
X153537646Y-67892579D01*
X153717457Y-67766674D01*
X153872674Y-67611457D01*
X153998579Y-67431646D01*
X154065618Y-67287878D01*
X154111790Y-67235439D01*
X154178983Y-67216287D01*
X154245864Y-67236502D01*
X154290382Y-67287879D01*
X154357419Y-67431642D01*
X154357423Y-67431650D01*
X154483322Y-67611452D01*
X154483327Y-67611458D01*
X154638541Y-67766672D01*
X154638547Y-67766677D01*
X154818349Y-67892576D01*
X154818351Y-67892577D01*
X154818354Y-67892579D01*
X155017297Y-67985347D01*
X155229326Y-68042161D01*
X155385521Y-68055826D01*
X155447998Y-68061292D01*
X155448000Y-68061292D01*
X155448002Y-68061292D01*
X155502668Y-68056509D01*
X155666674Y-68042161D01*
X155878703Y-67985347D01*
X156077646Y-67892579D01*
X156257457Y-67766674D01*
X156412674Y-67611457D01*
X156538579Y-67431646D01*
X156605618Y-67287878D01*
X156651790Y-67235439D01*
X156718983Y-67216287D01*
X156785864Y-67236502D01*
X156830382Y-67287879D01*
X156897419Y-67431642D01*
X156897423Y-67431650D01*
X157023322Y-67611452D01*
X157023327Y-67611458D01*
X157178541Y-67766672D01*
X157178547Y-67766677D01*
X157358349Y-67892576D01*
X157358351Y-67892577D01*
X157358354Y-67892579D01*
X157557297Y-67985347D01*
X157769326Y-68042161D01*
X157925521Y-68055826D01*
X157987998Y-68061292D01*
X157988000Y-68061292D01*
X157988002Y-68061292D01*
X158042668Y-68056509D01*
X158206674Y-68042161D01*
X158418703Y-67985347D01*
X158617646Y-67892579D01*
X158797457Y-67766674D01*
X158952674Y-67611457D01*
X159078579Y-67431646D01*
X159145618Y-67287878D01*
X159191790Y-67235439D01*
X159258983Y-67216287D01*
X159325864Y-67236502D01*
X159370382Y-67287879D01*
X159437419Y-67431642D01*
X159437423Y-67431650D01*
X159563322Y-67611452D01*
X159563327Y-67611458D01*
X159718541Y-67766672D01*
X159718547Y-67766677D01*
X159898349Y-67892576D01*
X159898351Y-67892577D01*
X159898354Y-67892579D01*
X160097297Y-67985347D01*
X160309326Y-68042161D01*
X160465521Y-68055826D01*
X160527998Y-68061292D01*
X160528000Y-68061292D01*
X160528002Y-68061292D01*
X160582668Y-68056509D01*
X160746674Y-68042161D01*
X160958703Y-67985347D01*
X161157646Y-67892579D01*
X161337457Y-67766674D01*
X161492674Y-67611457D01*
X161618579Y-67431646D01*
X161685618Y-67287878D01*
X161731790Y-67235439D01*
X161798983Y-67216287D01*
X161865864Y-67236502D01*
X161910382Y-67287879D01*
X161977419Y-67431642D01*
X161977423Y-67431650D01*
X162103322Y-67611452D01*
X162103327Y-67611458D01*
X162258541Y-67766672D01*
X162258547Y-67766677D01*
X162438349Y-67892576D01*
X162438351Y-67892577D01*
X162438354Y-67892579D01*
X162637297Y-67985347D01*
X162849326Y-68042161D01*
X163005521Y-68055826D01*
X163067998Y-68061292D01*
X163068000Y-68061292D01*
X163068002Y-68061292D01*
X163122668Y-68056509D01*
X163286674Y-68042161D01*
X163498703Y-67985347D01*
X163697646Y-67892579D01*
X163877457Y-67766674D01*
X164032674Y-67611457D01*
X164158579Y-67431646D01*
X164225618Y-67287878D01*
X164271790Y-67235439D01*
X164338983Y-67216287D01*
X164405864Y-67236502D01*
X164450382Y-67287879D01*
X164517419Y-67431642D01*
X164517423Y-67431650D01*
X164643322Y-67611452D01*
X164643327Y-67611458D01*
X164798541Y-67766672D01*
X164798547Y-67766677D01*
X164978349Y-67892576D01*
X164978351Y-67892577D01*
X164978354Y-67892579D01*
X165177297Y-67985347D01*
X165389326Y-68042161D01*
X165545521Y-68055826D01*
X165607998Y-68061292D01*
X165608000Y-68061292D01*
X165608002Y-68061292D01*
X165662668Y-68056509D01*
X165826674Y-68042161D01*
X166038703Y-67985347D01*
X166237646Y-67892579D01*
X166417457Y-67766674D01*
X166572674Y-67611457D01*
X166698579Y-67431646D01*
X166765618Y-67287878D01*
X166811790Y-67235439D01*
X166878983Y-67216287D01*
X166945864Y-67236502D01*
X166990382Y-67287879D01*
X167057419Y-67431642D01*
X167057423Y-67431650D01*
X167183322Y-67611452D01*
X167183327Y-67611458D01*
X167338541Y-67766672D01*
X167338547Y-67766677D01*
X167518349Y-67892576D01*
X167518351Y-67892577D01*
X167518354Y-67892579D01*
X167717297Y-67985347D01*
X167929326Y-68042161D01*
X168085521Y-68055826D01*
X168147998Y-68061292D01*
X168148000Y-68061292D01*
X168148002Y-68061292D01*
X168202668Y-68056509D01*
X168366674Y-68042161D01*
X168578703Y-67985347D01*
X168777646Y-67892579D01*
X168957457Y-67766674D01*
X169112674Y-67611457D01*
X169238579Y-67431646D01*
X169305618Y-67287878D01*
X169351790Y-67235439D01*
X169418983Y-67216287D01*
X169485864Y-67236502D01*
X169530382Y-67287879D01*
X169597419Y-67431642D01*
X169597423Y-67431650D01*
X169723322Y-67611452D01*
X169723327Y-67611458D01*
X169878541Y-67766672D01*
X169878547Y-67766677D01*
X170058349Y-67892576D01*
X170058351Y-67892577D01*
X170058354Y-67892579D01*
X170257297Y-67985347D01*
X170469326Y-68042161D01*
X170625521Y-68055826D01*
X170687998Y-68061292D01*
X170688000Y-68061292D01*
X170688002Y-68061292D01*
X170742668Y-68056509D01*
X170906674Y-68042161D01*
X171118703Y-67985347D01*
X171317646Y-67892579D01*
X171497457Y-67766674D01*
X171652674Y-67611457D01*
X171778579Y-67431646D01*
X171845618Y-67287878D01*
X171891790Y-67235439D01*
X171958983Y-67216287D01*
X172025864Y-67236502D01*
X172070382Y-67287879D01*
X172137419Y-67431642D01*
X172137423Y-67431650D01*
X172263322Y-67611452D01*
X172263327Y-67611458D01*
X172418541Y-67766672D01*
X172418547Y-67766677D01*
X172598349Y-67892576D01*
X172598351Y-67892577D01*
X172598354Y-67892579D01*
X172797297Y-67985347D01*
X173009326Y-68042161D01*
X173165521Y-68055826D01*
X173227998Y-68061292D01*
X173228000Y-68061292D01*
X173228002Y-68061292D01*
X173282668Y-68056509D01*
X173446674Y-68042161D01*
X173658703Y-67985347D01*
X173857646Y-67892579D01*
X174037457Y-67766674D01*
X174192674Y-67611457D01*
X174318579Y-67431646D01*
X174385618Y-67287878D01*
X174431790Y-67235439D01*
X174498983Y-67216287D01*
X174565864Y-67236502D01*
X174610382Y-67287879D01*
X174677419Y-67431642D01*
X174677423Y-67431650D01*
X174803322Y-67611452D01*
X174803327Y-67611458D01*
X174958541Y-67766672D01*
X174958547Y-67766677D01*
X175138349Y-67892576D01*
X175138351Y-67892577D01*
X175138354Y-67892579D01*
X175337297Y-67985347D01*
X175549326Y-68042161D01*
X175705521Y-68055826D01*
X175767998Y-68061292D01*
X175768000Y-68061292D01*
X175768002Y-68061292D01*
X175822668Y-68056509D01*
X175986674Y-68042161D01*
X176198703Y-67985347D01*
X176397646Y-67892579D01*
X176577457Y-67766674D01*
X176732674Y-67611457D01*
X176858579Y-67431646D01*
X176925618Y-67287878D01*
X176971790Y-67235439D01*
X177038983Y-67216287D01*
X177105864Y-67236502D01*
X177150382Y-67287879D01*
X177217419Y-67431642D01*
X177217423Y-67431650D01*
X177343322Y-67611452D01*
X177343327Y-67611458D01*
X177498541Y-67766672D01*
X177498547Y-67766677D01*
X177678349Y-67892576D01*
X177678351Y-67892577D01*
X177678354Y-67892579D01*
X177877297Y-67985347D01*
X178089326Y-68042161D01*
X178245521Y-68055826D01*
X178307998Y-68061292D01*
X178308000Y-68061292D01*
X178308002Y-68061292D01*
X178362668Y-68056509D01*
X178526674Y-68042161D01*
X178738703Y-67985347D01*
X178937646Y-67892579D01*
X179117457Y-67766674D01*
X179272674Y-67611457D01*
X179398579Y-67431646D01*
X179465618Y-67287878D01*
X179511790Y-67235439D01*
X179578983Y-67216287D01*
X179645864Y-67236502D01*
X179690382Y-67287879D01*
X179757419Y-67431642D01*
X179757423Y-67431650D01*
X179883322Y-67611452D01*
X179883327Y-67611458D01*
X180038541Y-67766672D01*
X180038547Y-67766677D01*
X180218349Y-67892576D01*
X180218351Y-67892577D01*
X180218354Y-67892579D01*
X180417297Y-67985347D01*
X180629326Y-68042161D01*
X180785521Y-68055826D01*
X180847998Y-68061292D01*
X180848000Y-68061292D01*
X180848002Y-68061292D01*
X180902668Y-68056509D01*
X181066674Y-68042161D01*
X181278703Y-67985347D01*
X181477646Y-67892579D01*
X181657457Y-67766674D01*
X181812674Y-67611457D01*
X181938579Y-67431646D01*
X182005618Y-67287878D01*
X182051790Y-67235439D01*
X182118983Y-67216287D01*
X182185864Y-67236502D01*
X182230382Y-67287879D01*
X182297419Y-67431642D01*
X182297423Y-67431650D01*
X182423322Y-67611452D01*
X182423327Y-67611458D01*
X182578541Y-67766672D01*
X182578547Y-67766677D01*
X182758349Y-67892576D01*
X182758351Y-67892577D01*
X182758354Y-67892579D01*
X182957297Y-67985347D01*
X183169326Y-68042161D01*
X183325521Y-68055826D01*
X183387998Y-68061292D01*
X183388000Y-68061292D01*
X183388002Y-68061292D01*
X183442668Y-68056509D01*
X183606674Y-68042161D01*
X183818703Y-67985347D01*
X184017646Y-67892579D01*
X184197457Y-67766674D01*
X184352674Y-67611457D01*
X184478579Y-67431646D01*
X184545618Y-67287878D01*
X184591790Y-67235439D01*
X184658983Y-67216287D01*
X184725864Y-67236502D01*
X184770382Y-67287879D01*
X184837419Y-67431642D01*
X184837423Y-67431650D01*
X184963322Y-67611452D01*
X184963327Y-67611458D01*
X185118541Y-67766672D01*
X185118547Y-67766677D01*
X185298349Y-67892576D01*
X185298351Y-67892577D01*
X185298354Y-67892579D01*
X185497297Y-67985347D01*
X185709326Y-68042161D01*
X185865521Y-68055826D01*
X185927998Y-68061292D01*
X185928000Y-68061292D01*
X185928002Y-68061292D01*
X185982668Y-68056509D01*
X186146674Y-68042161D01*
X186358703Y-67985347D01*
X186557646Y-67892579D01*
X186737457Y-67766674D01*
X186892674Y-67611457D01*
X187018579Y-67431646D01*
X187085618Y-67287878D01*
X187131790Y-67235439D01*
X187198983Y-67216287D01*
X187265864Y-67236502D01*
X187310382Y-67287879D01*
X187377419Y-67431642D01*
X187377423Y-67431650D01*
X187503322Y-67611452D01*
X187503327Y-67611458D01*
X187658541Y-67766672D01*
X187658547Y-67766677D01*
X187838349Y-67892576D01*
X187838351Y-67892577D01*
X187838354Y-67892579D01*
X188037297Y-67985347D01*
X188249326Y-68042161D01*
X188405521Y-68055826D01*
X188467998Y-68061292D01*
X188468000Y-68061292D01*
X188468002Y-68061292D01*
X188522668Y-68056509D01*
X188686674Y-68042161D01*
X188898703Y-67985347D01*
X189097646Y-67892579D01*
X189277457Y-67766674D01*
X189432674Y-67611457D01*
X189558579Y-67431646D01*
X189625618Y-67287878D01*
X189671790Y-67235439D01*
X189738983Y-67216287D01*
X189805864Y-67236502D01*
X189850382Y-67287879D01*
X189917419Y-67431642D01*
X189917423Y-67431650D01*
X190043322Y-67611452D01*
X190043327Y-67611458D01*
X190198541Y-67766672D01*
X190198547Y-67766677D01*
X190378349Y-67892576D01*
X190378351Y-67892577D01*
X190378354Y-67892579D01*
X190577297Y-67985347D01*
X190789326Y-68042161D01*
X190945521Y-68055826D01*
X191007998Y-68061292D01*
X191008000Y-68061292D01*
X191008002Y-68061292D01*
X191062668Y-68056509D01*
X191226674Y-68042161D01*
X191438703Y-67985347D01*
X191637646Y-67892579D01*
X191817457Y-67766674D01*
X191972674Y-67611457D01*
X192098579Y-67431646D01*
X192165618Y-67287878D01*
X192211790Y-67235439D01*
X192278983Y-67216287D01*
X192345864Y-67236502D01*
X192390382Y-67287879D01*
X192457419Y-67431642D01*
X192457423Y-67431650D01*
X192583322Y-67611452D01*
X192583327Y-67611458D01*
X192738541Y-67766672D01*
X192738547Y-67766677D01*
X192918349Y-67892576D01*
X192918351Y-67892577D01*
X192918354Y-67892579D01*
X193117297Y-67985347D01*
X193329326Y-68042161D01*
X193485521Y-68055826D01*
X193547998Y-68061292D01*
X193548000Y-68061292D01*
X193548002Y-68061292D01*
X193602668Y-68056509D01*
X193766674Y-68042161D01*
X193978703Y-67985347D01*
X194177646Y-67892579D01*
X194357457Y-67766674D01*
X194512674Y-67611457D01*
X194638579Y-67431646D01*
X194731347Y-67232703D01*
X194788161Y-67020674D01*
X194807292Y-66802000D01*
X194788161Y-66583326D01*
X194731347Y-66371297D01*
X194638579Y-66172354D01*
X194638577Y-66172351D01*
X194638576Y-66172349D01*
X194512677Y-65992547D01*
X194512672Y-65992541D01*
X194357458Y-65837327D01*
X194357452Y-65837322D01*
X194177650Y-65711423D01*
X194177642Y-65711419D01*
X193978708Y-65618655D01*
X193978706Y-65618654D01*
X193978703Y-65618653D01*
X193790988Y-65568354D01*
X193766675Y-65561839D01*
X193766668Y-65561838D01*
X193548002Y-65542708D01*
X193547998Y-65542708D01*
X193329331Y-65561838D01*
X193329324Y-65561839D01*
X193206902Y-65594642D01*
X193117297Y-65618653D01*
X193117295Y-65618653D01*
X193117291Y-65618655D01*
X192918357Y-65711419D01*
X192918349Y-65711423D01*
X192738547Y-65837322D01*
X192738541Y-65837327D01*
X192583327Y-65992541D01*
X192583322Y-65992547D01*
X192457423Y-66172349D01*
X192457419Y-66172357D01*
X192390382Y-66316120D01*
X192344210Y-66368560D01*
X192277017Y-66387712D01*
X192210135Y-66367496D01*
X192165618Y-66316120D01*
X192098580Y-66172357D01*
X192098579Y-66172354D01*
X192098577Y-66172351D01*
X192098576Y-66172349D01*
X191972677Y-65992547D01*
X191972672Y-65992541D01*
X191817458Y-65837327D01*
X191817452Y-65837322D01*
X191637650Y-65711423D01*
X191637642Y-65711419D01*
X191438708Y-65618655D01*
X191438706Y-65618654D01*
X191438703Y-65618653D01*
X191250988Y-65568354D01*
X191226675Y-65561839D01*
X191226668Y-65561838D01*
X191008002Y-65542708D01*
X191007998Y-65542708D01*
X190789331Y-65561838D01*
X190789324Y-65561839D01*
X190666902Y-65594642D01*
X190577297Y-65618653D01*
X190577295Y-65618653D01*
X190577291Y-65618655D01*
X190378357Y-65711419D01*
X190378349Y-65711423D01*
X190198547Y-65837322D01*
X190198541Y-65837327D01*
X190043327Y-65992541D01*
X190043322Y-65992547D01*
X189917423Y-66172349D01*
X189917419Y-66172357D01*
X189850382Y-66316120D01*
X189804210Y-66368560D01*
X189737017Y-66387712D01*
X189670135Y-66367496D01*
X189625618Y-66316120D01*
X189558580Y-66172357D01*
X189558579Y-66172354D01*
X189558577Y-66172351D01*
X189558576Y-66172349D01*
X189432677Y-65992547D01*
X189432672Y-65992541D01*
X189277458Y-65837327D01*
X189277452Y-65837322D01*
X189097650Y-65711423D01*
X189097642Y-65711419D01*
X188898708Y-65618655D01*
X188898706Y-65618654D01*
X188898703Y-65618653D01*
X188710988Y-65568354D01*
X188686675Y-65561839D01*
X188686668Y-65561838D01*
X188468002Y-65542708D01*
X188467998Y-65542708D01*
X188249331Y-65561838D01*
X188249324Y-65561839D01*
X188126902Y-65594642D01*
X188037297Y-65618653D01*
X188037295Y-65618653D01*
X188037291Y-65618655D01*
X187838357Y-65711419D01*
X187838349Y-65711423D01*
X187658547Y-65837322D01*
X187658541Y-65837327D01*
X187503327Y-65992541D01*
X187503322Y-65992547D01*
X187377423Y-66172349D01*
X187377419Y-66172357D01*
X187310382Y-66316120D01*
X187264210Y-66368560D01*
X187197017Y-66387712D01*
X187130135Y-66367496D01*
X187085618Y-66316120D01*
X187018580Y-66172357D01*
X187018579Y-66172354D01*
X187018577Y-66172351D01*
X187018576Y-66172349D01*
X186892677Y-65992547D01*
X186892672Y-65992541D01*
X186737458Y-65837327D01*
X186737452Y-65837322D01*
X186557650Y-65711423D01*
X186557642Y-65711419D01*
X186358708Y-65618655D01*
X186358706Y-65618654D01*
X186358703Y-65618653D01*
X186170988Y-65568354D01*
X186146675Y-65561839D01*
X186146668Y-65561838D01*
X185928002Y-65542708D01*
X185927998Y-65542708D01*
X185709331Y-65561838D01*
X185709324Y-65561839D01*
X185586902Y-65594642D01*
X185497297Y-65618653D01*
X185497295Y-65618653D01*
X185497291Y-65618655D01*
X185298357Y-65711419D01*
X185298349Y-65711423D01*
X185118547Y-65837322D01*
X185118541Y-65837327D01*
X184963327Y-65992541D01*
X184963322Y-65992547D01*
X184837423Y-66172349D01*
X184837419Y-66172357D01*
X184770382Y-66316120D01*
X184724210Y-66368560D01*
X184657017Y-66387712D01*
X184590135Y-66367496D01*
X184545618Y-66316120D01*
X184478580Y-66172357D01*
X184478579Y-66172354D01*
X184478577Y-66172351D01*
X184478576Y-66172349D01*
X184352677Y-65992547D01*
X184352672Y-65992541D01*
X184197458Y-65837327D01*
X184197452Y-65837322D01*
X184017650Y-65711423D01*
X184017642Y-65711419D01*
X183818708Y-65618655D01*
X183818706Y-65618654D01*
X183818703Y-65618653D01*
X183630988Y-65568354D01*
X183606675Y-65561839D01*
X183606668Y-65561838D01*
X183388002Y-65542708D01*
X183387998Y-65542708D01*
X183169331Y-65561838D01*
X183169324Y-65561839D01*
X183046902Y-65594642D01*
X182957297Y-65618653D01*
X182957295Y-65618653D01*
X182957291Y-65618655D01*
X182758357Y-65711419D01*
X182758349Y-65711423D01*
X182578547Y-65837322D01*
X182578541Y-65837327D01*
X182423327Y-65992541D01*
X182423322Y-65992547D01*
X182297423Y-66172349D01*
X182297419Y-66172357D01*
X182230382Y-66316120D01*
X182184210Y-66368560D01*
X182117017Y-66387712D01*
X182050135Y-66367496D01*
X182005618Y-66316120D01*
X181938580Y-66172357D01*
X181938579Y-66172354D01*
X181938577Y-66172351D01*
X181938576Y-66172349D01*
X181812677Y-65992547D01*
X181812672Y-65992541D01*
X181657458Y-65837327D01*
X181657452Y-65837322D01*
X181477650Y-65711423D01*
X181477642Y-65711419D01*
X181278708Y-65618655D01*
X181278706Y-65618654D01*
X181278703Y-65618653D01*
X181090988Y-65568354D01*
X181066675Y-65561839D01*
X181066668Y-65561838D01*
X180846189Y-65542549D01*
X180781120Y-65517097D01*
X180740141Y-65460506D01*
X180736263Y-65390744D01*
X180769313Y-65331342D01*
X183387838Y-62712819D01*
X183449161Y-62679334D01*
X183475519Y-62676500D01*
X205009129Y-62676500D01*
X205076168Y-62696185D01*
X205112937Y-62732678D01*
X205167842Y-62816716D01*
X205167850Y-62816727D01*
X205320950Y-62983036D01*
X205320954Y-62983040D01*
X205499351Y-63121893D01*
X205527165Y-63136945D01*
X205576755Y-63186165D01*
X205591863Y-63254382D01*
X205567692Y-63319937D01*
X205527165Y-63355055D01*
X205499352Y-63370106D01*
X205320955Y-63508959D01*
X205320950Y-63508963D01*
X205167850Y-63675272D01*
X205167844Y-63675281D01*
X205112937Y-63759322D01*
X205059791Y-63804679D01*
X205009129Y-63815500D01*
X202623004Y-63815500D01*
X202487677Y-63842418D01*
X202487667Y-63842421D01*
X202360192Y-63895222D01*
X202245454Y-63971887D01*
X202245453Y-63971888D01*
X197358162Y-68859181D01*
X197296839Y-68892666D01*
X197270481Y-68895500D01*
X165285004Y-68895500D01*
X165149677Y-68922418D01*
X165149667Y-68922421D01*
X165022192Y-68975222D01*
X164907454Y-69051887D01*
X153195909Y-80763432D01*
X153134586Y-80796917D01*
X153097421Y-80799279D01*
X152908002Y-80782708D01*
X152907998Y-80782708D01*
X152689331Y-80801838D01*
X152689324Y-80801839D01*
X152566902Y-80834642D01*
X152477297Y-80858653D01*
X152477295Y-80858653D01*
X152477291Y-80858655D01*
X152278357Y-80951419D01*
X152278349Y-80951423D01*
X152098547Y-81077322D01*
X152098541Y-81077327D01*
X151943327Y-81232541D01*
X151943322Y-81232547D01*
X151817423Y-81412349D01*
X151817419Y-81412357D01*
X151750382Y-81556120D01*
X151704210Y-81608560D01*
X151637017Y-81627712D01*
X151570135Y-81607496D01*
X151525618Y-81556120D01*
X151478592Y-81455272D01*
X151458579Y-81412354D01*
X151458577Y-81412351D01*
X151458576Y-81412349D01*
X151332677Y-81232547D01*
X151332672Y-81232541D01*
X151177458Y-81077327D01*
X151177452Y-81077322D01*
X150997650Y-80951423D01*
X150997642Y-80951419D01*
X150798708Y-80858655D01*
X150798706Y-80858654D01*
X150798703Y-80858653D01*
X150610988Y-80808354D01*
X150586675Y-80801839D01*
X150586668Y-80801838D01*
X150368002Y-80782708D01*
X150367998Y-80782708D01*
X150149331Y-80801838D01*
X150149324Y-80801839D01*
X150026902Y-80834642D01*
X149937297Y-80858653D01*
X149937295Y-80858653D01*
X149937291Y-80858655D01*
X149738357Y-80951419D01*
X149738349Y-80951423D01*
X149558547Y-81077322D01*
X149558541Y-81077327D01*
X149403327Y-81232541D01*
X149403322Y-81232547D01*
X149277423Y-81412349D01*
X149277419Y-81412357D01*
X149210382Y-81556120D01*
X149164210Y-81608560D01*
X149097017Y-81627712D01*
X149030135Y-81607496D01*
X148985618Y-81556120D01*
X148938592Y-81455272D01*
X148918579Y-81412354D01*
X148918577Y-81412351D01*
X148918576Y-81412349D01*
X148792677Y-81232547D01*
X148792672Y-81232541D01*
X148637458Y-81077327D01*
X148637452Y-81077322D01*
X148457650Y-80951423D01*
X148457642Y-80951419D01*
X148258708Y-80858655D01*
X148258706Y-80858654D01*
X148258703Y-80858653D01*
X148070988Y-80808354D01*
X148046675Y-80801839D01*
X148046668Y-80801838D01*
X147828002Y-80782708D01*
X147827998Y-80782708D01*
X147609331Y-80801838D01*
X147609324Y-80801839D01*
X147486902Y-80834642D01*
X147397297Y-80858653D01*
X147397295Y-80858653D01*
X147397291Y-80858655D01*
X147198357Y-80951419D01*
X147198349Y-80951423D01*
X147018547Y-81077322D01*
X147018541Y-81077327D01*
X146863327Y-81232541D01*
X146863326Y-81232543D01*
X146768074Y-81368577D01*
X146713497Y-81412201D01*
X146643998Y-81419394D01*
X146581644Y-81387872D01*
X146546230Y-81327642D01*
X146542499Y-81297453D01*
X146542499Y-81240129D01*
X146542498Y-81240123D01*
X146542497Y-81240116D01*
X146536091Y-81180517D01*
X146524746Y-81150100D01*
X146485797Y-81045671D01*
X146485793Y-81045664D01*
X146399547Y-80930455D01*
X146399544Y-80930452D01*
X146284335Y-80844206D01*
X146284328Y-80844202D01*
X146149482Y-80793908D01*
X146149483Y-80793908D01*
X146089883Y-80787501D01*
X146089881Y-80787500D01*
X146089873Y-80787500D01*
X146089864Y-80787500D01*
X144486129Y-80787500D01*
X144486123Y-80787501D01*
X144426516Y-80793908D01*
X144291671Y-80844202D01*
X144291664Y-80844206D01*
X144176455Y-80930452D01*
X144176452Y-80930455D01*
X144090206Y-81045664D01*
X144090202Y-81045671D01*
X144039908Y-81180517D01*
X144034315Y-81232543D01*
X144033501Y-81240123D01*
X144033500Y-81240135D01*
X144033500Y-82843870D01*
X144033501Y-82843876D01*
X144039908Y-82903483D01*
X144090202Y-83038328D01*
X144090206Y-83038335D01*
X144176452Y-83153544D01*
X144176455Y-83153547D01*
X144291664Y-83239793D01*
X144291671Y-83239797D01*
X144316429Y-83249031D01*
X144426517Y-83290091D01*
X144486127Y-83296500D01*
X144738480Y-83296499D01*
X144805519Y-83316183D01*
X144826161Y-83332818D01*
X144841454Y-83348111D01*
X144841458Y-83348114D01*
X144956182Y-83424771D01*
X144956195Y-83424778D01*
X145083667Y-83477578D01*
X145083672Y-83477580D01*
X145083676Y-83477580D01*
X145083677Y-83477581D01*
X145219004Y-83504500D01*
X145219007Y-83504500D01*
X145356993Y-83504500D01*
X145416142Y-83492734D01*
X145485730Y-83498960D01*
X145528013Y-83526670D01*
X162331181Y-100329838D01*
X162364666Y-100391161D01*
X162367500Y-100417519D01*
X162367500Y-103912011D01*
X162347815Y-103979050D01*
X162319663Y-104009864D01*
X162140955Y-104148958D01*
X162140950Y-104148963D01*
X161987850Y-104315272D01*
X161987842Y-104315283D01*
X161864198Y-104504533D01*
X161773388Y-104711560D01*
X161717892Y-104930710D01*
X161699225Y-105155993D01*
X161699225Y-105156006D01*
X161717892Y-105381289D01*
X161773388Y-105600439D01*
X161864198Y-105807466D01*
X161987842Y-105996716D01*
X161987850Y-105996727D01*
X162123997Y-106144620D01*
X162140954Y-106163040D01*
X162319351Y-106301893D01*
X162518169Y-106409488D01*
X162518172Y-106409489D01*
X162731982Y-106482890D01*
X162731984Y-106482890D01*
X162731986Y-106482891D01*
X162954967Y-106520100D01*
X162954968Y-106520100D01*
X163181032Y-106520100D01*
X163181033Y-106520100D01*
X163404014Y-106482891D01*
X163617831Y-106409488D01*
X163816649Y-106301893D01*
X163995046Y-106163040D01*
X164148156Y-105996719D01*
X164234193Y-105865028D01*
X164287338Y-105819675D01*
X164356569Y-105810251D01*
X164419905Y-105839753D01*
X164441804Y-105865025D01*
X164527844Y-105996719D01*
X164527849Y-105996724D01*
X164527850Y-105996727D01*
X164663997Y-106144620D01*
X164680954Y-106163040D01*
X164859351Y-106301893D01*
X165058169Y-106409488D01*
X165058172Y-106409489D01*
X165271982Y-106482890D01*
X165271984Y-106482890D01*
X165271986Y-106482891D01*
X165494967Y-106520100D01*
X165494968Y-106520100D01*
X165721032Y-106520100D01*
X165721033Y-106520100D01*
X165944014Y-106482891D01*
X166157831Y-106409488D01*
X166356649Y-106301893D01*
X166535046Y-106163040D01*
X166688156Y-105996719D01*
X166774193Y-105865028D01*
X166827338Y-105819675D01*
X166896569Y-105810251D01*
X166959905Y-105839753D01*
X166981804Y-105865025D01*
X167067844Y-105996719D01*
X167067849Y-105996724D01*
X167067850Y-105996727D01*
X167203997Y-106144620D01*
X167220954Y-106163040D01*
X167399351Y-106301893D01*
X167598169Y-106409488D01*
X167598172Y-106409489D01*
X167811982Y-106482890D01*
X167811984Y-106482890D01*
X167811986Y-106482891D01*
X168034967Y-106520100D01*
X168034968Y-106520100D01*
X168261032Y-106520100D01*
X168261033Y-106520100D01*
X168484014Y-106482891D01*
X168697831Y-106409488D01*
X168896649Y-106301893D01*
X169075046Y-106163040D01*
X169228156Y-105996719D01*
X169314193Y-105865028D01*
X169367338Y-105819675D01*
X169436569Y-105810251D01*
X169499905Y-105839753D01*
X169521804Y-105865025D01*
X169607844Y-105996719D01*
X169607849Y-105996724D01*
X169607850Y-105996727D01*
X169743997Y-106144620D01*
X169760954Y-106163040D01*
X169939351Y-106301893D01*
X170138169Y-106409488D01*
X170138172Y-106409489D01*
X170351982Y-106482890D01*
X170351984Y-106482890D01*
X170351986Y-106482891D01*
X170574967Y-106520100D01*
X170574968Y-106520100D01*
X170801032Y-106520100D01*
X170801033Y-106520100D01*
X171024014Y-106482891D01*
X171237831Y-106409488D01*
X171436649Y-106301893D01*
X171615046Y-106163040D01*
X171768156Y-105996719D01*
X171854193Y-105865028D01*
X171907338Y-105819675D01*
X171976569Y-105810251D01*
X172039905Y-105839753D01*
X172061804Y-105865025D01*
X172147844Y-105996719D01*
X172147849Y-105996724D01*
X172147850Y-105996727D01*
X172283997Y-106144620D01*
X172300954Y-106163040D01*
X172479351Y-106301893D01*
X172678169Y-106409488D01*
X172678172Y-106409489D01*
X172891982Y-106482890D01*
X172891984Y-106482890D01*
X172891986Y-106482891D01*
X173114967Y-106520100D01*
X173114968Y-106520100D01*
X173341032Y-106520100D01*
X173341033Y-106520100D01*
X173564014Y-106482891D01*
X173777831Y-106409488D01*
X173976649Y-106301893D01*
X174155046Y-106163040D01*
X174308156Y-105996719D01*
X174394193Y-105865028D01*
X174447338Y-105819675D01*
X174516569Y-105810251D01*
X174579905Y-105839753D01*
X174601804Y-105865025D01*
X174687844Y-105996719D01*
X174687849Y-105996724D01*
X174687850Y-105996727D01*
X174823997Y-106144620D01*
X174840954Y-106163040D01*
X175019351Y-106301893D01*
X175218169Y-106409488D01*
X175218172Y-106409489D01*
X175431982Y-106482890D01*
X175431984Y-106482890D01*
X175431986Y-106482891D01*
X175654967Y-106520100D01*
X175654968Y-106520100D01*
X175881032Y-106520100D01*
X175881033Y-106520100D01*
X176104014Y-106482891D01*
X176317831Y-106409488D01*
X176516649Y-106301893D01*
X176695046Y-106163040D01*
X176848156Y-105996719D01*
X176934193Y-105865028D01*
X176987338Y-105819675D01*
X177056569Y-105810251D01*
X177119905Y-105839753D01*
X177141804Y-105865025D01*
X177227844Y-105996719D01*
X177227849Y-105996724D01*
X177227850Y-105996727D01*
X177363997Y-106144620D01*
X177380954Y-106163040D01*
X177559351Y-106301893D01*
X177758169Y-106409488D01*
X177758172Y-106409489D01*
X177971982Y-106482890D01*
X177971984Y-106482890D01*
X177971986Y-106482891D01*
X178194967Y-106520100D01*
X178194968Y-106520100D01*
X178421032Y-106520100D01*
X178421033Y-106520100D01*
X178644014Y-106482891D01*
X178857831Y-106409488D01*
X179056649Y-106301893D01*
X179235046Y-106163040D01*
X179388156Y-105996719D01*
X179474193Y-105865028D01*
X179527338Y-105819675D01*
X179596569Y-105810251D01*
X179659905Y-105839753D01*
X179681804Y-105865025D01*
X179767844Y-105996719D01*
X179767849Y-105996724D01*
X179767850Y-105996727D01*
X179903997Y-106144620D01*
X179920954Y-106163040D01*
X180099351Y-106301893D01*
X180298169Y-106409488D01*
X180298172Y-106409489D01*
X180511982Y-106482890D01*
X180511984Y-106482890D01*
X180511986Y-106482891D01*
X180734967Y-106520100D01*
X180734968Y-106520100D01*
X180961032Y-106520100D01*
X180961033Y-106520100D01*
X181184014Y-106482891D01*
X181397831Y-106409488D01*
X181596649Y-106301893D01*
X181775046Y-106163040D01*
X181928156Y-105996719D01*
X182051802Y-105807465D01*
X182142611Y-105600441D01*
X182198107Y-105381293D01*
X182205574Y-105291175D01*
X182216775Y-105156006D01*
X182216775Y-105155993D01*
X182203707Y-104998294D01*
X182198107Y-104930707D01*
X182142611Y-104711559D01*
X182051802Y-104504535D01*
X181928156Y-104315281D01*
X181928153Y-104315278D01*
X181928149Y-104315272D01*
X181775049Y-104148963D01*
X181775044Y-104148958D01*
X181596337Y-104009864D01*
X181555524Y-103953154D01*
X181548500Y-103912011D01*
X181548500Y-94927004D01*
X181521581Y-94791677D01*
X181521580Y-94791676D01*
X181521580Y-94791672D01*
X181472218Y-94672500D01*
X181468778Y-94664195D01*
X181468771Y-94664182D01*
X181392115Y-94549459D01*
X181357366Y-94514710D01*
X181294542Y-94451886D01*
X180922329Y-94079673D01*
X179770546Y-92927888D01*
X179770545Y-92927887D01*
X179655807Y-92851222D01*
X179528332Y-92798421D01*
X179528322Y-92798418D01*
X179392996Y-92771500D01*
X179392994Y-92771500D01*
X179392993Y-92771500D01*
X178945908Y-92771500D01*
X178878869Y-92751815D01*
X178840363Y-92707728D01*
X178838605Y-92708813D01*
X178833110Y-92699904D01*
X178742712Y-92553344D01*
X178618656Y-92429288D01*
X178469334Y-92337186D01*
X178302797Y-92282001D01*
X178302795Y-92282000D01*
X178200010Y-92271500D01*
X177399998Y-92271500D01*
X177399980Y-92271501D01*
X177297203Y-92282000D01*
X177297200Y-92282001D01*
X177130668Y-92337185D01*
X177130663Y-92337187D01*
X176981342Y-92429289D01*
X176887681Y-92522951D01*
X176826358Y-92556436D01*
X176756666Y-92551452D01*
X176712319Y-92522951D01*
X176618657Y-92429289D01*
X176618656Y-92429288D01*
X176469334Y-92337186D01*
X176302797Y-92282001D01*
X176302795Y-92282000D01*
X176200010Y-92271500D01*
X175399998Y-92271500D01*
X175399980Y-92271501D01*
X175297203Y-92282000D01*
X175297200Y-92282001D01*
X175130668Y-92337185D01*
X175130663Y-92337187D01*
X174981342Y-92429289D01*
X174857289Y-92553342D01*
X174857288Y-92553344D01*
X174767269Y-92699290D01*
X174761395Y-92708813D01*
X174759600Y-92707706D01*
X174720313Y-92752337D01*
X174654092Y-92771500D01*
X172390631Y-92771500D01*
X172323592Y-92751815D01*
X172282459Y-92704724D01*
X172281654Y-92705222D01*
X172278673Y-92700390D01*
X172278249Y-92699904D01*
X172277862Y-92699074D01*
X172186528Y-92551000D01*
X172186525Y-92550996D01*
X172063503Y-92427974D01*
X172063499Y-92427971D01*
X171915433Y-92336642D01*
X171915427Y-92336639D01*
X171915425Y-92336638D01*
X171915422Y-92336637D01*
X171750276Y-92281913D01*
X171648355Y-92271500D01*
X171648348Y-92271500D01*
X171061652Y-92271500D01*
X171061644Y-92271500D01*
X170959723Y-92281913D01*
X170794577Y-92336637D01*
X170794566Y-92336642D01*
X170646500Y-92427971D01*
X170646496Y-92427974D01*
X170523474Y-92550996D01*
X170523467Y-92551005D01*
X170522734Y-92552194D01*
X170522019Y-92552836D01*
X170518993Y-92556664D01*
X170518338Y-92556146D01*
X170470780Y-92598911D01*
X170401816Y-92610123D01*
X170337738Y-92582271D01*
X170315738Y-92556877D01*
X170315612Y-92556977D01*
X170313385Y-92554161D01*
X170311663Y-92552173D01*
X170311130Y-92551309D01*
X170188191Y-92428370D01*
X170040214Y-92337096D01*
X170040209Y-92337094D01*
X169875173Y-92282407D01*
X169773315Y-92272000D01*
X169730000Y-92272000D01*
X169730000Y-94672000D01*
X169773303Y-94672000D01*
X169773315Y-94671999D01*
X169875173Y-94661592D01*
X170040209Y-94606905D01*
X170040214Y-94606903D01*
X170188191Y-94515629D01*
X170311128Y-94392692D01*
X170311659Y-94391832D01*
X170312180Y-94391363D01*
X170315612Y-94387023D01*
X170316353Y-94387608D01*
X170363601Y-94345102D01*
X170432563Y-94333872D01*
X170496648Y-94361708D01*
X170518913Y-94387398D01*
X170518993Y-94387336D01*
X170520390Y-94389103D01*
X170522738Y-94391812D01*
X170523468Y-94392995D01*
X170523474Y-94393003D01*
X170646496Y-94516025D01*
X170646500Y-94516028D01*
X170794566Y-94607357D01*
X170794569Y-94607358D01*
X170794575Y-94607362D01*
X170959725Y-94662087D01*
X171061652Y-94672500D01*
X171061657Y-94672500D01*
X171648343Y-94672500D01*
X171648348Y-94672500D01*
X171750275Y-94662087D01*
X171915425Y-94607362D01*
X172063503Y-94516026D01*
X172186526Y-94393003D01*
X172277862Y-94244925D01*
X172278249Y-94244096D01*
X172278665Y-94243622D01*
X172281654Y-94238778D01*
X172282481Y-94239288D01*
X172324421Y-94191656D01*
X172390631Y-94172500D01*
X174654092Y-94172500D01*
X174721131Y-94192185D01*
X174759636Y-94236271D01*
X174761395Y-94235187D01*
X174765185Y-94241332D01*
X174765186Y-94241334D01*
X174857288Y-94390656D01*
X174981344Y-94514712D01*
X175130666Y-94606814D01*
X175297203Y-94661999D01*
X175399991Y-94672500D01*
X176200008Y-94672499D01*
X176200016Y-94672498D01*
X176200019Y-94672498D01*
X176281358Y-94664189D01*
X176302797Y-94661999D01*
X176469334Y-94606814D01*
X176618656Y-94514712D01*
X176712319Y-94421049D01*
X176773642Y-94387564D01*
X176843334Y-94392548D01*
X176887681Y-94421049D01*
X176981344Y-94514712D01*
X177130666Y-94606814D01*
X177297203Y-94661999D01*
X177399991Y-94672500D01*
X178200008Y-94672499D01*
X178200016Y-94672498D01*
X178200019Y-94672498D01*
X178281358Y-94664189D01*
X178302797Y-94661999D01*
X178469334Y-94606814D01*
X178618656Y-94514712D01*
X178742712Y-94390656D01*
X178834814Y-94241334D01*
X178834814Y-94241332D01*
X178838605Y-94235187D01*
X178840399Y-94236293D01*
X178879687Y-94191663D01*
X178945908Y-94172500D01*
X178982481Y-94172500D01*
X179049520Y-94192185D01*
X179070162Y-94208819D01*
X180111181Y-95249837D01*
X180144666Y-95311160D01*
X180147500Y-95337518D01*
X180147500Y-103912011D01*
X180127815Y-103979050D01*
X180099663Y-104009864D01*
X179920955Y-104148958D01*
X179920950Y-104148963D01*
X179767850Y-104315272D01*
X179767842Y-104315283D01*
X179681808Y-104446968D01*
X179628662Y-104492325D01*
X179559430Y-104501748D01*
X179496095Y-104472246D01*
X179474192Y-104446968D01*
X179388157Y-104315283D01*
X179388149Y-104315272D01*
X179235049Y-104148963D01*
X179235044Y-104148958D01*
X179056337Y-104009864D01*
X179015524Y-103953154D01*
X179008500Y-103912011D01*
X179008500Y-97721004D01*
X179008499Y-97721002D01*
X178981581Y-97585677D01*
X178981579Y-97585670D01*
X178975826Y-97571782D01*
X178975824Y-97571776D01*
X178951553Y-97513180D01*
X178928777Y-97458193D01*
X178928772Y-97458184D01*
X178921398Y-97447148D01*
X178900519Y-97380471D01*
X178900499Y-97378256D01*
X178900499Y-96781998D01*
X178900498Y-96781981D01*
X178889999Y-96679203D01*
X178889998Y-96679200D01*
X178850209Y-96559126D01*
X178834814Y-96512666D01*
X178742712Y-96363344D01*
X178618656Y-96239288D01*
X178469334Y-96147186D01*
X178302797Y-96092001D01*
X178302795Y-96092000D01*
X178200010Y-96081500D01*
X177399998Y-96081500D01*
X177399980Y-96081501D01*
X177297203Y-96092000D01*
X177297200Y-96092001D01*
X177130668Y-96147185D01*
X177130663Y-96147187D01*
X176981342Y-96239289D01*
X176887681Y-96332951D01*
X176826358Y-96366436D01*
X176756666Y-96361452D01*
X176712319Y-96332951D01*
X176618657Y-96239289D01*
X176618656Y-96239288D01*
X176469334Y-96147186D01*
X176302797Y-96092001D01*
X176302795Y-96092000D01*
X176200010Y-96081500D01*
X175399998Y-96081500D01*
X175399980Y-96081501D01*
X175297203Y-96092000D01*
X175297200Y-96092001D01*
X175130668Y-96147185D01*
X175130663Y-96147187D01*
X174981342Y-96239289D01*
X174857289Y-96363342D01*
X174839446Y-96392271D01*
X174767269Y-96509290D01*
X174761395Y-96518813D01*
X174759600Y-96517706D01*
X174720313Y-96562337D01*
X174654092Y-96581500D01*
X172390631Y-96581500D01*
X172323592Y-96561815D01*
X172282459Y-96514724D01*
X172281654Y-96515222D01*
X172278673Y-96510390D01*
X172278249Y-96509904D01*
X172277862Y-96509074D01*
X172186528Y-96361000D01*
X172186525Y-96360996D01*
X172063503Y-96237974D01*
X172063499Y-96237971D01*
X171915433Y-96146642D01*
X171915427Y-96146639D01*
X171915425Y-96146638D01*
X171901124Y-96141899D01*
X171750276Y-96091913D01*
X171648355Y-96081500D01*
X171648348Y-96081500D01*
X171061652Y-96081500D01*
X171061644Y-96081500D01*
X170959723Y-96091913D01*
X170794577Y-96146637D01*
X170794566Y-96146642D01*
X170646500Y-96237971D01*
X170646496Y-96237974D01*
X170523474Y-96360996D01*
X170523467Y-96361005D01*
X170522734Y-96362194D01*
X170522019Y-96362836D01*
X170518993Y-96366664D01*
X170518338Y-96366146D01*
X170470780Y-96408911D01*
X170401816Y-96420123D01*
X170337738Y-96392271D01*
X170315738Y-96366877D01*
X170315612Y-96366977D01*
X170313385Y-96364161D01*
X170311663Y-96362173D01*
X170311130Y-96361309D01*
X170188191Y-96238370D01*
X170040214Y-96147096D01*
X170040209Y-96147094D01*
X169875173Y-96092407D01*
X169773315Y-96082000D01*
X169730000Y-96082000D01*
X169730000Y-98482000D01*
X169773303Y-98482000D01*
X169773315Y-98481999D01*
X169875173Y-98471592D01*
X170040209Y-98416905D01*
X170040214Y-98416903D01*
X170188191Y-98325629D01*
X170311128Y-98202692D01*
X170311659Y-98201832D01*
X170312180Y-98201363D01*
X170315612Y-98197023D01*
X170316353Y-98197608D01*
X170363601Y-98155102D01*
X170432563Y-98143872D01*
X170496648Y-98171708D01*
X170518913Y-98197398D01*
X170518993Y-98197336D01*
X170520390Y-98199103D01*
X170522738Y-98201812D01*
X170523468Y-98202995D01*
X170523474Y-98203003D01*
X170646496Y-98326025D01*
X170646500Y-98326028D01*
X170794566Y-98417357D01*
X170794569Y-98417358D01*
X170794575Y-98417362D01*
X170959725Y-98472087D01*
X171061652Y-98482500D01*
X171061657Y-98482500D01*
X171648343Y-98482500D01*
X171648348Y-98482500D01*
X171750275Y-98472087D01*
X171915425Y-98417362D01*
X172063503Y-98326026D01*
X172186526Y-98203003D01*
X172277862Y-98054925D01*
X172278249Y-98054096D01*
X172278665Y-98053622D01*
X172281654Y-98048778D01*
X172282481Y-98049288D01*
X172324421Y-98001656D01*
X172390631Y-97982500D01*
X174654092Y-97982500D01*
X174721131Y-98002185D01*
X174759636Y-98046271D01*
X174761395Y-98045187D01*
X174765185Y-98051332D01*
X174765186Y-98051334D01*
X174857288Y-98200656D01*
X174981344Y-98324712D01*
X175130666Y-98416814D01*
X175297203Y-98471999D01*
X175399991Y-98482500D01*
X176200008Y-98482499D01*
X176200016Y-98482498D01*
X176200019Y-98482498D01*
X176256302Y-98476748D01*
X176302797Y-98471999D01*
X176469334Y-98416814D01*
X176618656Y-98324712D01*
X176712319Y-98231049D01*
X176773642Y-98197564D01*
X176843334Y-98202548D01*
X176887681Y-98231049D01*
X176981344Y-98324712D01*
X177130666Y-98416814D01*
X177297203Y-98471999D01*
X177399991Y-98482500D01*
X177483501Y-98482499D01*
X177550538Y-98502183D01*
X177596294Y-98554986D01*
X177607500Y-98606499D01*
X177607500Y-103912011D01*
X177587815Y-103979050D01*
X177559663Y-104009864D01*
X177380955Y-104148958D01*
X177380950Y-104148963D01*
X177227850Y-104315272D01*
X177227842Y-104315283D01*
X177141808Y-104446968D01*
X177088662Y-104492325D01*
X177019430Y-104501748D01*
X176956095Y-104472246D01*
X176934192Y-104446968D01*
X176848157Y-104315283D01*
X176848149Y-104315272D01*
X176695049Y-104148963D01*
X176695048Y-104148962D01*
X176695046Y-104148960D01*
X176516649Y-104010107D01*
X176443251Y-103970386D01*
X176317832Y-103902512D01*
X176317827Y-103902510D01*
X176104017Y-103829109D01*
X175922388Y-103798801D01*
X175881033Y-103791900D01*
X175654967Y-103791900D01*
X175613612Y-103798801D01*
X175431982Y-103829109D01*
X175218172Y-103902510D01*
X175218167Y-103902512D01*
X175019352Y-104010106D01*
X174840955Y-104148959D01*
X174840950Y-104148963D01*
X174687850Y-104315272D01*
X174687842Y-104315283D01*
X174601808Y-104446968D01*
X174548662Y-104492325D01*
X174479430Y-104501748D01*
X174416095Y-104472246D01*
X174394192Y-104446968D01*
X174308157Y-104315283D01*
X174308149Y-104315272D01*
X174155049Y-104148963D01*
X174155048Y-104148962D01*
X174155046Y-104148960D01*
X173976649Y-104010107D01*
X173903251Y-103970386D01*
X173777832Y-103902512D01*
X173777827Y-103902510D01*
X173564017Y-103829109D01*
X173382388Y-103798801D01*
X173341033Y-103791900D01*
X173114967Y-103791900D01*
X173073612Y-103798801D01*
X172891982Y-103829109D01*
X172678172Y-103902510D01*
X172678167Y-103902512D01*
X172479352Y-104010106D01*
X172300955Y-104148959D01*
X172300950Y-104148963D01*
X172147850Y-104315272D01*
X172147842Y-104315283D01*
X172061808Y-104446968D01*
X172008662Y-104492325D01*
X171939430Y-104501748D01*
X171876095Y-104472246D01*
X171854192Y-104446968D01*
X171768157Y-104315283D01*
X171768149Y-104315272D01*
X171615049Y-104148963D01*
X171615048Y-104148962D01*
X171615046Y-104148960D01*
X171436649Y-104010107D01*
X171363251Y-103970386D01*
X171237832Y-103902512D01*
X171237827Y-103902510D01*
X171024017Y-103829109D01*
X170842388Y-103798801D01*
X170801033Y-103791900D01*
X170574967Y-103791900D01*
X170533612Y-103798801D01*
X170351982Y-103829109D01*
X170138172Y-103902510D01*
X170138167Y-103902512D01*
X169939352Y-104010106D01*
X169760955Y-104148959D01*
X169760950Y-104148963D01*
X169607850Y-104315272D01*
X169607842Y-104315283D01*
X169521808Y-104446968D01*
X169468662Y-104492325D01*
X169399430Y-104501748D01*
X169336095Y-104472246D01*
X169314192Y-104446968D01*
X169228157Y-104315283D01*
X169228149Y-104315272D01*
X169075049Y-104148963D01*
X169075044Y-104148958D01*
X168896337Y-104009864D01*
X168855524Y-103953154D01*
X168848500Y-103912011D01*
X168848500Y-99753004D01*
X168826934Y-99644591D01*
X168821580Y-99617671D01*
X168801006Y-99568000D01*
X168768776Y-99490190D01*
X168692112Y-99375454D01*
X168692111Y-99375453D01*
X167104473Y-97787815D01*
X168492500Y-97787815D01*
X168502907Y-97889673D01*
X168557594Y-98054709D01*
X168557596Y-98054714D01*
X168648870Y-98202691D01*
X168771808Y-98325629D01*
X168919785Y-98416903D01*
X168919790Y-98416905D01*
X169084826Y-98471592D01*
X169186684Y-98481999D01*
X169186697Y-98482000D01*
X169230000Y-98482000D01*
X169230000Y-97532000D01*
X168492500Y-97532000D01*
X168492500Y-97787815D01*
X167104473Y-97787815D01*
X166092842Y-96776184D01*
X168492500Y-96776184D01*
X168492500Y-97032000D01*
X169230000Y-97032000D01*
X169230000Y-96082000D01*
X169186684Y-96082000D01*
X169084826Y-96092407D01*
X168919790Y-96147094D01*
X168919785Y-96147096D01*
X168771808Y-96238370D01*
X168648870Y-96361308D01*
X168557596Y-96509285D01*
X168557594Y-96509290D01*
X168502907Y-96674326D01*
X168492500Y-96776184D01*
X166092842Y-96776184D01*
X163294473Y-93977815D01*
X168492500Y-93977815D01*
X168502907Y-94079673D01*
X168557594Y-94244709D01*
X168557596Y-94244714D01*
X168648870Y-94392691D01*
X168771808Y-94515629D01*
X168919785Y-94606903D01*
X168919790Y-94606905D01*
X169084826Y-94661592D01*
X169186684Y-94671999D01*
X169186697Y-94672000D01*
X169230000Y-94672000D01*
X169230000Y-93722000D01*
X168492500Y-93722000D01*
X168492500Y-93977815D01*
X163294473Y-93977815D01*
X162282842Y-92966184D01*
X168492500Y-92966184D01*
X168492500Y-93222000D01*
X169230000Y-93222000D01*
X169230000Y-92272000D01*
X169186684Y-92272000D01*
X169084826Y-92282407D01*
X168919790Y-92337094D01*
X168919785Y-92337096D01*
X168771808Y-92428370D01*
X168648870Y-92551308D01*
X168557596Y-92699285D01*
X168557594Y-92699290D01*
X168502907Y-92864326D01*
X168492500Y-92966184D01*
X162282842Y-92966184D01*
X152829316Y-83512659D01*
X152795831Y-83451336D01*
X152800815Y-83381644D01*
X152842687Y-83325711D01*
X152906190Y-83301450D01*
X152907997Y-83301291D01*
X152908000Y-83301292D01*
X153126674Y-83282161D01*
X153338703Y-83225347D01*
X153537646Y-83132579D01*
X153717457Y-83006674D01*
X153872674Y-82851457D01*
X153998579Y-82671646D01*
X154065618Y-82527878D01*
X154111790Y-82475439D01*
X154178983Y-82456287D01*
X154245864Y-82476502D01*
X154290381Y-82527878D01*
X154305286Y-82559842D01*
X154357419Y-82671642D01*
X154357423Y-82671650D01*
X154483322Y-82851452D01*
X154483327Y-82851458D01*
X154638541Y-83006672D01*
X154638547Y-83006677D01*
X154818349Y-83132576D01*
X154818351Y-83132577D01*
X154818354Y-83132579D01*
X155017297Y-83225347D01*
X155229326Y-83282161D01*
X155385521Y-83295826D01*
X155447998Y-83301292D01*
X155448000Y-83301292D01*
X155448002Y-83301292D01*
X155504557Y-83296344D01*
X155666674Y-83282161D01*
X155878703Y-83225347D01*
X156077646Y-83132579D01*
X156257457Y-83006674D01*
X156412674Y-82851457D01*
X156538579Y-82671646D01*
X156605618Y-82527878D01*
X156651790Y-82475439D01*
X156718983Y-82456287D01*
X156785864Y-82476502D01*
X156830381Y-82527878D01*
X156845286Y-82559842D01*
X156897419Y-82671642D01*
X156897423Y-82671650D01*
X157023322Y-82851452D01*
X157023327Y-82851458D01*
X157178541Y-83006672D01*
X157178547Y-83006677D01*
X157358349Y-83132576D01*
X157358351Y-83132577D01*
X157358354Y-83132579D01*
X157557297Y-83225347D01*
X157769326Y-83282161D01*
X157925521Y-83295826D01*
X157987998Y-83301292D01*
X157988000Y-83301292D01*
X157988002Y-83301292D01*
X158044557Y-83296344D01*
X158206674Y-83282161D01*
X158418703Y-83225347D01*
X158617646Y-83132579D01*
X158797457Y-83006674D01*
X158952674Y-82851457D01*
X159078579Y-82671646D01*
X159145618Y-82527878D01*
X159191790Y-82475439D01*
X159258983Y-82456287D01*
X159325864Y-82476502D01*
X159370381Y-82527878D01*
X159385286Y-82559842D01*
X159437419Y-82671642D01*
X159437423Y-82671650D01*
X159563322Y-82851452D01*
X159563327Y-82851458D01*
X159718541Y-83006672D01*
X159718547Y-83006677D01*
X159898349Y-83132576D01*
X159898351Y-83132577D01*
X159898354Y-83132579D01*
X160097297Y-83225347D01*
X160309326Y-83282161D01*
X160465521Y-83295826D01*
X160527998Y-83301292D01*
X160528000Y-83301292D01*
X160528002Y-83301292D01*
X160584557Y-83296344D01*
X160746674Y-83282161D01*
X160958703Y-83225347D01*
X161157646Y-83132579D01*
X161337457Y-83006674D01*
X161492674Y-82851457D01*
X161618579Y-82671646D01*
X161685618Y-82527878D01*
X161731790Y-82475439D01*
X161798983Y-82456287D01*
X161865864Y-82476502D01*
X161910381Y-82527878D01*
X161925286Y-82559842D01*
X161977419Y-82671642D01*
X161977423Y-82671650D01*
X162103322Y-82851452D01*
X162103327Y-82851458D01*
X162258541Y-83006672D01*
X162258547Y-83006677D01*
X162438349Y-83132576D01*
X162438351Y-83132577D01*
X162438354Y-83132579D01*
X162637297Y-83225347D01*
X162849326Y-83282161D01*
X163005521Y-83295826D01*
X163067998Y-83301292D01*
X163068000Y-83301292D01*
X163068002Y-83301292D01*
X163124557Y-83296344D01*
X163286674Y-83282161D01*
X163498703Y-83225347D01*
X163697646Y-83132579D01*
X163877457Y-83006674D01*
X164032674Y-82851457D01*
X164158579Y-82671646D01*
X164225618Y-82527878D01*
X164271790Y-82475439D01*
X164338983Y-82456287D01*
X164405864Y-82476502D01*
X164450381Y-82527878D01*
X164465286Y-82559842D01*
X164517419Y-82671642D01*
X164517423Y-82671650D01*
X164643322Y-82851452D01*
X164643327Y-82851458D01*
X164798541Y-83006672D01*
X164798547Y-83006677D01*
X164978349Y-83132576D01*
X164978351Y-83132577D01*
X164978354Y-83132579D01*
X165177297Y-83225347D01*
X165389326Y-83282161D01*
X165545521Y-83295826D01*
X165607998Y-83301292D01*
X165608000Y-83301292D01*
X165608002Y-83301292D01*
X165664557Y-83296344D01*
X165826674Y-83282161D01*
X166038703Y-83225347D01*
X166237646Y-83132579D01*
X166417457Y-83006674D01*
X166572674Y-82851457D01*
X166698579Y-82671646D01*
X166765618Y-82527878D01*
X166811790Y-82475439D01*
X166878983Y-82456287D01*
X166945864Y-82476502D01*
X166990381Y-82527878D01*
X167005286Y-82559842D01*
X167057419Y-82671642D01*
X167057423Y-82671650D01*
X167183322Y-82851452D01*
X167183327Y-82851458D01*
X167338541Y-83006672D01*
X167338547Y-83006677D01*
X167518349Y-83132576D01*
X167518351Y-83132577D01*
X167518354Y-83132579D01*
X167717297Y-83225347D01*
X167929326Y-83282161D01*
X168085521Y-83295826D01*
X168147998Y-83301292D01*
X168148000Y-83301292D01*
X168148002Y-83301292D01*
X168204557Y-83296344D01*
X168366674Y-83282161D01*
X168578703Y-83225347D01*
X168777646Y-83132579D01*
X168957457Y-83006674D01*
X169112674Y-82851457D01*
X169238579Y-82671646D01*
X169305618Y-82527878D01*
X169351790Y-82475439D01*
X169418983Y-82456287D01*
X169485864Y-82476502D01*
X169530381Y-82527878D01*
X169545286Y-82559842D01*
X169597419Y-82671642D01*
X169597423Y-82671650D01*
X169723322Y-82851452D01*
X169723327Y-82851458D01*
X169878541Y-83006672D01*
X169878547Y-83006677D01*
X170058349Y-83132576D01*
X170058351Y-83132577D01*
X170058354Y-83132579D01*
X170257297Y-83225347D01*
X170469326Y-83282161D01*
X170625521Y-83295826D01*
X170687998Y-83301292D01*
X170688000Y-83301292D01*
X170688002Y-83301292D01*
X170744557Y-83296344D01*
X170906674Y-83282161D01*
X171118703Y-83225347D01*
X171317646Y-83132579D01*
X171497457Y-83006674D01*
X171652674Y-82851457D01*
X171778579Y-82671646D01*
X171845618Y-82527878D01*
X171891790Y-82475439D01*
X171958983Y-82456287D01*
X172025864Y-82476502D01*
X172070381Y-82527878D01*
X172085286Y-82559842D01*
X172137419Y-82671642D01*
X172137423Y-82671650D01*
X172263322Y-82851452D01*
X172263327Y-82851458D01*
X172418541Y-83006672D01*
X172418547Y-83006677D01*
X172598349Y-83132576D01*
X172598351Y-83132577D01*
X172598354Y-83132579D01*
X172797297Y-83225347D01*
X173009326Y-83282161D01*
X173165521Y-83295826D01*
X173227998Y-83301292D01*
X173228000Y-83301292D01*
X173228002Y-83301292D01*
X173284557Y-83296344D01*
X173446674Y-83282161D01*
X173658703Y-83225347D01*
X173857646Y-83132579D01*
X174037457Y-83006674D01*
X174192674Y-82851457D01*
X174318579Y-82671646D01*
X174385618Y-82527878D01*
X174431790Y-82475439D01*
X174498983Y-82456287D01*
X174565864Y-82476502D01*
X174610381Y-82527878D01*
X174625286Y-82559842D01*
X174677419Y-82671642D01*
X174677423Y-82671650D01*
X174803322Y-82851452D01*
X174803327Y-82851458D01*
X174958541Y-83006672D01*
X174958547Y-83006677D01*
X175138349Y-83132576D01*
X175138351Y-83132577D01*
X175138354Y-83132579D01*
X175337297Y-83225347D01*
X175549326Y-83282161D01*
X175705521Y-83295826D01*
X175767998Y-83301292D01*
X175768000Y-83301292D01*
X175768002Y-83301292D01*
X175824557Y-83296344D01*
X175986674Y-83282161D01*
X176198703Y-83225347D01*
X176397646Y-83132579D01*
X176577457Y-83006674D01*
X176732674Y-82851457D01*
X176858579Y-82671646D01*
X176925893Y-82527288D01*
X176972065Y-82474849D01*
X177039258Y-82455697D01*
X177106139Y-82475912D01*
X177150657Y-82527288D01*
X177217854Y-82671392D01*
X177262003Y-82734443D01*
X177825037Y-82171409D01*
X177842075Y-82234993D01*
X177907901Y-82349007D01*
X178000993Y-82442099D01*
X178115007Y-82507925D01*
X178178590Y-82524962D01*
X177615555Y-83087996D01*
X177678601Y-83132142D01*
X177678605Y-83132144D01*
X177877466Y-83224874D01*
X177877475Y-83224878D01*
X178089407Y-83281664D01*
X178089417Y-83281666D01*
X178307999Y-83300790D01*
X178308001Y-83300790D01*
X178526582Y-83281666D01*
X178526592Y-83281664D01*
X178738524Y-83224878D01*
X178738533Y-83224874D01*
X178937392Y-83132145D01*
X179000443Y-83087995D01*
X178437410Y-82524962D01*
X178500993Y-82507925D01*
X178615007Y-82442099D01*
X178708099Y-82349007D01*
X178773925Y-82234993D01*
X178790962Y-82171409D01*
X179353995Y-82734442D01*
X179398146Y-82671390D01*
X179465342Y-82527289D01*
X179511514Y-82474849D01*
X179578707Y-82455697D01*
X179645589Y-82475913D01*
X179690106Y-82527288D01*
X179757421Y-82671646D01*
X179757423Y-82671650D01*
X179883322Y-82851452D01*
X179883327Y-82851458D01*
X180038541Y-83006672D01*
X180038547Y-83006677D01*
X180218349Y-83132576D01*
X180218351Y-83132577D01*
X180218354Y-83132579D01*
X180417297Y-83225347D01*
X180629326Y-83282161D01*
X180785521Y-83295826D01*
X180847998Y-83301292D01*
X180848000Y-83301292D01*
X180848002Y-83301292D01*
X180904557Y-83296344D01*
X181066674Y-83282161D01*
X181278703Y-83225347D01*
X181477646Y-83132579D01*
X181657457Y-83006674D01*
X181812674Y-82851457D01*
X181938579Y-82671646D01*
X182005618Y-82527878D01*
X182051790Y-82475439D01*
X182118983Y-82456287D01*
X182185864Y-82476502D01*
X182230381Y-82527878D01*
X182245286Y-82559842D01*
X182297419Y-82671642D01*
X182297423Y-82671650D01*
X182423322Y-82851452D01*
X182423327Y-82851458D01*
X182578541Y-83006672D01*
X182578547Y-83006677D01*
X182758349Y-83132576D01*
X182758351Y-83132577D01*
X182758354Y-83132579D01*
X182957297Y-83225347D01*
X183169326Y-83282161D01*
X183325521Y-83295826D01*
X183387998Y-83301292D01*
X183388000Y-83301292D01*
X183388002Y-83301292D01*
X183444557Y-83296344D01*
X183606674Y-83282161D01*
X183818703Y-83225347D01*
X184017646Y-83132579D01*
X184197457Y-83006674D01*
X184352674Y-82851457D01*
X184478579Y-82671646D01*
X184545618Y-82527878D01*
X184591790Y-82475439D01*
X184658983Y-82456287D01*
X184725864Y-82476502D01*
X184770381Y-82527878D01*
X184785286Y-82559842D01*
X184837419Y-82671642D01*
X184837423Y-82671650D01*
X184963322Y-82851452D01*
X184963327Y-82851458D01*
X185118541Y-83006672D01*
X185118547Y-83006677D01*
X185298349Y-83132576D01*
X185298351Y-83132577D01*
X185298354Y-83132579D01*
X185497297Y-83225347D01*
X185709326Y-83282161D01*
X185865521Y-83295826D01*
X185927998Y-83301292D01*
X185928000Y-83301292D01*
X185928002Y-83301292D01*
X185984557Y-83296344D01*
X186146674Y-83282161D01*
X186358703Y-83225347D01*
X186557646Y-83132579D01*
X186737457Y-83006674D01*
X186892674Y-82851457D01*
X187018579Y-82671646D01*
X187085618Y-82527878D01*
X187131790Y-82475439D01*
X187198983Y-82456287D01*
X187265864Y-82476502D01*
X187310381Y-82527878D01*
X187325286Y-82559842D01*
X187377419Y-82671642D01*
X187377423Y-82671650D01*
X187503322Y-82851452D01*
X187503327Y-82851458D01*
X187658541Y-83006672D01*
X187658547Y-83006677D01*
X187838349Y-83132576D01*
X187838351Y-83132577D01*
X187838354Y-83132579D01*
X188037297Y-83225347D01*
X188249326Y-83282161D01*
X188405521Y-83295826D01*
X188467998Y-83301292D01*
X188468000Y-83301292D01*
X188468002Y-83301292D01*
X188524557Y-83296344D01*
X188686674Y-83282161D01*
X188898703Y-83225347D01*
X189097646Y-83132579D01*
X189277457Y-83006674D01*
X189432674Y-82851457D01*
X189558579Y-82671646D01*
X189625618Y-82527878D01*
X189671790Y-82475439D01*
X189738983Y-82456287D01*
X189805864Y-82476502D01*
X189850381Y-82527878D01*
X189865286Y-82559842D01*
X189917419Y-82671642D01*
X189917423Y-82671650D01*
X190043322Y-82851452D01*
X190043327Y-82851458D01*
X190198541Y-83006672D01*
X190198547Y-83006677D01*
X190378349Y-83132576D01*
X190378351Y-83132577D01*
X190378354Y-83132579D01*
X190577297Y-83225347D01*
X190789326Y-83282161D01*
X190945521Y-83295826D01*
X191007998Y-83301292D01*
X191008000Y-83301292D01*
X191008002Y-83301292D01*
X191064557Y-83296344D01*
X191226674Y-83282161D01*
X191438703Y-83225347D01*
X191637646Y-83132579D01*
X191817457Y-83006674D01*
X191972674Y-82851457D01*
X192098579Y-82671646D01*
X192165618Y-82527878D01*
X192211790Y-82475439D01*
X192278983Y-82456287D01*
X192345864Y-82476502D01*
X192390381Y-82527878D01*
X192405286Y-82559842D01*
X192457419Y-82671642D01*
X192457423Y-82671650D01*
X192583322Y-82851452D01*
X192583327Y-82851458D01*
X192738541Y-83006672D01*
X192738547Y-83006677D01*
X192918349Y-83132576D01*
X192918351Y-83132577D01*
X192918354Y-83132579D01*
X193117297Y-83225347D01*
X193329326Y-83282161D01*
X193485521Y-83295826D01*
X193547998Y-83301292D01*
X193548000Y-83301292D01*
X193548002Y-83301292D01*
X193604557Y-83296344D01*
X193766674Y-83282161D01*
X193978703Y-83225347D01*
X194177646Y-83132579D01*
X194357457Y-83006674D01*
X194512674Y-82851457D01*
X194638579Y-82671646D01*
X194731347Y-82472703D01*
X194788161Y-82260674D01*
X194807292Y-82042000D01*
X194788161Y-81823326D01*
X194767064Y-81744592D01*
X194768727Y-81674744D01*
X194807889Y-81616882D01*
X194872117Y-81589377D01*
X194886839Y-81588500D01*
X204878981Y-81588500D01*
X204946020Y-81608185D01*
X204991775Y-81660989D01*
X205001719Y-81730147D01*
X204992537Y-81762310D01*
X204953388Y-81851560D01*
X204897892Y-82070710D01*
X204879225Y-82295993D01*
X204879225Y-82296006D01*
X204897892Y-82521289D01*
X204953388Y-82740439D01*
X205044198Y-82947466D01*
X205167842Y-83136716D01*
X205167850Y-83136727D01*
X205319345Y-83301292D01*
X205320954Y-83303040D01*
X205499351Y-83441893D01*
X205527165Y-83456945D01*
X205576755Y-83506165D01*
X205591863Y-83574382D01*
X205567692Y-83639937D01*
X205527165Y-83675055D01*
X205499352Y-83690106D01*
X205320955Y-83828959D01*
X205320950Y-83828963D01*
X205167850Y-83995272D01*
X205167842Y-83995283D01*
X205044198Y-84184533D01*
X204953388Y-84391560D01*
X204897892Y-84610710D01*
X204879225Y-84835993D01*
X204879225Y-84836006D01*
X204897892Y-85061289D01*
X204953388Y-85280439D01*
X205044198Y-85487466D01*
X205167842Y-85676716D01*
X205167850Y-85676727D01*
X205320950Y-85843036D01*
X205320954Y-85843040D01*
X205499351Y-85981893D01*
X205527165Y-85996945D01*
X205576755Y-86046165D01*
X205591863Y-86114382D01*
X205567692Y-86179937D01*
X205527165Y-86215055D01*
X205499352Y-86230106D01*
X205320955Y-86368959D01*
X205320950Y-86368963D01*
X205167850Y-86535272D01*
X205167842Y-86535283D01*
X205044198Y-86724533D01*
X204953388Y-86931560D01*
X204897892Y-87150710D01*
X204879225Y-87375993D01*
X204879225Y-87376006D01*
X204897892Y-87601289D01*
X204953388Y-87820439D01*
X205044198Y-88027466D01*
X205167842Y-88216716D01*
X205167850Y-88216727D01*
X205320950Y-88383036D01*
X205320954Y-88383040D01*
X205499351Y-88521893D01*
X205527165Y-88536945D01*
X205576755Y-88586165D01*
X205591863Y-88654382D01*
X205567692Y-88719937D01*
X205527165Y-88755055D01*
X205499352Y-88770106D01*
X205320955Y-88908959D01*
X205320950Y-88908963D01*
X205167850Y-89075272D01*
X205167842Y-89075283D01*
X205044198Y-89264533D01*
X204953388Y-89471560D01*
X204897892Y-89690710D01*
X204879225Y-89915993D01*
X204879225Y-89916006D01*
X204897892Y-90141289D01*
X204953388Y-90360439D01*
X205044198Y-90567466D01*
X205167842Y-90756716D01*
X205167850Y-90756727D01*
X205320950Y-90923036D01*
X205320954Y-90923040D01*
X205499351Y-91061893D01*
X205527165Y-91076945D01*
X205576755Y-91126165D01*
X205591863Y-91194382D01*
X205567692Y-91259937D01*
X205527165Y-91295055D01*
X205499352Y-91310106D01*
X205320955Y-91448959D01*
X205320950Y-91448963D01*
X205167850Y-91615272D01*
X205167842Y-91615283D01*
X205044198Y-91804533D01*
X204953388Y-92011560D01*
X204897892Y-92230710D01*
X204879225Y-92455993D01*
X204879225Y-92456006D01*
X204897892Y-92681289D01*
X204953388Y-92900439D01*
X205044198Y-93107466D01*
X205167842Y-93296716D01*
X205167850Y-93296727D01*
X205320950Y-93463036D01*
X205320954Y-93463040D01*
X205499351Y-93601893D01*
X205527165Y-93616945D01*
X205576755Y-93666165D01*
X205591863Y-93734382D01*
X205567692Y-93799937D01*
X205527165Y-93835055D01*
X205499352Y-93850106D01*
X205320955Y-93988959D01*
X205320950Y-93988963D01*
X205167850Y-94155272D01*
X205167842Y-94155283D01*
X205044198Y-94344533D01*
X204953388Y-94551560D01*
X204897892Y-94770710D01*
X204879225Y-94995993D01*
X204879225Y-94996006D01*
X204897892Y-95221289D01*
X204953388Y-95440439D01*
X205044198Y-95647466D01*
X205167842Y-95836716D01*
X205167850Y-95836727D01*
X205320950Y-96003036D01*
X205320954Y-96003040D01*
X205499351Y-96141893D01*
X205527165Y-96156945D01*
X205576755Y-96206165D01*
X205591863Y-96274382D01*
X205567692Y-96339937D01*
X205527165Y-96375055D01*
X205499352Y-96390106D01*
X205320955Y-96528959D01*
X205320950Y-96528963D01*
X205167850Y-96695272D01*
X205167842Y-96695283D01*
X205044198Y-96884533D01*
X204953388Y-97091560D01*
X204897892Y-97310710D01*
X204879225Y-97535993D01*
X204879225Y-97536006D01*
X204897892Y-97761289D01*
X204953388Y-97980439D01*
X205044198Y-98187466D01*
X205134726Y-98326028D01*
X205167844Y-98376719D01*
X205305245Y-98525976D01*
X205336167Y-98588629D01*
X205328307Y-98658055D01*
X205284160Y-98712211D01*
X205257349Y-98726140D01*
X205142311Y-98769046D01*
X205142306Y-98769049D01*
X205027212Y-98855209D01*
X205027209Y-98855212D01*
X204941049Y-98970306D01*
X204941045Y-98970313D01*
X204890803Y-99105020D01*
X204890801Y-99105027D01*
X204884400Y-99164555D01*
X204884400Y-99826000D01*
X205805749Y-99826000D01*
X205774619Y-99879919D01*
X205740000Y-100009120D01*
X205740000Y-100142880D01*
X205774619Y-100272081D01*
X205805749Y-100326000D01*
X204884400Y-100326000D01*
X204884400Y-100987444D01*
X204890801Y-101046972D01*
X204890803Y-101046979D01*
X204941045Y-101181686D01*
X204941049Y-101181693D01*
X205027209Y-101296787D01*
X205027212Y-101296790D01*
X205142306Y-101382950D01*
X205142313Y-101382954D01*
X205277020Y-101433196D01*
X205277027Y-101433198D01*
X205336555Y-101439599D01*
X205336572Y-101439600D01*
X205998000Y-101439600D01*
X205998000Y-100518251D01*
X206051919Y-100549381D01*
X206181120Y-100584000D01*
X206314880Y-100584000D01*
X206444081Y-100549381D01*
X206498000Y-100518251D01*
X206498000Y-101439600D01*
X207159428Y-101439600D01*
X207159444Y-101439599D01*
X207218972Y-101433198D01*
X207218979Y-101433196D01*
X207353686Y-101382954D01*
X207353689Y-101382952D01*
X207443688Y-101315579D01*
X207509152Y-101291161D01*
X207577426Y-101306012D01*
X207592312Y-101315579D01*
X207682310Y-101382952D01*
X207682313Y-101382954D01*
X207817020Y-101433196D01*
X207817027Y-101433198D01*
X207876555Y-101439599D01*
X207876572Y-101439600D01*
X208538000Y-101439600D01*
X208538000Y-100518251D01*
X208591919Y-100549381D01*
X208721120Y-100584000D01*
X208854880Y-100584000D01*
X208984081Y-100549381D01*
X209038000Y-100518251D01*
X209038000Y-101439600D01*
X209699428Y-101439600D01*
X209699444Y-101439599D01*
X209758972Y-101433198D01*
X209758979Y-101433196D01*
X209893686Y-101382954D01*
X209893693Y-101382950D01*
X210008787Y-101296790D01*
X210008790Y-101296787D01*
X210094950Y-101181693D01*
X210094954Y-101181686D01*
X210145196Y-101046979D01*
X210145198Y-101046972D01*
X210151599Y-100987444D01*
X210151600Y-100987427D01*
X210151600Y-100326000D01*
X209230251Y-100326000D01*
X209261381Y-100272081D01*
X209296000Y-100142880D01*
X209296000Y-100009120D01*
X209261381Y-99879919D01*
X209230251Y-99826000D01*
X210151600Y-99826000D01*
X210151600Y-99164572D01*
X210151599Y-99164555D01*
X210145198Y-99105027D01*
X210145196Y-99105020D01*
X210094954Y-98970313D01*
X210094950Y-98970306D01*
X210008790Y-98855212D01*
X210008787Y-98855209D01*
X209893693Y-98769049D01*
X209893686Y-98769045D01*
X209778651Y-98726140D01*
X209722717Y-98684269D01*
X209698300Y-98618804D01*
X209713152Y-98550531D01*
X209730749Y-98525981D01*
X209868156Y-98376719D01*
X209991802Y-98187465D01*
X210082611Y-97980441D01*
X210138107Y-97761293D01*
X210152659Y-97585672D01*
X210156775Y-97536006D01*
X210156775Y-97535993D01*
X210138107Y-97310710D01*
X210138107Y-97310707D01*
X210082611Y-97091559D01*
X209991802Y-96884535D01*
X209868156Y-96695281D01*
X209868153Y-96695278D01*
X209868149Y-96695272D01*
X209715049Y-96528963D01*
X209715048Y-96528962D01*
X209715046Y-96528960D01*
X209536649Y-96390107D01*
X209536647Y-96390106D01*
X209536646Y-96390105D01*
X209536639Y-96390100D01*
X209508836Y-96375055D01*
X209459244Y-96325837D01*
X209444135Y-96257620D01*
X209468306Y-96192064D01*
X209508836Y-96156945D01*
X209536639Y-96141899D01*
X209536642Y-96141896D01*
X209536649Y-96141893D01*
X209715046Y-96003040D01*
X209868156Y-95836719D01*
X209991802Y-95647465D01*
X210082611Y-95440441D01*
X210138107Y-95221293D01*
X210156775Y-94996000D01*
X210156775Y-94995993D01*
X210142158Y-94819600D01*
X210138107Y-94770707D01*
X210082611Y-94551559D01*
X209991802Y-94344535D01*
X209868156Y-94155281D01*
X209868153Y-94155278D01*
X209868149Y-94155272D01*
X209715049Y-93988963D01*
X209715048Y-93988962D01*
X209715046Y-93988960D01*
X209536649Y-93850107D01*
X209536647Y-93850106D01*
X209536646Y-93850105D01*
X209536639Y-93850100D01*
X209508836Y-93835055D01*
X209459244Y-93785837D01*
X209444135Y-93717620D01*
X209468306Y-93652064D01*
X209508836Y-93616945D01*
X209536639Y-93601899D01*
X209536642Y-93601896D01*
X209536649Y-93601893D01*
X209715046Y-93463040D01*
X209847092Y-93319601D01*
X209868149Y-93296727D01*
X209868151Y-93296724D01*
X209868156Y-93296719D01*
X209991802Y-93107465D01*
X210082611Y-92900441D01*
X210138107Y-92681293D01*
X210148903Y-92551000D01*
X210156775Y-92456006D01*
X210156775Y-92455993D01*
X210142350Y-92281913D01*
X210138107Y-92230707D01*
X210082611Y-92011559D01*
X209991802Y-91804535D01*
X209868156Y-91615281D01*
X209868153Y-91615278D01*
X209868149Y-91615272D01*
X209715049Y-91448963D01*
X209715048Y-91448962D01*
X209715046Y-91448960D01*
X209536649Y-91310107D01*
X209536647Y-91310106D01*
X209536646Y-91310105D01*
X209536639Y-91310100D01*
X209508836Y-91295055D01*
X209459244Y-91245837D01*
X209444135Y-91177620D01*
X209468306Y-91112064D01*
X209508836Y-91076945D01*
X209536639Y-91061899D01*
X209536642Y-91061896D01*
X209536649Y-91061893D01*
X209715046Y-90923040D01*
X209868156Y-90756719D01*
X209991802Y-90567465D01*
X210082611Y-90360441D01*
X210138107Y-90141293D01*
X210156775Y-89916000D01*
X210156775Y-89915993D01*
X210138107Y-89690710D01*
X210138107Y-89690707D01*
X210082611Y-89471559D01*
X209991802Y-89264535D01*
X209868156Y-89075281D01*
X209868153Y-89075278D01*
X209868149Y-89075272D01*
X209715049Y-88908963D01*
X209715048Y-88908962D01*
X209715046Y-88908960D01*
X209536649Y-88770107D01*
X209536647Y-88770106D01*
X209536646Y-88770105D01*
X209536639Y-88770100D01*
X209508836Y-88755055D01*
X209459244Y-88705837D01*
X209444135Y-88637620D01*
X209468306Y-88572064D01*
X209508836Y-88536945D01*
X209536639Y-88521899D01*
X209536642Y-88521896D01*
X209536649Y-88521893D01*
X209715046Y-88383040D01*
X209868156Y-88216719D01*
X209991802Y-88027465D01*
X210082611Y-87820441D01*
X210138107Y-87601293D01*
X210156775Y-87376000D01*
X210156775Y-87375993D01*
X210138107Y-87150710D01*
X210138107Y-87150707D01*
X210082611Y-86931559D01*
X209991802Y-86724535D01*
X209868156Y-86535281D01*
X209868153Y-86535278D01*
X209868149Y-86535272D01*
X209715049Y-86368963D01*
X209715048Y-86368962D01*
X209715046Y-86368960D01*
X209536649Y-86230107D01*
X209536647Y-86230106D01*
X209536646Y-86230105D01*
X209536639Y-86230100D01*
X209508836Y-86215055D01*
X209459244Y-86165837D01*
X209444135Y-86097620D01*
X209468306Y-86032064D01*
X209508836Y-85996945D01*
X209536639Y-85981899D01*
X209536642Y-85981896D01*
X209536649Y-85981893D01*
X209715046Y-85843040D01*
X209868156Y-85676719D01*
X209991802Y-85487465D01*
X210082611Y-85280441D01*
X210138107Y-85061293D01*
X210156775Y-84836000D01*
X210156775Y-84835993D01*
X210138107Y-84610710D01*
X210138107Y-84610707D01*
X210082611Y-84391559D01*
X209991802Y-84184535D01*
X209868156Y-83995281D01*
X209868153Y-83995278D01*
X209868149Y-83995272D01*
X209715049Y-83828963D01*
X209715048Y-83828962D01*
X209715046Y-83828960D01*
X209536649Y-83690107D01*
X209536647Y-83690106D01*
X209536646Y-83690105D01*
X209536639Y-83690100D01*
X209508836Y-83675055D01*
X209459244Y-83625837D01*
X209444135Y-83557620D01*
X209468306Y-83492064D01*
X209508836Y-83456945D01*
X209536639Y-83441899D01*
X209536642Y-83441896D01*
X209536649Y-83441893D01*
X209715046Y-83303040D01*
X209852666Y-83153546D01*
X209868149Y-83136727D01*
X209868151Y-83136724D01*
X209868156Y-83136719D01*
X209991802Y-82947465D01*
X210082611Y-82740441D01*
X210138107Y-82521293D01*
X210148526Y-82395553D01*
X210156775Y-82296006D01*
X210156775Y-82295993D01*
X210138107Y-82070710D01*
X210138107Y-82070707D01*
X210082611Y-81851559D01*
X209991802Y-81644535D01*
X209973735Y-81616882D01*
X209868157Y-81455283D01*
X209868149Y-81455272D01*
X209715049Y-81288963D01*
X209715048Y-81288962D01*
X209715046Y-81288960D01*
X209536649Y-81150107D01*
X209536647Y-81150106D01*
X209536646Y-81150105D01*
X209536639Y-81150100D01*
X209508836Y-81135055D01*
X209459244Y-81085837D01*
X209444135Y-81017620D01*
X209468306Y-80952064D01*
X209508836Y-80916945D01*
X209536639Y-80901899D01*
X209536642Y-80901896D01*
X209536649Y-80901893D01*
X209715046Y-80763040D01*
X209836834Y-80630744D01*
X209868149Y-80596727D01*
X209868150Y-80596725D01*
X209868156Y-80596719D01*
X209991802Y-80407465D01*
X210082611Y-80200441D01*
X210138107Y-79981293D01*
X210156775Y-79756000D01*
X210156775Y-79755993D01*
X210138107Y-79530710D01*
X210138107Y-79530707D01*
X210082611Y-79311559D01*
X209991802Y-79104535D01*
X209868156Y-78915281D01*
X209868153Y-78915278D01*
X209868149Y-78915272D01*
X209715049Y-78748963D01*
X209715048Y-78748962D01*
X209715046Y-78748960D01*
X209536649Y-78610107D01*
X209536647Y-78610106D01*
X209536646Y-78610105D01*
X209536639Y-78610100D01*
X209508836Y-78595055D01*
X209459244Y-78545837D01*
X209444135Y-78477620D01*
X209468306Y-78412064D01*
X209508836Y-78376945D01*
X209536639Y-78361899D01*
X209536642Y-78361896D01*
X209536649Y-78361893D01*
X209715046Y-78223040D01*
X209814832Y-78114643D01*
X209868149Y-78056727D01*
X209868150Y-78056725D01*
X209868156Y-78056719D01*
X209991802Y-77867465D01*
X210082611Y-77660441D01*
X210138107Y-77441293D01*
X210156775Y-77216000D01*
X210156775Y-77215993D01*
X210138107Y-76990710D01*
X210138107Y-76990707D01*
X210082611Y-76771559D01*
X209991802Y-76564535D01*
X209868156Y-76375281D01*
X209868153Y-76375278D01*
X209868149Y-76375272D01*
X209715049Y-76208963D01*
X209715048Y-76208962D01*
X209715046Y-76208960D01*
X209536649Y-76070107D01*
X209536647Y-76070106D01*
X209536646Y-76070105D01*
X209536639Y-76070100D01*
X209508836Y-76055055D01*
X209459244Y-76005837D01*
X209444135Y-75937620D01*
X209468306Y-75872064D01*
X209508836Y-75836945D01*
X209536639Y-75821899D01*
X209536642Y-75821896D01*
X209536649Y-75821893D01*
X209715046Y-75683040D01*
X209814832Y-75574643D01*
X209868149Y-75516727D01*
X209868151Y-75516724D01*
X209868156Y-75516719D01*
X209991802Y-75327465D01*
X210082611Y-75120441D01*
X210138107Y-74901293D01*
X210156775Y-74676000D01*
X210156775Y-74675993D01*
X210138107Y-74450710D01*
X210138107Y-74450707D01*
X210082611Y-74231559D01*
X209991802Y-74024535D01*
X209868156Y-73835281D01*
X209868153Y-73835278D01*
X209868149Y-73835272D01*
X209715049Y-73668963D01*
X209715048Y-73668962D01*
X209715046Y-73668960D01*
X209536649Y-73530107D01*
X209536647Y-73530106D01*
X209536646Y-73530105D01*
X209536639Y-73530100D01*
X209508836Y-73515055D01*
X209459244Y-73465837D01*
X209444135Y-73397620D01*
X209468306Y-73332064D01*
X209508836Y-73296945D01*
X209536639Y-73281899D01*
X209536642Y-73281896D01*
X209536649Y-73281893D01*
X209715046Y-73143040D01*
X209821363Y-73027550D01*
X209868149Y-72976727D01*
X209868150Y-72976725D01*
X209868156Y-72976719D01*
X209991802Y-72787465D01*
X210082611Y-72580441D01*
X210138107Y-72361293D01*
X210156775Y-72136000D01*
X210156775Y-72135993D01*
X210138107Y-71910710D01*
X210138107Y-71910707D01*
X210082611Y-71691559D01*
X209991802Y-71484535D01*
X209991643Y-71484292D01*
X209868157Y-71295283D01*
X209868149Y-71295272D01*
X209715049Y-71128963D01*
X209715048Y-71128962D01*
X209715046Y-71128960D01*
X209536649Y-70990107D01*
X209536647Y-70990106D01*
X209536646Y-70990105D01*
X209536639Y-70990100D01*
X209508836Y-70975055D01*
X209459244Y-70925837D01*
X209444135Y-70857620D01*
X209468306Y-70792064D01*
X209508836Y-70756945D01*
X209536639Y-70741899D01*
X209536642Y-70741896D01*
X209536649Y-70741893D01*
X209715046Y-70603040D01*
X209836276Y-70471350D01*
X209868149Y-70436727D01*
X209868151Y-70436724D01*
X209868156Y-70436719D01*
X209991802Y-70247465D01*
X210082611Y-70040441D01*
X210138107Y-69821293D01*
X210156775Y-69596000D01*
X210156775Y-69595993D01*
X210138107Y-69370710D01*
X210138107Y-69370707D01*
X210082611Y-69151559D01*
X209991802Y-68944535D01*
X209868156Y-68755281D01*
X209868153Y-68755278D01*
X209868149Y-68755272D01*
X209715049Y-68588963D01*
X209715048Y-68588962D01*
X209715046Y-68588960D01*
X209536649Y-68450107D01*
X209536647Y-68450106D01*
X209536646Y-68450105D01*
X209536639Y-68450100D01*
X209508836Y-68435055D01*
X209459244Y-68385837D01*
X209444135Y-68317620D01*
X209468306Y-68252064D01*
X209508836Y-68216945D01*
X209536639Y-68201899D01*
X209536642Y-68201896D01*
X209536649Y-68201893D01*
X209715046Y-68063040D01*
X209868156Y-67896719D01*
X209991802Y-67707465D01*
X210082611Y-67500441D01*
X210138107Y-67281293D01*
X210156775Y-67056000D01*
X210156775Y-67055993D01*
X210138107Y-66830710D01*
X210138107Y-66830707D01*
X210082611Y-66611559D01*
X209991802Y-66404535D01*
X209970086Y-66371297D01*
X209868157Y-66215283D01*
X209868149Y-66215272D01*
X209715049Y-66048963D01*
X209715048Y-66048962D01*
X209715046Y-66048960D01*
X209536649Y-65910107D01*
X209536647Y-65910106D01*
X209536646Y-65910105D01*
X209536639Y-65910100D01*
X209508836Y-65895055D01*
X209459244Y-65845837D01*
X209444135Y-65777620D01*
X209468306Y-65712064D01*
X209508836Y-65676945D01*
X209536639Y-65661899D01*
X209536642Y-65661896D01*
X209536649Y-65661893D01*
X209715046Y-65523040D01*
X209868156Y-65356719D01*
X209991802Y-65167465D01*
X210082611Y-64960441D01*
X210138107Y-64741293D01*
X210156775Y-64516000D01*
X210156775Y-64515993D01*
X210138107Y-64290710D01*
X210138107Y-64290707D01*
X210082611Y-64071559D01*
X209991802Y-63864535D01*
X209959544Y-63815161D01*
X209868156Y-63675281D01*
X209868149Y-63675272D01*
X209715049Y-63508963D01*
X209715048Y-63508962D01*
X209715046Y-63508960D01*
X209536649Y-63370107D01*
X209536647Y-63370106D01*
X209536646Y-63370105D01*
X209536639Y-63370100D01*
X209508836Y-63355055D01*
X209459244Y-63305837D01*
X209444135Y-63237620D01*
X209468306Y-63172064D01*
X209508836Y-63136945D01*
X209536639Y-63121899D01*
X209536642Y-63121896D01*
X209536649Y-63121893D01*
X209715046Y-62983040D01*
X209868156Y-62816719D01*
X209991802Y-62627465D01*
X210082611Y-62420441D01*
X210138107Y-62201293D01*
X210156775Y-61976000D01*
X210156775Y-61975993D01*
X210138107Y-61750710D01*
X210138107Y-61750707D01*
X210082611Y-61531559D01*
X209991802Y-61324535D01*
X209868156Y-61135281D01*
X209868153Y-61135278D01*
X209868149Y-61135272D01*
X209715049Y-60968963D01*
X209715048Y-60968962D01*
X209715046Y-60968960D01*
X209536649Y-60830107D01*
X209536647Y-60830106D01*
X209536646Y-60830105D01*
X209536639Y-60830100D01*
X209508836Y-60815055D01*
X209459244Y-60765837D01*
X209444135Y-60697620D01*
X209468306Y-60632064D01*
X209508836Y-60596945D01*
X209536639Y-60581899D01*
X209536642Y-60581896D01*
X209536649Y-60581893D01*
X209715046Y-60443040D01*
X209814832Y-60334643D01*
X209868149Y-60276727D01*
X209868150Y-60276725D01*
X209868156Y-60276719D01*
X209991802Y-60087465D01*
X210082611Y-59880441D01*
X210138107Y-59661293D01*
X210156775Y-59436000D01*
X210156775Y-59435993D01*
X210138107Y-59210710D01*
X210138107Y-59210707D01*
X210082611Y-58991559D01*
X209991802Y-58784535D01*
X209970422Y-58751811D01*
X209887129Y-58624322D01*
X209868156Y-58595281D01*
X209868153Y-58595278D01*
X209868149Y-58595272D01*
X209715049Y-58428963D01*
X209715048Y-58428962D01*
X209715046Y-58428960D01*
X209536649Y-58290107D01*
X209536647Y-58290106D01*
X209536646Y-58290105D01*
X209536639Y-58290100D01*
X209508836Y-58275055D01*
X209459244Y-58225837D01*
X209444135Y-58157620D01*
X209468306Y-58092064D01*
X209508836Y-58056945D01*
X209536639Y-58041899D01*
X209536642Y-58041896D01*
X209536649Y-58041893D01*
X209715046Y-57903040D01*
X209868156Y-57736719D01*
X209991802Y-57547465D01*
X210082611Y-57340441D01*
X210138107Y-57121293D01*
X210145574Y-57031175D01*
X210156775Y-56896006D01*
X210156775Y-56895993D01*
X210143707Y-56738294D01*
X210138107Y-56670707D01*
X210082611Y-56451559D01*
X209991802Y-56244535D01*
X209868156Y-56055281D01*
X209868153Y-56055278D01*
X209868149Y-56055272D01*
X209715049Y-55888963D01*
X209715048Y-55888962D01*
X209715046Y-55888960D01*
X209536649Y-55750107D01*
X209510390Y-55735896D01*
X209337832Y-55642512D01*
X209337827Y-55642510D01*
X209124017Y-55569109D01*
X208942388Y-55538801D01*
X208901033Y-55531900D01*
X208674967Y-55531900D01*
X208633612Y-55538801D01*
X208451982Y-55569109D01*
X208238172Y-55642510D01*
X208238167Y-55642512D01*
X208039352Y-55750106D01*
X207860955Y-55888959D01*
X207860950Y-55888963D01*
X207707850Y-56055272D01*
X207707842Y-56055283D01*
X207621808Y-56186968D01*
X207568662Y-56232325D01*
X207499430Y-56241748D01*
X207436095Y-56212246D01*
X207414192Y-56186968D01*
X207328157Y-56055283D01*
X207328149Y-56055272D01*
X207175049Y-55888963D01*
X207175048Y-55888962D01*
X207175046Y-55888960D01*
X206996649Y-55750107D01*
X206970390Y-55735896D01*
X206797832Y-55642512D01*
X206797827Y-55642510D01*
X206584017Y-55569109D01*
X206402388Y-55538801D01*
X206361033Y-55531900D01*
X206134967Y-55531900D01*
X206093612Y-55538801D01*
X205911982Y-55569109D01*
X205698172Y-55642510D01*
X205698167Y-55642512D01*
X205499352Y-55750106D01*
X205320955Y-55888959D01*
X205320950Y-55888963D01*
X205167850Y-56055272D01*
X205167842Y-56055283D01*
X205044198Y-56244533D01*
X204953388Y-56451560D01*
X204897892Y-56670710D01*
X204879225Y-56895993D01*
X204879225Y-56896006D01*
X204897892Y-57121289D01*
X204953388Y-57340439D01*
X205044198Y-57547466D01*
X205167842Y-57736716D01*
X205167850Y-57736727D01*
X205320950Y-57903036D01*
X205320954Y-57903040D01*
X205499351Y-58041893D01*
X205527165Y-58056945D01*
X205576755Y-58106165D01*
X205591863Y-58174382D01*
X205567692Y-58239937D01*
X205527165Y-58275055D01*
X205499352Y-58290106D01*
X205320955Y-58428959D01*
X205320950Y-58428963D01*
X205167850Y-58595272D01*
X205167842Y-58595283D01*
X205112937Y-58679322D01*
X205059791Y-58724679D01*
X205009129Y-58735500D01*
X180525004Y-58735500D01*
X180389677Y-58762418D01*
X180389667Y-58762421D01*
X180262192Y-58815222D01*
X180147454Y-58891887D01*
X173515909Y-65523432D01*
X173454586Y-65556917D01*
X173417421Y-65559279D01*
X173228002Y-65542708D01*
X173227998Y-65542708D01*
X173009331Y-65561838D01*
X173009324Y-65561839D01*
X172886902Y-65594642D01*
X172797297Y-65618653D01*
X172797295Y-65618653D01*
X172797291Y-65618655D01*
X172598357Y-65711419D01*
X172598349Y-65711423D01*
X172418547Y-65837322D01*
X172418541Y-65837327D01*
X172263327Y-65992541D01*
X172263322Y-65992547D01*
X172137423Y-66172349D01*
X172137419Y-66172357D01*
X172070382Y-66316120D01*
X172024210Y-66368560D01*
X171957017Y-66387712D01*
X171890135Y-66367496D01*
X171845618Y-66316120D01*
X171778580Y-66172357D01*
X171778579Y-66172354D01*
X171778577Y-66172351D01*
X171778576Y-66172349D01*
X171652677Y-65992547D01*
X171652672Y-65992541D01*
X171497460Y-65837329D01*
X171497458Y-65837327D01*
X171497457Y-65837326D01*
X171490492Y-65832449D01*
X171441375Y-65798056D01*
X171397751Y-65743478D01*
X171388500Y-65696482D01*
X171388500Y-63939006D01*
X171379790Y-63895222D01*
X171373686Y-63864535D01*
X171371257Y-63852325D01*
X171368817Y-63840057D01*
X171361580Y-63803672D01*
X171308775Y-63676189D01*
X171232114Y-63561457D01*
X171232112Y-63561454D01*
X166344819Y-58674161D01*
X166311334Y-58612838D01*
X166308500Y-58586480D01*
X166308500Y-58139989D01*
X166328185Y-58072950D01*
X166356337Y-58042136D01*
X166408307Y-58001686D01*
X166535046Y-57903040D01*
X166688156Y-57736719D01*
X166774193Y-57605028D01*
X166827338Y-57559675D01*
X166896569Y-57550251D01*
X166959905Y-57579753D01*
X166981804Y-57605025D01*
X167067844Y-57736719D01*
X167067849Y-57736724D01*
X167067850Y-57736727D01*
X167220950Y-57903036D01*
X167220954Y-57903040D01*
X167399351Y-58041893D01*
X167598169Y-58149488D01*
X167598172Y-58149489D01*
X167811982Y-58222890D01*
X167811984Y-58222890D01*
X167811986Y-58222891D01*
X168034967Y-58260100D01*
X168034968Y-58260100D01*
X168261032Y-58260100D01*
X168261033Y-58260100D01*
X168484014Y-58222891D01*
X168697831Y-58149488D01*
X168896649Y-58041893D01*
X169075046Y-57903040D01*
X169228156Y-57736719D01*
X169314193Y-57605028D01*
X169367338Y-57559675D01*
X169436569Y-57550251D01*
X169499905Y-57579753D01*
X169521804Y-57605025D01*
X169607844Y-57736719D01*
X169607849Y-57736724D01*
X169607850Y-57736727D01*
X169760950Y-57903036D01*
X169760954Y-57903040D01*
X169939351Y-58041893D01*
X170138169Y-58149488D01*
X170138172Y-58149489D01*
X170351982Y-58222890D01*
X170351984Y-58222890D01*
X170351986Y-58222891D01*
X170574967Y-58260100D01*
X170574968Y-58260100D01*
X170801032Y-58260100D01*
X170801033Y-58260100D01*
X171024014Y-58222891D01*
X171237831Y-58149488D01*
X171436649Y-58041893D01*
X171615046Y-57903040D01*
X171768156Y-57736719D01*
X171854193Y-57605028D01*
X171907338Y-57559675D01*
X171976569Y-57550251D01*
X172039905Y-57579753D01*
X172061804Y-57605025D01*
X172147844Y-57736719D01*
X172147849Y-57736724D01*
X172147850Y-57736727D01*
X172300950Y-57903036D01*
X172300954Y-57903040D01*
X172479351Y-58041893D01*
X172678169Y-58149488D01*
X172678172Y-58149489D01*
X172891982Y-58222890D01*
X172891984Y-58222890D01*
X172891986Y-58222891D01*
X173114967Y-58260100D01*
X173114968Y-58260100D01*
X173341032Y-58260100D01*
X173341033Y-58260100D01*
X173564014Y-58222891D01*
X173777831Y-58149488D01*
X173976649Y-58041893D01*
X174155046Y-57903040D01*
X174308156Y-57736719D01*
X174394193Y-57605028D01*
X174447338Y-57559675D01*
X174516569Y-57550251D01*
X174579905Y-57579753D01*
X174601804Y-57605025D01*
X174687844Y-57736719D01*
X174687849Y-57736724D01*
X174687850Y-57736727D01*
X174840950Y-57903036D01*
X174840954Y-57903040D01*
X175019351Y-58041893D01*
X175218169Y-58149488D01*
X175218172Y-58149489D01*
X175431982Y-58222890D01*
X175431984Y-58222890D01*
X175431986Y-58222891D01*
X175654967Y-58260100D01*
X175654968Y-58260100D01*
X175881032Y-58260100D01*
X175881033Y-58260100D01*
X176104014Y-58222891D01*
X176317831Y-58149488D01*
X176516649Y-58041893D01*
X176695046Y-57903040D01*
X176848156Y-57736719D01*
X176971802Y-57547465D01*
X177062611Y-57340441D01*
X177118107Y-57121293D01*
X177125574Y-57031175D01*
X177136775Y-56896006D01*
X177136775Y-56895993D01*
X177123707Y-56738294D01*
X177118107Y-56670707D01*
X177062611Y-56451559D01*
X176971802Y-56244535D01*
X176848156Y-56055281D01*
X176848153Y-56055278D01*
X176848149Y-56055272D01*
X176695049Y-55888963D01*
X176695048Y-55888962D01*
X176695046Y-55888960D01*
X176516649Y-55750107D01*
X176490390Y-55735896D01*
X176317832Y-55642512D01*
X176317827Y-55642510D01*
X176104017Y-55569109D01*
X175922388Y-55538801D01*
X175881033Y-55531900D01*
X175654967Y-55531900D01*
X175613612Y-55538801D01*
X175431982Y-55569109D01*
X175218172Y-55642510D01*
X175218167Y-55642512D01*
X175019352Y-55750106D01*
X174840955Y-55888959D01*
X174840950Y-55888963D01*
X174687850Y-56055272D01*
X174687842Y-56055283D01*
X174601808Y-56186968D01*
X174548662Y-56232325D01*
X174479430Y-56241748D01*
X174416095Y-56212246D01*
X174394192Y-56186968D01*
X174308157Y-56055283D01*
X174308149Y-56055272D01*
X174155049Y-55888963D01*
X174155048Y-55888962D01*
X174155046Y-55888960D01*
X173976649Y-55750107D01*
X173950390Y-55735896D01*
X173777832Y-55642512D01*
X173777827Y-55642510D01*
X173564017Y-55569109D01*
X173382388Y-55538801D01*
X173341033Y-55531900D01*
X173114967Y-55531900D01*
X173073612Y-55538801D01*
X172891982Y-55569109D01*
X172678172Y-55642510D01*
X172678167Y-55642512D01*
X172479352Y-55750106D01*
X172300955Y-55888959D01*
X172300950Y-55888963D01*
X172147850Y-56055272D01*
X172147842Y-56055283D01*
X172061808Y-56186968D01*
X172008662Y-56232325D01*
X171939430Y-56241748D01*
X171876095Y-56212246D01*
X171854192Y-56186968D01*
X171768157Y-56055283D01*
X171768149Y-56055272D01*
X171615049Y-55888963D01*
X171615048Y-55888962D01*
X171615046Y-55888960D01*
X171436649Y-55750107D01*
X171410390Y-55735896D01*
X171237832Y-55642512D01*
X171237827Y-55642510D01*
X171024017Y-55569109D01*
X170842388Y-55538801D01*
X170801033Y-55531900D01*
X170574967Y-55531900D01*
X170533612Y-55538801D01*
X170351982Y-55569109D01*
X170138172Y-55642510D01*
X170138167Y-55642512D01*
X169939352Y-55750106D01*
X169760955Y-55888959D01*
X169760950Y-55888963D01*
X169607850Y-56055272D01*
X169607842Y-56055283D01*
X169521808Y-56186968D01*
X169468662Y-56232325D01*
X169399430Y-56241748D01*
X169336095Y-56212246D01*
X169314192Y-56186968D01*
X169228157Y-56055283D01*
X169228149Y-56055272D01*
X169075049Y-55888963D01*
X169075048Y-55888962D01*
X169075046Y-55888960D01*
X168896649Y-55750107D01*
X168870390Y-55735896D01*
X168697832Y-55642512D01*
X168697827Y-55642510D01*
X168484017Y-55569109D01*
X168302388Y-55538801D01*
X168261033Y-55531900D01*
X168034967Y-55531900D01*
X167993612Y-55538801D01*
X167811982Y-55569109D01*
X167598172Y-55642510D01*
X167598167Y-55642512D01*
X167399352Y-55750106D01*
X167220955Y-55888959D01*
X167220950Y-55888963D01*
X167067850Y-56055272D01*
X167067842Y-56055283D01*
X166981808Y-56186968D01*
X166928662Y-56232325D01*
X166859430Y-56241748D01*
X166796095Y-56212246D01*
X166774192Y-56186968D01*
X166688157Y-56055283D01*
X166688149Y-56055272D01*
X166535049Y-55888963D01*
X166535048Y-55888962D01*
X166535046Y-55888960D01*
X166356649Y-55750107D01*
X166330390Y-55735896D01*
X166157832Y-55642512D01*
X166157827Y-55642510D01*
X165944017Y-55569109D01*
X165762388Y-55538801D01*
X165721033Y-55531900D01*
X165494967Y-55531900D01*
X165453612Y-55538801D01*
X165271982Y-55569109D01*
X165058172Y-55642510D01*
X165058167Y-55642512D01*
X164859352Y-55750106D01*
X164680955Y-55888959D01*
X164680950Y-55888963D01*
X164527850Y-56055272D01*
X164527842Y-56055283D01*
X164441808Y-56186968D01*
X164388662Y-56232325D01*
X164319430Y-56241748D01*
X164256095Y-56212246D01*
X164234192Y-56186968D01*
X164148157Y-56055283D01*
X164148149Y-56055272D01*
X163995049Y-55888963D01*
X163995048Y-55888962D01*
X163995046Y-55888960D01*
X163816649Y-55750107D01*
X163790390Y-55735896D01*
X163617832Y-55642512D01*
X163617827Y-55642510D01*
X163404017Y-55569109D01*
X163222388Y-55538801D01*
X163181033Y-55531900D01*
X162954967Y-55531900D01*
X162913612Y-55538801D01*
X162731982Y-55569109D01*
X162518172Y-55642510D01*
X162518167Y-55642512D01*
X162319352Y-55750106D01*
X162140955Y-55888959D01*
X162140950Y-55888963D01*
X161987850Y-56055272D01*
X161987842Y-56055283D01*
X161901808Y-56186968D01*
X161848662Y-56232325D01*
X161779430Y-56241748D01*
X161716095Y-56212246D01*
X161694192Y-56186968D01*
X161608157Y-56055283D01*
X161608149Y-56055272D01*
X161455049Y-55888963D01*
X161455048Y-55888962D01*
X161455046Y-55888960D01*
X161276649Y-55750107D01*
X161250390Y-55735896D01*
X161077832Y-55642512D01*
X161077827Y-55642510D01*
X160864017Y-55569109D01*
X160682388Y-55538801D01*
X160641033Y-55531900D01*
X160414967Y-55531900D01*
X160373612Y-55538801D01*
X160191982Y-55569109D01*
X159978172Y-55642510D01*
X159978167Y-55642512D01*
X159779352Y-55750106D01*
X159600955Y-55888959D01*
X159600950Y-55888963D01*
X159447850Y-56055272D01*
X159447842Y-56055283D01*
X159361808Y-56186968D01*
X159308662Y-56232325D01*
X159239430Y-56241748D01*
X159176095Y-56212246D01*
X159154192Y-56186968D01*
X159068157Y-56055283D01*
X159068149Y-56055272D01*
X158915049Y-55888963D01*
X158915048Y-55888962D01*
X158915046Y-55888960D01*
X158736649Y-55750107D01*
X158710390Y-55735896D01*
X158537832Y-55642512D01*
X158537827Y-55642510D01*
X158324017Y-55569109D01*
X158142388Y-55538801D01*
X158101033Y-55531900D01*
X157874967Y-55531900D01*
X157833612Y-55538801D01*
X157651982Y-55569109D01*
X157438172Y-55642510D01*
X157438167Y-55642512D01*
X157239352Y-55750106D01*
X157060955Y-55888959D01*
X157060950Y-55888963D01*
X156907850Y-56055272D01*
X156907842Y-56055283D01*
X156784198Y-56244533D01*
X156693388Y-56451560D01*
X156637892Y-56670710D01*
X156619225Y-56895993D01*
X156619225Y-56896006D01*
X156637892Y-57121289D01*
X156693388Y-57340439D01*
X156784198Y-57547466D01*
X156907842Y-57736716D01*
X156907850Y-57736727D01*
X157060950Y-57903036D01*
X157060955Y-57903041D01*
X157239663Y-58042136D01*
X157280476Y-58098846D01*
X157287500Y-58139989D01*
X157287500Y-58351006D01*
X157287500Y-58488994D01*
X157287500Y-58488996D01*
X157287499Y-58488996D01*
X157314418Y-58624322D01*
X157314421Y-58624332D01*
X157367222Y-58751807D01*
X157443887Y-58866545D01*
X157443888Y-58866546D01*
X162331181Y-63753838D01*
X162364666Y-63815161D01*
X162367500Y-63841519D01*
X162367500Y-65696482D01*
X162347815Y-65763521D01*
X162314625Y-65798056D01*
X162258545Y-65837324D01*
X162258539Y-65837329D01*
X162103327Y-65992541D01*
X162103322Y-65992547D01*
X161977423Y-66172349D01*
X161977419Y-66172357D01*
X161910382Y-66316120D01*
X161864210Y-66368560D01*
X161797017Y-66387712D01*
X161730135Y-66367496D01*
X161685618Y-66316120D01*
X161618580Y-66172357D01*
X161618579Y-66172354D01*
X161618577Y-66172351D01*
X161618576Y-66172349D01*
X161492677Y-65992547D01*
X161492672Y-65992541D01*
X161337458Y-65837327D01*
X161337452Y-65837322D01*
X161157650Y-65711423D01*
X161157642Y-65711419D01*
X160958708Y-65618655D01*
X160958706Y-65618654D01*
X160958703Y-65618653D01*
X160770988Y-65568354D01*
X160746675Y-65561839D01*
X160746668Y-65561838D01*
X160528002Y-65542708D01*
X160527998Y-65542708D01*
X160389623Y-65554814D01*
X160338576Y-65559279D01*
X160270077Y-65545513D01*
X160240089Y-65523433D01*
X154660819Y-59944162D01*
X154627334Y-59882839D01*
X154624500Y-59856481D01*
X154624500Y-58139989D01*
X154644185Y-58072950D01*
X154672337Y-58042136D01*
X154724307Y-58001686D01*
X154851046Y-57903040D01*
X155004156Y-57736719D01*
X155127802Y-57547465D01*
X155218611Y-57340441D01*
X155274107Y-57121293D01*
X155281574Y-57031175D01*
X155292775Y-56896006D01*
X155292775Y-56895993D01*
X155279707Y-56738294D01*
X155274107Y-56670707D01*
X155218611Y-56451559D01*
X155127802Y-56244535D01*
X155004156Y-56055281D01*
X155004153Y-56055278D01*
X155004149Y-56055272D01*
X154851049Y-55888963D01*
X154851048Y-55888962D01*
X154851046Y-55888960D01*
X154672649Y-55750107D01*
X154646390Y-55735896D01*
X154473832Y-55642512D01*
X154473827Y-55642510D01*
X154260017Y-55569109D01*
X154078388Y-55538801D01*
X154037033Y-55531900D01*
X153810967Y-55531900D01*
X153769612Y-55538801D01*
X153587982Y-55569109D01*
X153374172Y-55642510D01*
X153374167Y-55642512D01*
X153175352Y-55750106D01*
X152996955Y-55888959D01*
X152996950Y-55888963D01*
X152843850Y-56055272D01*
X152843842Y-56055283D01*
X152757808Y-56186968D01*
X152704662Y-56232325D01*
X152635430Y-56241748D01*
X152572095Y-56212246D01*
X152550192Y-56186968D01*
X152464157Y-56055283D01*
X152464149Y-56055272D01*
X152311049Y-55888963D01*
X152311048Y-55888962D01*
X152311046Y-55888960D01*
X152132649Y-55750107D01*
X152106390Y-55735896D01*
X151933832Y-55642512D01*
X151933827Y-55642510D01*
X151720017Y-55569109D01*
X151538388Y-55538801D01*
X151497033Y-55531900D01*
X151270967Y-55531900D01*
X151229612Y-55538801D01*
X151047982Y-55569109D01*
X150834172Y-55642510D01*
X150834167Y-55642512D01*
X150635352Y-55750106D01*
X150456955Y-55888959D01*
X150456950Y-55888963D01*
X150303850Y-56055272D01*
X150303842Y-56055283D01*
X150217808Y-56186968D01*
X150164662Y-56232325D01*
X150095430Y-56241748D01*
X150032095Y-56212246D01*
X150010192Y-56186968D01*
X149924157Y-56055283D01*
X149924149Y-56055272D01*
X149771049Y-55888963D01*
X149771048Y-55888962D01*
X149771046Y-55888960D01*
X149592649Y-55750107D01*
X149566390Y-55735896D01*
X149393832Y-55642512D01*
X149393827Y-55642510D01*
X149180017Y-55569109D01*
X148998388Y-55538801D01*
X148957033Y-55531900D01*
X148730967Y-55531900D01*
X148689612Y-55538801D01*
X148507982Y-55569109D01*
X148294172Y-55642510D01*
X148294167Y-55642512D01*
X148095352Y-55750106D01*
X147916955Y-55888959D01*
X147916950Y-55888963D01*
X147763850Y-56055272D01*
X147763842Y-56055283D01*
X147677808Y-56186968D01*
X147624662Y-56232325D01*
X147555430Y-56241748D01*
X147492095Y-56212246D01*
X147470192Y-56186968D01*
X147384157Y-56055283D01*
X147384149Y-56055272D01*
X147231049Y-55888963D01*
X147231048Y-55888962D01*
X147231046Y-55888960D01*
X147052649Y-55750107D01*
X147026390Y-55735896D01*
X146853832Y-55642512D01*
X146853827Y-55642510D01*
X146640017Y-55569109D01*
X146458388Y-55538801D01*
X146417033Y-55531900D01*
X146190967Y-55531900D01*
X146149612Y-55538801D01*
X145967982Y-55569109D01*
X145754172Y-55642510D01*
X145754167Y-55642512D01*
X145555352Y-55750106D01*
X145376955Y-55888959D01*
X145376950Y-55888963D01*
X145223850Y-56055272D01*
X145223842Y-56055283D01*
X145137808Y-56186968D01*
X145084662Y-56232325D01*
X145015430Y-56241748D01*
X144952095Y-56212246D01*
X144930192Y-56186968D01*
X144844157Y-56055283D01*
X144844149Y-56055272D01*
X144691049Y-55888963D01*
X144691048Y-55888962D01*
X144691046Y-55888960D01*
X144512649Y-55750107D01*
X144486390Y-55735896D01*
X144313832Y-55642512D01*
X144313827Y-55642510D01*
X144100017Y-55569109D01*
X143918388Y-55538801D01*
X143877033Y-55531900D01*
X143650967Y-55531900D01*
X143609612Y-55538801D01*
X143427982Y-55569109D01*
X143214172Y-55642510D01*
X143214167Y-55642512D01*
X143015352Y-55750106D01*
X142836955Y-55888959D01*
X142836950Y-55888963D01*
X142683850Y-56055272D01*
X142683842Y-56055283D01*
X142597808Y-56186968D01*
X142544662Y-56232325D01*
X142475430Y-56241748D01*
X142412095Y-56212246D01*
X142390192Y-56186968D01*
X142304157Y-56055283D01*
X142304149Y-56055272D01*
X142151049Y-55888963D01*
X142151048Y-55888962D01*
X142151046Y-55888960D01*
X141972649Y-55750107D01*
X141946390Y-55735896D01*
X141773832Y-55642512D01*
X141773827Y-55642510D01*
X141560017Y-55569109D01*
X141378388Y-55538801D01*
X141337033Y-55531900D01*
X141110967Y-55531900D01*
X141069612Y-55538801D01*
X140887982Y-55569109D01*
X140674172Y-55642510D01*
X140674167Y-55642512D01*
X140475352Y-55750106D01*
X140296955Y-55888958D01*
X140242186Y-55948453D01*
X140182298Y-55984443D01*
X140112460Y-55982342D01*
X140054845Y-55942817D01*
X140034775Y-55907802D01*
X139990954Y-55790313D01*
X139990950Y-55790306D01*
X139904790Y-55675212D01*
X139904787Y-55675209D01*
X139789693Y-55589049D01*
X139789686Y-55589045D01*
X139654979Y-55538803D01*
X139654972Y-55538801D01*
X139595444Y-55532400D01*
X138934000Y-55532400D01*
X138934000Y-56453748D01*
X138880081Y-56422619D01*
X138750880Y-56388000D01*
X138617120Y-56388000D01*
X138487919Y-56422619D01*
X138434000Y-56453748D01*
X138434000Y-55532400D01*
X137772555Y-55532400D01*
X137713027Y-55538801D01*
X137713020Y-55538803D01*
X137578313Y-55589045D01*
X137578306Y-55589049D01*
X137463212Y-55675209D01*
X137463209Y-55675212D01*
X137377049Y-55790306D01*
X137377046Y-55790312D01*
X137333224Y-55907803D01*
X137291352Y-55963736D01*
X137225887Y-55988153D01*
X137157615Y-55973301D01*
X137125813Y-55948452D01*
X137071049Y-55888963D01*
X137071048Y-55888962D01*
X137071046Y-55888960D01*
X136892649Y-55750107D01*
X136866390Y-55735896D01*
X136693832Y-55642512D01*
X136693827Y-55642510D01*
X136480017Y-55569109D01*
X136298388Y-55538801D01*
X136257033Y-55531900D01*
X136030967Y-55531900D01*
X135989612Y-55538801D01*
X135807982Y-55569109D01*
X135594172Y-55642510D01*
X135594167Y-55642512D01*
X135395352Y-55750106D01*
X135216955Y-55888959D01*
X135216950Y-55888963D01*
X135063850Y-56055272D01*
X135063842Y-56055283D01*
X134977808Y-56186968D01*
X134924662Y-56232325D01*
X134855430Y-56241748D01*
X134792095Y-56212246D01*
X134770192Y-56186968D01*
X134684157Y-56055283D01*
X134684149Y-56055272D01*
X134531049Y-55888963D01*
X134531048Y-55888962D01*
X134531046Y-55888960D01*
X134352649Y-55750107D01*
X134326390Y-55735896D01*
X134153832Y-55642512D01*
X134153827Y-55642510D01*
X133940017Y-55569109D01*
X133758388Y-55538801D01*
X133717033Y-55531900D01*
X133490967Y-55531900D01*
X133449612Y-55538801D01*
X133267982Y-55569109D01*
X133054172Y-55642510D01*
X133054167Y-55642512D01*
X132855352Y-55750106D01*
X132676955Y-55888959D01*
X132676950Y-55888963D01*
X132523850Y-56055272D01*
X132523842Y-56055283D01*
X132437808Y-56186968D01*
X132384662Y-56232325D01*
X132315430Y-56241748D01*
X132252095Y-56212246D01*
X132230192Y-56186968D01*
X132144157Y-56055283D01*
X132144149Y-56055272D01*
X131991049Y-55888963D01*
X131991048Y-55888962D01*
X131991046Y-55888960D01*
X131812649Y-55750107D01*
X131786390Y-55735896D01*
X131613832Y-55642512D01*
X131613827Y-55642510D01*
X131400017Y-55569109D01*
X131218388Y-55538801D01*
X131177033Y-55531900D01*
X130950967Y-55531900D01*
X130909612Y-55538801D01*
X130727982Y-55569109D01*
X130514172Y-55642510D01*
X130514167Y-55642512D01*
X130315352Y-55750106D01*
X130136955Y-55888959D01*
X130136950Y-55888963D01*
X129983850Y-56055272D01*
X129983842Y-56055283D01*
X129860198Y-56244533D01*
X129769388Y-56451560D01*
X129713892Y-56670710D01*
X129695225Y-56895993D01*
X126992500Y-56895993D01*
X126992500Y-56138427D01*
X126992816Y-56129581D01*
X127007455Y-55924886D01*
X127009973Y-55907379D01*
X127013980Y-55888959D01*
X127052654Y-55711182D01*
X127057629Y-55694235D01*
X127127806Y-55506084D01*
X127135144Y-55490017D01*
X127231375Y-55313782D01*
X127240925Y-55298921D01*
X127361264Y-55138168D01*
X127372836Y-55124814D01*
X127514814Y-54982836D01*
X127528168Y-54971264D01*
X127688921Y-54850925D01*
X127703782Y-54841375D01*
X127880017Y-54745144D01*
X127896084Y-54737806D01*
X128084235Y-54667629D01*
X128101182Y-54662654D01*
X128297381Y-54619972D01*
X128314886Y-54617455D01*
X128519582Y-54602816D01*
X128528428Y-54602500D01*
X128589892Y-54602500D01*
X209484108Y-54602500D01*
X209545572Y-54602500D01*
X209554418Y-54602816D01*
G37*
G04 #@! TD.AperFunction*
G04 #@! TD*
M02*
